<svg width="152" height="52" viewBox="0 0 152 52" fill="none" xmlns="http://www.w3.org/2000/svg">
<path d="M46.9883 34.5847C47.5031 34.5847 47.9288 34.7629 48.2654 35.1193C48.6218 35.4559 48.8 35.8519 48.8 36.3073C48.8 36.8022 48.6218 37.2081 48.2654 37.5249C47.9288 37.8417 47.5031 38.0001 46.9883 38.0001H37.0392C36.5244 38.0001 36.0888 37.8318 35.7324 37.4952C35.3958 37.1388 35.2275 36.7033 35.2275 36.1885V19.0225C35.2275 18.5077 35.3958 18.082 35.7324 17.7454C36.0888 17.389 36.5244 17.2109 37.0392 17.2109H46.9883C47.5031 17.2109 47.9288 17.3791 48.2654 17.7157C48.6218 18.0325 48.8 18.4483 48.8 18.9631C48.8 19.4581 48.6317 19.864 48.2951 20.1807C47.9585 20.4777 47.5229 20.6262 46.9883 20.6262H38.9399V25.675H45.6519C46.1666 25.675 46.5923 25.8433 46.9289 26.1799C47.2853 26.4967 47.4635 26.9125 47.4635 27.4273C47.4635 27.9223 47.2952 28.3282 46.9586 28.6449C46.622 28.9419 46.1864 29.0904 45.6519 29.0904H38.9399V34.5847H46.9883Z" fill="white"/>
<path d="M56.0839 36.1885C56.0839 36.7033 55.9057 37.1388 55.5493 37.4952C55.2127 37.8318 54.787 38.0001 54.2722 38.0001C53.7773 38.0001 53.3615 37.8318 53.0249 37.4952C52.6883 37.1388 52.52 36.7033 52.52 36.1885V17.8345C52.52 17.3197 52.6883 16.8941 53.0249 16.5575C53.3813 16.2011 53.8169 16.0229 54.3316 16.0229C54.8266 16.0229 55.2424 16.2011 55.579 16.5575C55.9156 16.8941 56.0839 17.3197 56.0839 17.8345V36.1885Z" fill="white"/>
<path d="M68.1575 19.171C67.4843 19.171 67.0092 19.369 66.732 19.765C66.4548 20.1411 66.3162 20.5569 66.3162 21.0123V22.4082H69.0187C69.4939 22.4082 69.89 22.5666 70.2067 22.8834C70.5235 23.1803 70.6819 23.5664 70.6819 24.0416C70.6819 24.5168 70.5235 24.9128 70.2067 25.2296C69.89 25.5266 69.4939 25.675 69.0187 25.675H66.3162V36.1885C66.3162 36.7033 66.1479 37.1388 65.8113 37.4952C65.4747 37.8318 65.049 38.0001 64.5343 38.0001C64.0195 38.0001 63.5938 37.8318 63.2572 37.4952C62.9206 37.1388 62.7523 36.7033 62.7523 36.1885V25.675H61.1486C60.6734 25.675 60.2774 25.5266 59.9606 25.2296C59.6438 24.9128 59.4854 24.5168 59.4854 24.0416C59.4854 23.5664 59.6438 23.1803 59.9606 22.8834C60.2774 22.5666 60.6734 22.4082 61.1486 22.4082H62.7523V21.042C62.7523 19.5571 63.2571 18.3493 64.2669 17.4187C65.2964 16.4882 66.7716 16.0229 68.6921 16.0229C69.4247 16.0229 70.0583 16.1714 70.5928 16.4684C71.1472 16.7654 71.4244 17.2208 71.4244 17.8345C71.4244 18.3097 71.2857 18.6958 71.0085 18.9928C70.7313 19.2898 70.3948 19.4383 69.9989 19.4383C69.8999 19.4383 69.791 19.4284 69.6722 19.4086C69.5732 19.3888 69.4642 19.369 69.3454 19.3492C68.8702 19.2304 68.4743 19.171 68.1575 19.171Z" fill="white"/>
<path d="M83.3052 23.4949C83.7553 23.7273 83.9803 24.0975 83.9803 24.6057C83.9803 24.9106 83.8714 25.2082 83.6537 25.4986C83.4213 25.8035 83.1237 25.956 82.7607 25.956C82.5139 25.956 82.267 25.8907 82.0202 25.76C81.3088 25.426 80.5392 25.2591 79.7116 25.2591C78.6952 25.2591 77.8096 25.4768 77.0545 25.9124C76.2995 26.3335 75.7188 26.9361 75.3122 27.7201C74.9057 28.4896 74.7024 29.3753 74.7024 30.3772C74.7024 32.0905 75.1598 33.39 76.0745 34.2757C77.0037 35.1613 78.2161 35.6042 79.7116 35.6042C80.5973 35.6042 81.3668 35.4372 82.0202 35.1033C82.2816 34.9871 82.5139 34.929 82.7171 34.929C83.0946 34.929 83.4141 35.0887 83.6754 35.4082C83.8932 35.684 84.0021 35.9817 84.0021 36.3011C84.0021 36.5334 83.944 36.744 83.8279 36.9327C83.7117 37.1215 83.5448 37.2667 83.327 37.3683C82.1944 37.9346 80.9893 38.2177 79.7116 38.2177C78.2887 38.2177 76.982 37.92 75.7914 37.3247C74.6008 36.7149 73.6497 35.822 72.9383 34.6459C72.2268 33.4698 71.8711 32.0469 71.8711 30.3772C71.8711 28.8962 72.205 27.5677 72.8729 26.3916C73.5554 25.2155 74.4919 24.3008 75.6825 23.6474C76.8731 22.9795 78.2161 22.6455 79.7116 22.6455C81.0038 22.6455 82.2017 22.9287 83.3052 23.4949Z" fill="white"/>
<path d="M89.1194 36.6714C89.1194 37.0489 88.9887 37.3683 88.7274 37.6297C88.4806 37.8765 88.1684 37.9999 87.7909 37.9999C87.4279 37.9999 87.123 37.8765 86.8762 37.6297C86.6293 37.3683 86.5059 37.0489 86.5059 36.6714V23.2118C86.5059 22.8343 86.6293 22.5221 86.8762 22.2753C87.1375 22.014 87.4569 21.8833 87.8344 21.8833C88.1974 21.8833 88.5023 22.014 88.7492 22.2753C88.996 22.5221 89.1194 22.8343 89.1194 23.2118V36.6714Z" fill="white"/>
<path d="M94.837 36.6716C94.837 37.0491 94.7136 37.3685 94.4668 37.6299C94.22 37.8767 93.9078 38.0001 93.5303 38.0001C93.1528 38.0001 92.8406 37.8767 92.5938 37.6299C92.3469 37.3685 92.2235 37.0491 92.2235 36.6716V27.6767C92.2235 27.2992 92.3469 26.9871 92.5938 26.7402C92.8406 26.4789 93.1528 26.3482 93.5303 26.3482C93.9078 26.3482 94.22 26.4789 94.4668 26.7402C94.7136 26.9871 94.837 27.2992 94.837 27.6767V36.6716ZM93.5085 24.9326C93.0148 24.9326 92.6664 24.8527 92.4631 24.693C92.2598 24.5333 92.1582 24.2502 92.1582 23.8436V23.4298C92.1582 23.0233 92.2671 22.7401 92.4849 22.5804C92.7027 22.4207 93.0511 22.3408 93.5303 22.3408C94.0385 22.3408 94.3942 22.4207 94.5975 22.5804C94.8007 22.7401 94.9024 23.0233 94.9024 23.4298V23.8436C94.9024 24.2647 94.7935 24.5551 94.5757 24.7148C94.3724 24.86 94.0167 24.9326 93.5085 24.9326Z" fill="white"/>
<path d="M111.178 26.1304C112.616 26.1304 113.611 26.5733 114.162 27.459C114.714 28.3301 114.99 29.5425 114.99 31.0961V36.6716C114.99 37.0491 114.866 37.3685 114.62 37.6299C114.373 37.8767 114.061 38.0001 113.683 38.0001C113.306 38.0001 112.993 37.8767 112.747 37.6299C112.5 37.3685 112.376 37.0491 112.376 36.6716V31.0961C112.376 30.2975 112.217 29.6732 111.897 29.2231C111.592 28.7584 111.048 28.5261 110.264 28.5261C109.451 28.5261 108.812 28.773 108.347 29.2666C107.897 29.7458 107.672 30.3556 107.672 31.0961V36.6716C107.672 37.0491 107.549 37.3685 107.302 37.6299C107.055 37.8767 106.743 38.0001 106.365 38.0001C105.988 38.0001 105.676 37.8767 105.429 37.6299C105.182 37.3685 105.059 37.0491 105.059 36.6716V31.0961C105.059 30.2975 104.899 29.6732 104.579 29.2231C104.274 28.7584 103.73 28.5261 102.946 28.5261C102.133 28.5261 101.494 28.773 101.029 29.2666C100.579 29.7458 100.354 30.3556 100.354 31.0961V36.6716C100.354 37.0491 100.231 37.3685 99.984 37.6299C99.7371 37.8767 99.425 38.0001 99.0475 38.0001C98.67 38.0001 98.3578 37.8767 98.111 37.6299C97.8641 37.3685 97.7407 37.0491 97.7407 36.6716V27.6767C97.7407 27.2992 97.8641 26.9871 98.111 26.7402C98.3578 26.4789 98.67 26.3482 99.0475 26.3482C99.425 26.3482 99.7371 26.4789 99.984 26.7402C100.231 26.9871 100.354 27.2992 100.354 27.6767V28.0252C100.746 27.5025 101.24 27.0597 101.835 26.6967C102.445 26.3192 103.12 26.1304 103.861 26.1304C105.69 26.1304 106.859 26.929 107.367 28.5261C107.701 27.9163 108.202 27.3646 108.87 26.8709C109.552 26.3773 110.322 26.1304 111.178 26.1304Z" fill="white"/>
<path d="M127.467 26.1304C127.844 26.1304 128.156 26.2538 128.403 26.5007C128.65 26.7475 128.773 27.0669 128.773 27.459V36.6716C128.773 37.0491 128.65 37.3685 128.403 37.6299C128.156 37.8767 127.844 38.0001 127.467 38.0001C127.089 38.0001 126.777 37.8767 126.53 37.6299C126.298 37.383 126.174 37.0709 126.16 36.6933C125.797 37.1144 125.303 37.4774 124.679 37.7823C124.069 38.0727 123.423 38.2179 122.741 38.2179C121.739 38.2179 120.831 37.9638 120.018 37.4556C119.205 36.9329 118.559 36.2142 118.08 35.2995C117.615 34.3847 117.383 33.3466 117.383 32.185C117.383 31.0235 117.615 29.9853 118.08 29.0706C118.544 28.1414 119.176 27.4227 119.975 26.9145C120.788 26.3918 121.681 26.1304 122.653 26.1304C123.35 26.1304 124.004 26.2611 124.614 26.5224C125.223 26.7693 125.739 27.0887 126.16 27.4807V27.459C126.16 27.0814 126.283 26.7693 126.53 26.5224C126.777 26.2611 127.089 26.1304 127.467 26.1304ZM123.067 35.8222C124.011 35.8222 124.781 35.481 125.376 34.7986C125.971 34.1016 126.269 33.2304 126.269 32.185C126.269 31.1396 125.971 30.2685 125.376 29.5715C124.781 28.8746 124.011 28.5261 123.067 28.5261C122.138 28.5261 121.376 28.8746 120.78 29.5715C120.185 30.2685 119.887 31.1396 119.887 32.185C119.887 33.2304 120.178 34.1016 120.759 34.7986C121.354 35.481 122.123 35.8222 123.067 35.8222Z" fill="white"/>
<path d="M137.443 35.5387C137.646 35.5387 137.827 35.6404 137.987 35.8437C138.161 36.0324 138.248 36.2865 138.248 36.6059C138.248 36.998 138.031 37.3319 137.595 37.6078C137.174 37.8691 136.695 37.9998 136.158 37.9998C135.257 37.9998 134.495 37.811 133.871 37.4335C133.261 37.0415 132.956 36.2212 132.956 34.9725V28.9614H131.954C131.606 28.9614 131.315 28.8453 131.083 28.613C130.851 28.3806 130.735 28.0903 130.735 27.7418C130.735 27.4078 130.851 27.132 131.083 26.9142C131.315 26.6819 131.606 26.5657 131.954 26.5657H132.956V25.1718C132.956 24.7943 133.079 24.4822 133.326 24.2353C133.588 23.974 133.907 23.8433 134.285 23.8433C134.648 23.8433 134.952 23.974 135.199 24.2353C135.446 24.4822 135.57 24.7943 135.57 25.1718V26.5657H137.116C137.464 26.5657 137.755 26.6819 137.987 26.9142C138.219 27.1465 138.335 27.4369 138.335 27.7853C138.335 28.1193 138.219 28.4024 137.987 28.6347C137.755 28.8525 137.464 28.9614 137.116 28.9614H135.57V34.8636C135.57 35.1685 135.649 35.3936 135.809 35.5387C135.969 35.6694 136.187 35.7348 136.462 35.7348C136.579 35.7348 136.738 35.7057 136.942 35.6476C137.116 35.575 137.283 35.5387 137.443 35.5387Z" fill="white"/>
<path d="M151.301 31.9019C151.286 32.2504 151.148 32.5335 150.887 32.7513C150.625 32.9691 150.321 33.078 149.972 33.078H142.785C142.959 33.9346 143.358 34.6098 143.983 35.1035C144.607 35.5826 145.311 35.8222 146.095 35.8222C146.691 35.8222 147.155 35.7714 147.489 35.6697C147.823 35.5536 148.085 35.4374 148.273 35.3213C148.477 35.1906 148.614 35.1035 148.687 35.0599C148.948 34.9292 149.195 34.8639 149.428 34.8639C149.732 34.8639 149.994 34.9728 150.212 35.1906C150.429 35.4084 150.538 35.6625 150.538 35.9529C150.538 36.3449 150.335 36.7006 149.928 37.02C149.522 37.354 148.977 37.6371 148.295 37.8694C147.613 38.1017 146.923 38.2179 146.226 38.2179C145.006 38.2179 143.939 37.9638 143.024 37.4556C142.124 36.9474 141.427 36.2505 140.934 35.3648C140.44 34.4646 140.193 33.4555 140.193 32.3375C140.193 31.0888 140.455 29.9926 140.977 29.0488C141.5 28.1051 142.19 27.3864 143.046 26.8927C143.903 26.3845 144.818 26.1304 145.79 26.1304C146.749 26.1304 147.649 26.3918 148.491 26.9145C149.348 27.4372 150.03 28.1414 150.538 29.0271C151.046 29.9127 151.301 30.871 151.301 31.9019ZM145.79 28.5261C144.106 28.5261 143.112 29.3174 142.807 30.9001H148.513V30.7476C148.455 30.1378 148.157 29.6151 147.62 29.1795C147.083 28.7439 146.473 28.5261 145.79 28.5261Z" fill="white"/>
<path fill-rule="evenodd" clip-rule="evenodd" d="M46.2222 42.1184C46.2076 42.1255 43.8744 43.903 42.4075 44.6633C41.045 45.3695 39.5179 46.0749 37.9028 46.5236C34.259 47.536 30.4039 47.8677 26.5127 47.0828C24.8367 46.7448 23.0736 46.2781 21.6009 45.6281C20.3141 45.06 18.5117 44.198 17.406 43.4078C17.2517 43.2974 17.0909 43.1905 16.9368 43.0988L15.57 42.086C14.9523 41.6155 14.4056 41.1183 13.8662 40.5842L11.9166 38.5492C11.7908 38.404 11.6678 38.2497 11.5404 38.0977C10.9946 37.4472 9.97176 35.9603 9.57183 35.3071C9.36552 34.9702 9.14942 34.6187 8.98582 34.2872C7.89103 32.0684 7.43014 31.2989 6.69038 28.5641C5.26034 23.278 5.68093 17.3394 7.91088 12.3108C8.81177 10.2794 10.1259 8.09219 11.6045 6.43451C11.8587 6.14957 12.1024 5.84432 12.3516 5.57245C12.8177 5.06397 14.2858 3.7298 14.8629 3.27689L16.7126 1.92578C16.1715 2.024 14.584 2.80471 14.0496 3.07702C13.1677 3.52657 12.3846 3.99167 11.6291 4.48941C11.2088 4.76617 10.8791 4.97488 10.4922 5.26895C10.2937 5.4199 10.1343 5.5301 9.95964 5.66979L8.37776 6.98936C8.28204 7.07903 8.25233 7.14009 8.15669 7.22918C7.56732 7.77833 6.76506 8.52574 6.25753 9.16091L5.60121 9.95711C3.86879 12.0554 2.42634 14.8236 1.48077 17.3814C0.0167211 21.3414 -0.423868 26.3775 0.439496 30.8177C1.038 33.8956 2.03657 36.5813 3.56851 39.1779C3.68379 39.3734 3.81717 39.6058 3.92449 39.755C4.08634 39.9798 4.16687 40.0841 4.30872 40.3522C4.42385 40.5701 4.56781 40.7469 4.70711 40.9373L7.30216 44.0905C7.47869 44.2733 7.61061 44.4119 7.79042 44.5859L8.78622 45.5079C9.55168 46.0988 9.83816 46.428 10.92 47.2055C14.8423 50.0246 20.029 51.9222 25.3741 51.9969C30.952 52.0748 35.6961 50.6436 40.2426 47.6833C40.4394 47.5552 40.6131 47.4401 40.7932 47.2988C41.4217 46.8056 41.9934 46.455 42.6972 45.8355L43.9326 44.6905C44.3301 44.2219 44.6217 44.0824 45.3443 43.2012C45.4246 43.1033 45.4867 43.0635 45.5688 42.9639C45.699 42.8057 46.1628 42.2714 46.2222 42.1184Z" fill="white"/>
<path fill-rule="evenodd" clip-rule="evenodd" d="M24.7674 42.3704L24.3859 42.1393C24.2636 42.0819 24.1334 42.0129 24.0143 41.9492C23.7454 41.8056 23.5342 41.6748 23.2662 41.5236C22.1044 40.8684 21.2452 40.2057 20.2507 39.3761C19.9271 39.1062 19.5895 38.8511 19.3041 38.5293C19.1329 38.3364 18.9227 38.1641 18.7362 37.9715L17.8864 37.0838C17.7923 36.9831 17.7241 36.8656 17.6136 36.7403C17.1953 36.2666 16.4763 35.267 16.1275 34.748C13.09 30.2277 11.6727 23.8841 12.9925 17.888C13.5975 15.139 14.3186 13.5545 15.5883 11.2083L17.6179 8.32662C17.6871 8.25062 17.6916 8.22954 17.7506 8.14753C17.8429 8.019 17.9172 7.96524 18.0119 7.84918C18.4049 7.36668 19.2834 6.48173 19.7374 6.04175C20.0661 5.72313 20.5991 5.27025 20.9889 4.9914L21.2332 4.82788C21.2506 4.81564 21.3041 4.77557 21.3215 4.76261L22.3409 4.0432C25.4247 1.93018 28.8948 0.833246 32.7407 0.456951C32.4585 0.267427 30.7677 0.102388 30.4745 0.0763791C26.5607 -0.269705 22.5197 0.569968 19.0797 2.39921C18.9191 2.4847 18.8259 2.55866 18.658 2.64227C17.5841 3.1773 16.1543 4.2896 15.1645 5.09L14.1443 6.06457C13.8988 6.30162 13.7877 6.44326 13.4822 6.73341C13.072 7.12296 12.0435 8.48317 11.6987 8.94829C10.8009 10.1596 9.91306 11.8615 9.35055 13.2642C7.31845 18.3308 7.14021 23.7087 8.96428 28.8997C9.52339 30.4907 9.89362 31.1698 10.6529 32.5437C11.4156 33.9237 12.2119 34.8189 13.1658 35.9722C13.5376 36.4217 13.6525 36.4386 13.9808 36.8004C14.5925 37.4747 14.3826 37.1777 14.8415 37.627C14.9597 37.7427 15.0422 37.8115 15.1912 37.9413C16.6698 39.2295 18.821 40.4603 20.5958 41.1907C21.6089 41.6076 23.6087 42.2686 24.7674 42.3704Z" fill="white"/>
<path fill-rule="evenodd" clip-rule="evenodd" d="M22.013 40.4443C21.8831 40.1396 21.2411 39.1927 20.9285 38.6413C20.8496 38.5024 20.8158 38.4642 20.7414 38.3519C20.6446 38.2056 20.6385 38.1334 20.5777 37.9998C20.4779 37.7799 20.3494 37.6045 20.24 37.3914C19.9442 36.8152 19.6204 35.9706 19.3754 35.3374C16.9421 29.0452 17.4208 22.0382 20.0573 16.1078C20.9094 14.191 22.011 12.373 23.2944 10.7358L24.152 9.7196C24.7341 8.96967 25.8398 7.97337 26.5696 7.30033C27.0736 6.83556 28.1708 6.0026 28.7001 5.64116C29.5014 5.09409 30.8221 4.2791 31.6957 3.86864C32.8766 3.31385 33.8332 2.89595 35.1074 2.5152C35.3926 2.43 36.4269 2.19045 36.5926 2.08252C36.1333 1.83361 33.1868 1.93939 32.5072 2.00684C31.2488 2.13163 30.0112 2.33953 28.8476 2.67601C26.5244 3.34772 23.9549 4.56389 22.2345 5.91428C22.0595 6.0517 21.7776 6.23212 21.6094 6.38403C21.3689 6.60099 21.2782 6.6911 21.01 6.8733C20.7432 7.05447 20.0979 7.74385 19.8933 7.94336C19.6834 8.14815 19.5334 8.24122 19.3287 8.47253C18.9257 8.92823 18.2947 9.60818 17.9734 10.0866L17.3759 10.8985C16.4532 12.2388 15.7094 13.6341 15.0543 15.2116C12.2481 21.9678 13.2665 30.2101 17.5532 36.0331C17.7272 36.2695 17.8785 36.4338 18.0283 36.6519C18.2508 36.9759 19.306 38.1013 19.5899 38.3739C19.7779 38.5544 19.9763 38.7171 20.1407 38.9138C20.3408 39.1533 21.6817 40.297 22.013 40.4443Z" fill="white"/>
<path fill-rule="evenodd" clip-rule="evenodd" d="M23.5605 36.5925C23.2489 35.6556 23.0183 35.3525 22.6621 34.1161C21.8444 31.2781 21.6651 28.0897 22.3579 25.2402C22.9315 22.8812 23.6112 21.2689 24.8573 19.3061C25.0891 18.9409 25.3085 18.6485 25.5574 18.2952C26.2162 17.3603 26.4988 17.1573 27.1182 16.4139L28.3827 15.1663C33.6457 10.5347 40.8589 8.74093 48.1482 10.1894C48.1374 10.1792 48.1202 10.1508 48.1142 10.1604L47.4982 9.79988C47.2564 9.67953 47.0727 9.58682 46.8184 9.46774C46.3411 9.24429 45.9043 9.06536 45.388 8.86912C39.838 6.75949 33.1164 7.62241 28.2456 10.5816C28.1142 10.6614 28.0355 10.7264 27.9261 10.7912L26.7286 11.6006C26.5264 11.7526 26.3121 11.8935 26.1274 12.055C25.7739 12.3642 25.3801 12.6571 25.0586 12.9845L23.1068 15.0589C22.3238 15.9701 21.275 17.7566 20.8093 18.774C18.758 23.2547 18.6589 28.6672 21.016 33.055C21.1336 33.274 21.2326 33.4962 21.3612 33.693C22.0313 34.7199 22.1573 35.0201 23.0202 36.0367L23.4378 36.5121C23.5492 36.5959 23.3914 36.5031 23.5605 36.5925Z" fill="white"/>
</svg>
