<svg width="152" height="52" viewBox="0 0 152 52" fill="none" xmlns="http://www.w3.org/2000/svg">
<path d="M46.9883 34.5846C47.5031 34.5846 47.9288 34.7628 48.2654 35.1192C48.6218 35.4558 48.8 35.8518 48.8 36.3072C48.8 36.8021 48.6218 37.208 48.2654 37.5248C47.9288 37.8416 47.5031 38 46.9883 38H37.0392C36.5244 38 36.0888 37.8317 35.7324 37.4951C35.3958 37.1387 35.2275 36.7032 35.2275 36.1884V19.0224C35.2275 18.5076 35.3958 18.0819 35.7324 17.7453C36.0888 17.3889 36.5244 17.2108 37.0392 17.2108H46.9883C47.5031 17.2108 47.9288 17.379 48.2654 17.7156C48.6218 18.0324 48.8 18.4482 48.8 18.963C48.8 19.458 48.6317 19.8639 48.2951 20.1806C47.9585 20.4776 47.5229 20.6261 46.9883 20.6261H38.9399V25.6749H45.6519C46.1666 25.6749 46.5923 25.8432 46.9289 26.1798C47.2853 26.4966 47.4635 26.9124 47.4635 27.4272C47.4635 27.9222 47.2952 28.3281 46.9586 28.6448C46.622 28.9418 46.1864 29.0903 45.6519 29.0903H38.9399V34.5846H46.9883Z" fill="#2D2B82"/>
<path d="M56.0841 36.1884C56.0841 36.7032 55.9059 37.1387 55.5495 37.4951C55.2129 37.8317 54.7872 38 54.2724 38C53.7775 38 53.3617 37.8317 53.0251 37.4951C52.6885 37.1387 52.5202 36.7032 52.5202 36.1884V17.8344C52.5202 17.3196 52.6885 16.894 53.0251 16.5574C53.3815 16.201 53.8171 16.0228 54.3318 16.0228C54.8268 16.0228 55.2426 16.201 55.5792 16.5574C55.9158 16.894 56.0841 17.3196 56.0841 17.8344V36.1884Z" fill="#2D2B82"/>
<path d="M68.1576 19.1709C67.4844 19.1709 67.0093 19.3689 66.7321 19.7649C66.4549 20.141 66.3163 20.5568 66.3163 21.0122V22.4081H69.0189C69.4941 22.4081 69.8901 22.5665 70.2068 22.8833C70.5236 23.1802 70.682 23.5663 70.682 24.0415C70.682 24.5167 70.5236 24.9127 70.2068 25.2295C69.8901 25.5265 69.4941 25.6749 69.0189 25.6749H66.3163V36.1884C66.3163 36.7032 66.148 37.1387 65.8114 37.4951C65.4748 37.8317 65.0491 38 64.5344 38C64.0196 38 63.5939 37.8317 63.2573 37.4951C62.9207 37.1387 62.7524 36.7032 62.7524 36.1884V25.6749H61.1487C60.6735 25.6749 60.2775 25.5265 59.9607 25.2295C59.6439 24.9127 59.4855 24.5167 59.4855 24.0415C59.4855 23.5663 59.6439 23.1802 59.9607 22.8833C60.2775 22.5665 60.6735 22.4081 61.1487 22.4081H62.7524V21.0419C62.7524 19.557 63.2573 18.3492 64.2671 17.4186C65.2966 16.4881 66.7717 16.0228 68.6922 16.0228C69.4248 16.0228 70.0584 16.1713 70.5929 16.4683C71.1473 16.7653 71.4245 17.2207 71.4245 17.8344C71.4245 18.3096 71.2859 18.6957 71.0087 18.9927C70.7315 19.2897 70.3949 19.4382 69.999 19.4382C69.9 19.4382 69.7911 19.4283 69.6723 19.4085C69.5733 19.3887 69.4644 19.3689 69.3456 19.3491C68.8704 19.2303 68.4744 19.1709 68.1576 19.1709Z" fill="#2D2B82"/>
<path d="M83.3052 23.495C83.7553 23.7274 83.9803 24.0976 83.9803 24.6058C83.9803 24.9107 83.8714 25.2083 83.6537 25.4987C83.4213 25.8036 83.1237 25.9561 82.7607 25.9561C82.5139 25.9561 82.267 25.8908 82.0202 25.7601C81.3088 25.4261 80.5392 25.2592 79.7116 25.2592C78.6952 25.2592 77.8096 25.4769 77.0545 25.9125C76.2995 26.3336 75.7188 26.9362 75.3122 27.7202C74.9057 28.4897 74.7024 29.3754 74.7024 30.3773C74.7024 32.0906 75.1598 33.3901 76.0745 34.2758C77.0037 35.1614 78.2161 35.6043 79.7116 35.6043C80.5973 35.6043 81.3668 35.4373 82.0202 35.1034C82.2816 34.9872 82.5139 34.9291 82.7171 34.9291C83.0946 34.9291 83.4141 35.0888 83.6754 35.4083C83.8932 35.6841 84.0021 35.9818 84.0021 36.3012C84.0021 36.5335 83.944 36.7441 83.8279 36.9328C83.7117 37.1216 83.5448 37.2668 83.327 37.3684C82.1944 37.9347 80.9893 38.2178 79.7116 38.2178C78.2887 38.2178 76.982 37.9201 75.7914 37.3248C74.6008 36.715 73.6497 35.8221 72.9383 34.646C72.2268 33.4699 71.8711 32.047 71.8711 30.3773C71.8711 28.8963 72.205 27.5678 72.8729 26.3917C73.5554 25.2156 74.4919 24.3009 75.6825 23.6475C76.8731 22.9796 78.2161 22.6456 79.7116 22.6456C81.0038 22.6456 82.2017 22.9288 83.3052 23.495Z" fill="#D92929"/>
<path d="M89.1192 36.6715C89.1192 37.049 88.9885 37.3684 88.7272 37.6298C88.4804 37.8766 88.1682 38 87.7907 38C87.4277 38 87.1228 37.8766 86.876 37.6298C86.6291 37.3684 86.5057 37.049 86.5057 36.6715V23.2119C86.5057 22.8344 86.6291 22.5222 86.876 22.2754C87.1373 22.0141 87.4567 21.8834 87.8342 21.8834C88.1972 21.8834 88.5021 22.0141 88.749 22.2754C88.9958 22.5222 89.1192 22.8344 89.1192 23.2119V36.6715Z" fill="#D92929"/>
<path d="M94.8369 36.6715C94.8369 37.049 94.7135 37.3684 94.4667 37.6298C94.2199 37.8766 93.9077 38 93.5302 38C93.1527 38 92.8405 37.8766 92.5937 37.6298C92.3468 37.3684 92.2234 37.049 92.2234 36.6715V27.6766C92.2234 27.2991 92.3468 26.987 92.5937 26.7401C92.8405 26.4788 93.1527 26.3481 93.5302 26.3481C93.9077 26.3481 94.2199 26.4788 94.4667 26.7401C94.7135 26.987 94.8369 27.2991 94.8369 27.6766V36.6715ZM93.5084 24.9325C93.0147 24.9325 92.6663 24.8526 92.463 24.6929C92.2597 24.5332 92.1581 24.2501 92.1581 23.8435V23.4297C92.1581 23.0232 92.267 22.74 92.4848 22.5803C92.7026 22.4206 93.051 22.3407 93.5302 22.3407C94.0384 22.3407 94.3941 22.4206 94.5974 22.5803C94.8006 22.74 94.9023 23.0232 94.9023 23.4297V23.8435C94.9023 24.2646 94.7934 24.555 94.5756 24.7147C94.3723 24.8599 94.0166 24.9325 93.5084 24.9325Z" fill="#D92929"/>
<path d="M111.178 26.1303C112.616 26.1303 113.611 26.5732 114.162 27.4589C114.714 28.33 114.99 29.5424 114.99 31.096V36.6715C114.99 37.049 114.866 37.3684 114.62 37.6298C114.373 37.8766 114.061 38 113.683 38C113.306 38 112.993 37.8766 112.747 37.6298C112.5 37.3684 112.376 37.049 112.376 36.6715V31.096C112.376 30.2974 112.217 29.6731 111.897 29.223C111.592 28.7583 111.048 28.526 110.264 28.526C109.451 28.526 108.812 28.7729 108.347 29.2665C107.897 29.7457 107.672 30.3555 107.672 31.096V36.6715C107.672 37.049 107.549 37.3684 107.302 37.6298C107.055 37.8766 106.743 38 106.365 38C105.988 38 105.676 37.8766 105.429 37.6298C105.182 37.3684 105.059 37.049 105.059 36.6715V31.096C105.059 30.2974 104.899 29.6731 104.579 29.223C104.274 28.7583 103.73 28.526 102.946 28.526C102.133 28.526 101.494 28.7729 101.029 29.2665C100.579 29.7457 100.354 30.3555 100.354 31.096V36.6715C100.354 37.049 100.231 37.3684 99.984 37.6298C99.7371 37.8766 99.425 38 99.0475 38C98.67 38 98.3578 37.8766 98.111 37.6298C97.8641 37.3684 97.7407 37.049 97.7407 36.6715V27.6766C97.7407 27.2991 97.8641 26.987 98.111 26.7401C98.3578 26.4788 98.67 26.3481 99.0475 26.3481C99.425 26.3481 99.7371 26.4788 99.984 26.7401C100.231 26.987 100.354 27.2991 100.354 27.6766V28.0251C100.746 27.5024 101.24 27.0596 101.835 26.6966C102.445 26.3191 103.12 26.1303 103.861 26.1303C105.69 26.1303 106.859 26.9289 107.367 28.526C107.701 27.9162 108.202 27.3645 108.87 26.8708C109.552 26.3772 110.322 26.1303 111.178 26.1303Z" fill="#D92929"/>
<path d="M127.467 26.1303C127.844 26.1303 128.156 26.2537 128.403 26.5006C128.65 26.7474 128.773 27.0668 128.773 27.4589V36.6715C128.773 37.049 128.65 37.3684 128.403 37.6298C128.156 37.8766 127.844 38 127.467 38C127.089 38 126.777 37.8766 126.53 37.6298C126.298 37.3829 126.174 37.0708 126.16 36.6932C125.797 37.1143 125.303 37.4773 124.679 37.7822C124.069 38.0726 123.423 38.2178 122.741 38.2178C121.739 38.2178 120.831 37.9637 120.018 37.4555C119.205 36.9328 118.559 36.2141 118.08 35.2994C117.615 34.3846 117.383 33.3465 117.383 32.1849C117.383 31.0234 117.615 29.9852 118.08 29.0705C118.544 28.1413 119.176 27.4226 119.975 26.9144C120.788 26.3917 121.681 26.1303 122.653 26.1303C123.35 26.1303 124.004 26.261 124.614 26.5223C125.223 26.7692 125.739 27.0886 126.16 27.4806V27.4589C126.16 27.0813 126.283 26.7692 126.53 26.5223C126.777 26.261 127.089 26.1303 127.467 26.1303ZM123.067 35.8221C124.011 35.8221 124.781 35.4809 125.376 34.7985C125.971 34.1015 126.269 33.2303 126.269 32.1849C126.269 31.1395 125.971 30.2684 125.376 29.5714C124.781 28.8745 124.011 28.526 123.067 28.526C122.138 28.526 121.376 28.8745 120.78 29.5714C120.185 30.2684 119.887 31.1395 119.887 32.1849C119.887 33.2303 120.178 34.1015 120.759 34.7985C121.354 35.4809 122.123 35.8221 123.067 35.8221Z" fill="#D92929"/>
<path d="M137.443 35.5389C137.646 35.5389 137.827 35.6406 137.987 35.8439C138.161 36.0326 138.248 36.2867 138.248 36.6061C138.248 36.9982 138.031 37.3321 137.595 37.608C137.174 37.8693 136.695 38 136.158 38C135.257 38 134.495 37.8112 133.871 37.4337C133.261 37.0417 132.956 36.2214 132.956 34.9727V28.9616H131.954C131.606 28.9616 131.315 28.8455 131.083 28.6132C130.851 28.3808 130.735 28.0905 130.735 27.742C130.735 27.408 130.851 27.1322 131.083 26.9144C131.315 26.6821 131.606 26.5659 131.954 26.5659H132.956V25.172C132.956 24.7945 133.079 24.4824 133.326 24.2355C133.588 23.9742 133.907 23.8435 134.285 23.8435C134.648 23.8435 134.952 23.9742 135.199 24.2355C135.446 24.4824 135.57 24.7945 135.57 25.172V26.5659H137.116C137.464 26.5659 137.755 26.6821 137.987 26.9144C138.219 27.1467 138.335 27.4371 138.335 27.7855C138.335 28.1195 138.219 28.4026 137.987 28.6349C137.755 28.8527 137.464 28.9616 137.116 28.9616H135.57V34.8638C135.57 35.1687 135.649 35.3938 135.809 35.5389C135.969 35.6696 136.187 35.735 136.462 35.735C136.579 35.735 136.738 35.7059 136.942 35.6478C137.116 35.5752 137.283 35.5389 137.443 35.5389Z" fill="#D92929"/>
<path d="M151.301 31.9018C151.286 32.2503 151.148 32.5334 150.887 32.7512C150.625 32.969 150.321 33.0779 149.972 33.0779H142.785C142.959 33.9345 143.358 34.6097 143.983 35.1034C144.607 35.5825 145.311 35.8221 146.095 35.8221C146.691 35.8221 147.155 35.7713 147.489 35.6696C147.823 35.5535 148.085 35.4373 148.273 35.3212C148.477 35.1905 148.614 35.1034 148.687 35.0598C148.948 34.9291 149.195 34.8638 149.428 34.8638C149.732 34.8638 149.994 34.9727 150.212 35.1905C150.429 35.4083 150.538 35.6624 150.538 35.9528C150.538 36.3448 150.335 36.7005 149.928 37.0199C149.522 37.3539 148.977 37.637 148.295 37.8693C147.613 38.1016 146.923 38.2178 146.226 38.2178C145.006 38.2178 143.939 37.9637 143.024 37.4555C142.124 36.9473 141.427 36.2504 140.934 35.3647C140.44 34.4645 140.193 33.4554 140.193 32.3374C140.193 31.0887 140.455 29.9925 140.977 29.0487C141.5 28.105 142.19 27.3863 143.046 26.8926C143.903 26.3844 144.818 26.1303 145.79 26.1303C146.749 26.1303 147.649 26.3917 148.491 26.9144C149.348 27.4371 150.03 28.1413 150.538 29.027C151.046 29.9126 151.301 30.8709 151.301 31.9018ZM145.79 28.526C144.106 28.526 143.112 29.3173 142.807 30.9H148.513V30.7475C148.455 30.1377 148.157 29.615 147.62 29.1794C147.083 28.7438 146.473 28.526 145.79 28.526Z" fill="#D92929"/>
<path fill-rule="evenodd" clip-rule="evenodd" d="M46.2222 42.1185C46.2076 42.1256 43.8744 43.9031 42.4075 44.6634C41.045 45.3696 39.5179 46.075 37.9028 46.5237C34.259 47.5361 30.4039 47.8678 26.5127 47.0829C24.8367 46.7449 23.0736 46.2782 21.6009 45.6282C20.3141 45.0601 18.5117 44.1981 17.406 43.4079C17.2517 43.2975 17.0909 43.1906 16.9368 43.0989L15.57 42.0861C14.9523 41.6156 14.4056 41.1184 13.8662 40.5843L11.9166 38.5493C11.7908 38.4041 11.6678 38.2498 11.5404 38.0978C10.9946 37.4473 9.97176 35.9604 9.57183 35.3072C9.36552 34.9703 9.14942 34.6188 8.98582 34.2873C7.89103 32.0685 7.43014 31.299 6.69038 28.5642C5.26034 23.2781 5.68093 17.3395 7.91088 12.3109C8.81177 10.2795 10.1259 8.09231 11.6045 6.43463C11.8587 6.14969 12.1024 5.84444 12.3516 5.57257C12.8177 5.06409 14.2858 3.72992 14.8629 3.27701L16.7126 1.9259C16.1715 2.02412 14.584 2.80483 14.0496 3.07714C13.1677 3.52669 12.3846 3.99179 11.6291 4.48953C11.2088 4.76629 10.8791 4.975 10.4922 5.26907C10.2937 5.42002 10.1343 5.53022 9.95964 5.66991L8.37776 6.98948C8.28204 7.07915 8.25233 7.14021 8.15669 7.2293C7.56732 7.77845 6.76506 8.52586 6.25753 9.16103L5.60121 9.95723C3.86879 12.0555 2.42634 14.8237 1.48077 17.3815C0.0167208 21.3415 -0.423868 26.3776 0.439496 30.8178C1.038 33.8957 2.03657 36.5814 3.56851 39.178C3.68379 39.3735 3.81717 39.6059 3.92449 39.7551C4.08634 39.9799 4.16687 40.0842 4.30872 40.3523C4.42385 40.5702 4.56781 40.747 4.70711 40.9374L7.30216 44.0906C7.47869 44.2734 7.61061 44.412 7.79042 44.586L8.78622 45.508C9.55168 46.0989 9.83816 46.4281 10.92 47.2056C14.8423 50.0247 20.029 51.9223 25.3741 51.997C30.952 52.0749 35.6961 50.6437 40.2426 47.6834C40.4394 47.5553 40.6131 47.4402 40.7932 47.2989C41.4217 46.8057 41.9934 46.4551 42.6972 45.8356L43.9326 44.6906C44.3301 44.222 44.6217 44.0825 45.3443 43.2013C45.4246 43.1034 45.4867 43.0636 45.5688 42.964C45.699 42.8058 46.1628 42.2715 46.2222 42.1185V42.1185Z" fill="#252062"/>
<path fill-rule="evenodd" clip-rule="evenodd" d="M24.7674 42.3704L24.3859 42.1393C24.2636 42.0819 24.1334 42.0129 24.0143 41.9492C23.7454 41.8056 23.5342 41.6748 23.2662 41.5236C22.1044 40.8684 21.2452 40.2057 20.2507 39.3761C19.9271 39.1062 19.5895 38.8511 19.3041 38.5293C19.1329 38.3364 18.9227 38.1641 18.7362 37.9715L17.8864 37.0838C17.7923 36.9831 17.7241 36.8656 17.6136 36.7403C17.1953 36.2666 16.4763 35.267 16.1275 34.748C13.09 30.2277 11.6727 23.8841 12.9925 17.888C13.5975 15.139 14.3186 13.5545 15.5883 11.2083L17.6179 8.32662C17.6871 8.25062 17.6916 8.22954 17.7506 8.14753C17.8429 8.019 17.9172 7.96524 18.0119 7.84918C18.4049 7.36668 19.2834 6.48173 19.7374 6.04175C20.0661 5.72313 20.5991 5.27025 20.9889 4.9914L21.2332 4.82788C21.2506 4.81564 21.3041 4.77557 21.3215 4.76261L22.3409 4.0432C25.4247 1.93018 28.8948 0.833246 32.7407 0.456951C32.4585 0.267427 30.7677 0.102388 30.4745 0.0763791C26.5607 -0.269705 22.5197 0.569968 19.0797 2.39921C18.9191 2.4847 18.8259 2.55866 18.658 2.64227C17.5841 3.1773 16.1543 4.2896 15.1645 5.09L14.1443 6.06457C13.8988 6.30162 13.7877 6.44326 13.4822 6.73341C13.072 7.12296 12.0435 8.48317 11.6987 8.94829C10.8009 10.1596 9.91306 11.8615 9.35055 13.2642C7.31845 18.3308 7.14021 23.7087 8.96428 28.8997C9.52339 30.4907 9.89362 31.1698 10.6529 32.5437C11.4156 33.9237 12.2119 34.8189 13.1658 35.9722C13.5376 36.4217 13.6525 36.4386 13.9808 36.8004C14.5925 37.4747 14.3826 37.1777 14.8415 37.627C14.9597 37.7427 15.0422 37.8115 15.1912 37.9413C16.6698 39.2295 18.821 40.4603 20.5958 41.1907C21.6089 41.6076 23.6087 42.2686 24.7674 42.3704V42.3704Z" fill="#2E3094"/>
<path fill-rule="evenodd" clip-rule="evenodd" d="M22.013 40.4444C21.8831 40.1397 21.2411 39.1928 20.9285 38.6414C20.8496 38.5025 20.8158 38.4643 20.7414 38.352C20.6446 38.2057 20.6385 38.1335 20.5777 37.9999C20.4779 37.78 20.3494 37.6046 20.24 37.3915C19.9442 36.8153 19.6204 35.9707 19.3754 35.3375C16.9421 29.0453 17.4208 22.0383 20.0573 16.1079C20.9094 14.1911 22.011 12.3731 23.2944 10.7359L24.152 9.71972C24.7341 8.96979 25.8398 7.97349 26.5696 7.30045C27.0736 6.83568 28.1708 6.00272 28.7001 5.64128C29.5014 5.09421 30.8221 4.27922 31.6957 3.86876C32.8766 3.31397 33.8332 2.89607 35.1074 2.51532C35.3926 2.43012 36.4269 2.19057 36.5926 2.08264C36.1333 1.83373 33.1868 1.93951 32.5072 2.00696C31.2488 2.13175 30.0112 2.33965 28.8476 2.67613C26.5244 3.34784 23.9549 4.56401 22.2345 5.9144C22.0595 6.05182 21.7776 6.23224 21.6094 6.38415C21.3689 6.60111 21.2782 6.69122 21.01 6.87342C20.7432 7.05459 20.0979 7.74397 19.8933 7.94348C19.6834 8.14827 19.5334 8.24134 19.3287 8.47265C18.9257 8.92835 18.2947 9.6083 17.9734 10.0867L17.3759 10.8986C16.4532 12.2389 15.7094 13.6342 15.0543 15.2117C12.2481 21.9679 13.2665 30.2102 17.5532 36.0332C17.7272 36.2696 17.8785 36.4339 18.0283 36.652C18.2508 36.976 19.306 38.1014 19.5899 38.374C19.7779 38.5545 19.9763 38.7172 20.1407 38.9139C20.3408 39.1534 21.6817 40.2971 22.013 40.4444V40.4444Z" fill="#1C73BA"/>
<path fill-rule="evenodd" clip-rule="evenodd" d="M23.5605 36.5926C23.2489 35.6557 23.0183 35.3526 22.6621 34.1162C21.8444 31.2782 21.6651 28.0898 22.3579 25.2403C22.9315 22.8813 23.6112 21.269 24.8573 19.3062C25.0891 18.941 25.3085 18.6486 25.5574 18.2953C26.2162 17.3604 26.4988 17.1574 27.1182 16.414L28.3827 15.1664C33.6457 10.5348 40.8589 8.74105 48.1482 10.1895C48.1374 10.1793 48.1202 10.1509 48.1142 10.1605L47.4982 9.8C47.2564 9.67965 47.0727 9.58694 46.8184 9.46786C46.3411 9.24441 45.9043 9.06548 45.388 8.86924C39.838 6.75961 33.1164 7.62253 28.2456 10.5817C28.1142 10.6615 28.0355 10.7265 27.9261 10.7913L26.7286 11.6007C26.5264 11.7527 26.3121 11.8936 26.1274 12.0551C25.7739 12.3643 25.3801 12.6572 25.0586 12.9846L23.1068 15.059C22.3238 15.9702 21.275 17.7567 20.8093 18.7741C18.758 23.2548 18.6589 28.6673 21.016 33.0551C21.1336 33.2741 21.2326 33.4963 21.3612 33.6931C22.0313 34.72 22.1573 35.0202 23.0202 36.0368L23.4378 36.5122C23.5492 36.596 23.3914 36.5032 23.5605 36.5926Z" fill="#8CADD9"/>
<path fill-rule="evenodd" clip-rule="evenodd" d="M8.9858 34.2873C7.89109 32.0685 7.43013 31.299 6.69029 28.5642C5.26026 23.2781 5.68091 17.3395 7.91087 12.3109C8.81183 10.2794 10.1259 8.09231 11.6045 6.43463C11.8587 6.14969 12.1024 5.84444 12.3516 5.57257C12.8176 5.06409 14.2857 3.72992 14.8628 3.27709L16.7126 1.9259C16.1715 2.02412 14.5839 2.80476 14.0497 3.07714C13.1677 3.52669 12.3846 3.99179 11.629 4.48953C11.2087 4.76629 10.8791 4.97507 10.4923 5.26907C10.2937 5.42009 10.1343 5.53022 9.95963 5.66991L8.37774 6.98948C8.28203 7.07915 8.25232 7.14021 8.15668 7.2293C7.56731 7.77845 6.76512 8.52586 6.25751 9.16111L5.60119 9.95716C3.86877 12.0555 2.4264 14.8237 1.48068 17.3815C0.0167031 21.3415 -0.423885 26.3776 0.439552 30.8178C1.03798 33.8957 2.03655 36.5814 3.56843 39.178C3.68377 39.3735 3.81716 39.6058 3.92447 39.7551C4.08633 39.9799 4.16685 40.0842 4.3087 40.3524C4.42383 40.5702 4.5678 40.747 4.70709 40.9374L7.30215 44.0906C7.47868 44.2734 7.6106 44.412 7.79041 44.586L8.78621 45.508C9.55167 46.0989 9.83814 46.4281 10.92 47.2056C14.8424 50.0247 20.0291 51.9223 25.3741 51.997C30.952 52.0749 35.6961 50.6437 40.2426 47.6834C40.4394 47.5552 40.6131 47.4402 40.7932 47.2989C41.4217 46.8057 41.9934 46.4551 42.6972 45.8356L43.9326 44.6907C44.33 44.222 44.6217 44.0825 45.3444 43.2013C45.4246 43.1034 45.4867 43.0636 45.5687 42.964C45.699 42.8058 46.1628 42.2715 46.2222 42.1185C46.2076 42.1256 43.8745 43.903 42.4075 44.6634C41.045 45.3696 39.5178 46.075 37.9028 46.5237C34.2591 47.536 30.4039 47.8678 26.5127 47.0829C24.8367 46.7449 23.0735 46.2782 21.6009 45.6282C20.3141 45.0601 18.5117 44.1981 17.406 43.4079C17.2517 43.2975 17.0909 43.1906 16.9368 43.0989L15.57 42.086C14.9523 41.6156 14.4056 41.1184 13.8662 40.5843L11.9165 38.5493C11.7908 38.404 11.6678 38.2498 11.5403 38.0978C10.9946 37.4473 9.97174 35.9603 9.57182 35.3072C9.3655 34.9703 9.14941 34.6188 8.9858 34.2873V34.2873Z" fill="#2D2B82"/>
<path fill-rule="evenodd" clip-rule="evenodd" d="M9.35055 13.2642C7.31845 18.3308 7.14021 23.7087 8.96428 28.8997C9.52339 30.4907 9.89362 31.1699 10.6529 32.5437C11.4156 33.9237 12.2119 34.8189 13.1658 35.9723C13.5376 36.4217 13.6526 36.4386 13.9808 36.8005C14.5925 37.4748 14.3826 37.1777 14.8414 37.627C14.9596 37.7427 15.0422 37.8115 15.1912 37.9413C16.6698 39.2295 18.821 40.4603 20.5957 41.1906C21.6089 41.6076 23.6086 42.2686 24.7674 42.3704L24.3859 42.1393C24.2636 42.0819 24.1334 42.0129 24.0144 41.9492C23.7454 41.8056 23.5342 41.6748 23.2662 41.5236C22.1044 40.8684 21.2452 40.2057 20.2508 39.3762C19.9271 39.1062 19.5896 38.8511 19.3041 38.5293C19.1329 38.3364 18.9227 38.1641 18.7362 37.9715L17.8864 37.0838C17.7923 36.9831 17.7241 36.8656 17.6136 36.7403C17.1953 36.2666 16.4763 35.267 16.1276 34.748C13.09 30.2276 11.6727 23.8842 12.9926 17.888C13.5976 15.139 14.3186 13.5545 15.5883 11.2084L17.6179 8.32653C17.6871 8.2506 17.6916 8.22952 17.7506 8.14751C17.8429 8.01898 17.9172 7.96522 18.0119 7.84916C18.4049 7.36666 19.2833 6.48164 19.7374 6.04173C20.0661 5.7231 20.599 5.27023 20.9889 4.99138L21.2332 4.82779C21.2506 4.81562 21.3041 4.77555 21.3215 4.76258L22.3409 4.04318C25.4247 1.93008 28.8948 0.833223 32.7407 0.456927C32.4585 0.267403 30.7677 0.102365 30.4745 0.0763558C26.5607 -0.269656 22.5197 0.569945 19.0797 2.39919C18.9191 2.48467 18.8259 2.55864 18.658 2.64225C17.5841 3.1772 16.1543 4.28957 15.1645 5.08998L14.1443 6.06463C13.8987 6.3016 13.7876 6.44324 13.4822 6.73339C13.072 7.12294 12.0435 8.48316 11.6987 8.94827C10.8009 10.1597 9.91313 11.8616 9.35055 13.2642V13.2642Z" fill="#755AA0"/>
<path fill-rule="evenodd" clip-rule="evenodd" d="M15.0543 15.2116C12.2481 21.9678 13.2665 30.2101 17.5532 36.0331C17.7272 36.2696 17.8785 36.4338 18.0283 36.6519C18.2509 36.9759 19.306 38.1014 19.5899 38.374C19.7779 38.5545 19.9763 38.7171 20.1407 38.9138C20.3407 39.1533 21.6817 40.2971 22.013 40.4444C21.8831 40.1397 21.2412 39.1927 20.9285 38.6413C20.8497 38.5025 20.8158 38.4642 20.7414 38.3519C20.6446 38.2056 20.6385 38.1334 20.5778 37.9998C20.4779 37.78 20.3494 37.6044 20.24 37.3914C19.9442 36.8152 19.6204 35.9707 19.3754 35.3375C16.9421 29.0452 17.4208 22.0383 20.0573 16.1078C20.9095 14.1911 22.011 12.3732 23.2944 10.7359L24.1519 9.71971C24.7342 8.96979 25.8397 7.97348 26.5696 7.30044C27.0736 6.83568 28.1708 6.00272 28.7001 5.64127C29.5014 5.09421 30.822 4.27922 31.6957 3.86876C32.8766 3.31404 33.8332 2.89608 35.1074 2.51532C35.3926 2.43013 36.4269 2.19065 36.5926 2.08265C36.1333 1.83374 33.1868 1.93952 32.5071 2.00689C31.2488 2.13175 30.0112 2.33966 28.8476 2.67607C26.5244 3.34792 23.9549 4.56409 22.2345 5.9144C22.0595 6.05174 21.7776 6.23216 21.6094 6.38406C21.3689 6.60111 21.2782 6.69121 21.01 6.87342C20.7432 7.05458 20.0978 7.74396 19.8933 7.94348C19.6834 8.14826 19.5334 8.24134 19.3287 8.47264C18.9257 8.92834 18.2947 9.60829 17.9734 10.0868L17.3759 10.8987C16.4532 12.2389 15.7093 13.6342 15.0543 15.2116Z" fill="#D1759F"/>
<path fill-rule="evenodd" clip-rule="evenodd" d="M20.8093 18.7741C18.758 23.2548 18.6589 28.6673 21.016 33.0551C21.1336 33.2741 21.2326 33.4963 21.3612 33.6931C22.0312 34.72 22.1573 35.0203 23.0202 36.0368L23.4378 36.5122C23.4941 36.5545 23.4817 36.5518 23.4774 36.5503C23.4818 36.5522 23.5007 36.561 23.5605 36.5926C23.2489 35.6557 23.0183 35.3526 22.6621 34.1162C21.8444 31.2782 21.6651 28.0898 22.358 25.2403C22.9315 22.8813 23.6112 21.269 24.8572 19.3062C25.0891 18.941 25.3085 18.6486 25.5574 18.2953C26.2161 17.3604 26.4988 17.1574 27.1182 16.414L28.3826 15.1664C33.6457 10.5348 40.8589 8.74105 48.1482 10.1896C48.1374 10.1793 48.1202 10.1509 48.1142 10.1605L47.4982 9.8C47.2563 9.67958 47.0728 9.58687 46.8184 9.46786C46.3411 9.24441 45.9043 9.06548 45.388 8.86924C39.838 6.75961 33.1164 7.62253 28.2456 10.5817C28.1142 10.6615 28.0355 10.7265 27.926 10.7913L26.7287 11.6007C26.5264 11.7527 26.3122 11.8936 26.1274 12.0552C25.7739 12.3643 25.38 12.6572 25.0586 12.9846L23.1068 15.0591C22.3238 15.9702 21.275 17.7567 20.8093 18.7741V18.7741Z" fill="#D92929"/>
</svg>
