<svg width="20" height="20" viewBox="0 0 20 20" fill="none" xmlns="http://www.w3.org/2000/svg">
<g clip-path="url(#clip0)">
<path d="M10.0032 4.86493C7.16742 4.86493 4.87158 7.16326 4.87158 9.9966C4.87158 12.8324 7.16992 15.1283 10.0032 15.1283C12.8391 15.1283 15.1349 12.8299 15.1349 9.9966C15.1349 7.16076 12.8366 4.86493 10.0032 4.86493ZM10.0032 13.3274C8.16242 13.3274 6.67242 11.8366 6.67242 9.9966C6.67242 8.1566 8.16325 6.66576 10.0032 6.66576C11.8432 6.66576 13.3341 8.1566 13.3341 9.9966C13.3349 11.8366 11.8441 13.3274 10.0032 13.3274Z" fill="black"/>
<path d="M14.123 0.0637988C12.283 -0.0220346 7.72553 -0.0178679 5.88387 0.0637988C4.26553 0.139632 2.83803 0.530465 1.6872 1.6813C-0.236132 3.60463 0.0097011 6.1963 0.0097011 9.99713C0.0097011 13.8871 -0.206966 16.4188 1.6872 18.313C3.61803 20.243 6.2472 19.9905 10.003 19.9905C13.8564 19.9905 15.1864 19.993 16.5489 19.4655C18.4014 18.7463 19.7997 17.0905 19.9364 14.1163C20.023 12.2755 20.018 7.7188 19.9364 5.87713C19.7714 2.3663 17.8872 0.237132 14.123 0.0637988ZM17.0355 17.0405C15.7747 18.3013 14.0255 18.1888 9.97887 18.1888C5.8122 18.1888 4.14137 18.2505 2.9222 17.028C1.51803 15.6305 1.7722 13.3863 1.7722 9.9838C1.7722 5.37963 1.2997 2.0638 5.92054 1.82713C6.9822 1.78963 7.2947 1.77713 9.9672 1.77713L10.0047 1.80213C14.4455 1.80213 17.9297 1.33713 18.1389 5.95713C18.1864 7.0113 18.1972 7.32797 18.1972 9.9963C18.1964 14.1146 18.2747 15.7955 17.0355 17.0405Z" fill="black"/>
<path d="M15.3383 5.86177C16.0006 5.86177 16.5375 5.32489 16.5375 4.66261C16.5375 4.00032 16.0006 3.46344 15.3383 3.46344C14.676 3.46344 14.1392 4.00032 14.1392 4.66261C14.1392 5.32489 14.676 5.86177 15.3383 5.86177Z" fill="black"/>
</g>
<defs>
<clipPath id="clip0">
<rect width="20" height="20" fill="white"/>
</clipPath>
</defs>
</svg>
