<svg width="25" height="24" viewBox="0 0 25 24" fill="none" xmlns="http://www.w3.org/2000/svg">
<g clip-path="url(#clip0)">
<path d="M12.5594 5.83789C9.15637 5.83789 6.40137 8.59589 6.40137 11.9959C6.40137 15.3989 9.15937 18.1539 12.5594 18.1539C15.9624 18.1539 18.7174 15.3959 18.7174 11.9959C18.7174 8.59289 15.9594 5.83789 12.5594 5.83789ZM12.5594 15.9929C10.3504 15.9929 8.56237 14.2039 8.56237 11.9959C8.56237 9.78789 10.3514 7.99889 12.5594 7.99889C14.7674 7.99889 16.5564 9.78789 16.5564 11.9959C16.5574 14.2039 14.7684 15.9929 12.5594 15.9929Z" fill="white"/>
<path d="M17.5034 0.0763632C15.2954 -0.0266368 9.8264 -0.0216368 7.6164 0.0763632C5.6744 0.167363 3.9614 0.636363 2.5804 2.01736C0.272403 4.32536 0.567403 7.43536 0.567403 11.9964C0.567403 16.6644 0.307403 19.7024 2.5804 21.9754C4.8974 24.2914 8.0524 23.9884 12.5594 23.9884C17.1834 23.9884 18.7794 23.9914 20.4144 23.3584C22.6374 22.4954 24.3154 20.5084 24.4794 16.9394C24.5834 14.7304 24.5774 9.26236 24.4794 7.05236C24.2814 2.83936 22.0204 0.284363 17.5034 0.0763632ZM20.9984 20.4484C19.4854 21.9614 17.3864 21.8264 12.5304 21.8264C7.5304 21.8264 5.5254 21.9004 4.0624 20.4334C2.3774 18.7564 2.6824 16.0634 2.6824 11.9804C2.6824 6.45536 2.1154 2.47636 7.6604 2.19236C8.9344 2.14736 9.3094 2.13236 12.5164 2.13236L12.5614 2.16236C17.8904 2.16236 22.0714 1.60436 22.3224 7.14836C22.3794 8.41336 22.3924 8.79336 22.3924 11.9954C22.3914 16.9374 22.4854 18.9544 20.9984 20.4484Z" fill="white"/>
<path d="M18.9615 7.03425C19.7562 7.03425 20.4005 6.38998 20.4005 5.59525C20.4005 4.80051 19.7562 4.15625 18.9615 4.15625C18.1667 4.15625 17.5225 4.80051 17.5225 5.59525C17.5225 6.38998 18.1667 7.03425 18.9615 7.03425Z" fill="white"/>
</g>
<defs>
<clipPath id="clip0">
<rect x="0.555664" width="24" height="24" fill="white"/>
</clipPath>
</defs>
</svg>
