<svg width="30" height="30" viewBox="0 0 30 30" fill="none" xmlns="http://www.w3.org/2000/svg">
<path d="M0 0H30V30H0V0Z" fill="#D92929"/>
<path fill-rule="evenodd" clip-rule="evenodd" d="M8.3335 9.16667C7.87707 9.16667 7.50016 9.54357 7.50016 10V20C7.50016 20.4564 7.87707 20.8333 8.3335 20.8333H21.6668C22.1233 20.8333 22.5002 20.4564 22.5002 20V10C22.5002 9.54357 22.1233 9.16667 21.6668 9.16667H8.3335ZM5.8335 10C5.8335 8.6231 6.95659 7.5 8.3335 7.5H21.6668C23.0437 7.5 24.1668 8.6231 24.1668 10V20C24.1668 21.3769 23.0437 22.5 21.6668 22.5H8.3335C6.95659 22.5 5.8335 21.3769 5.8335 20V10Z" fill="white"/>
<path fill-rule="evenodd" clip-rule="evenodd" d="M5.98372 9.52212C6.24765 9.14507 6.76726 9.05338 7.1443 9.31731L14.9997 14.8161L22.8552 9.31731C23.2322 9.05338 23.7518 9.14507 24.0158 9.52212C24.2797 9.89916 24.188 10.4188 23.811 10.6827L15.4776 16.516C15.1907 16.7169 14.8088 16.7169 14.5219 16.516L6.18853 10.6827C5.81149 10.4188 5.71979 9.89916 5.98372 9.52212Z" fill="white"/>
</svg>
