<svg width="19" height="19" viewBox="0 0 19 19" fill="none" xmlns="http://www.w3.org/2000/svg">
<g clip-path="url(#clip0)">
<path d="M3.73744 10.1973C3.25215 11.1513 3.80315 11.6073 5.06031 12.3863C6.12907 13.0465 7.60552 13.288 8.55394 13.3846C8.16523 13.7582 9.94648 12.0451 4.81648 16.9795C3.72873 18.0222 5.4799 19.6949 6.56686 18.6745L9.50948 15.8364C10.636 16.9202 11.7159 17.9588 12.4521 18.6784C13.5399 19.7029 15.2902 18.0443 14.2144 16.9835C14.1336 16.9067 10.2267 13.1589 10.465 13.3885C11.4253 13.2919 12.8796 13.0362 13.9357 12.3902L13.9349 12.3894C15.1921 11.6065 15.7431 11.1513 15.2649 10.1973C14.9759 9.65582 14.1969 9.20299 13.1599 9.98595C13.1599 9.98595 11.7594 11.0587 9.50077 11.0587C7.24136 11.0587 5.84169 9.98595 5.84169 9.98595C4.8054 9.19903 4.02323 9.65582 3.73744 10.1973Z" fill="black"/>
<path d="M9.49912 9.61242C12.2525 9.61242 14.5009 7.46067 14.5009 4.81175C14.5009 2.15175 12.2525 0 9.49912 0C6.74491 0 4.49658 2.15175 4.49658 4.81175C4.49658 7.46067 6.74491 9.61242 9.49912 9.61242ZM9.49912 2.43754C10.8521 2.43754 11.9557 3.49917 11.9557 4.81175C11.9557 6.11325 10.8521 7.17487 9.49912 7.17487C8.14616 7.17487 7.04258 6.11325 7.04258 4.81175C7.04179 3.49838 8.14537 2.43754 9.49912 2.43754Z" fill="black"/>
</g>
<defs>
<clipPath id="clip0">
<rect width="19" height="19" fill="white"/>
</clipPath>
</defs>
</svg>
