<svg width="23" height="22" viewBox="0 0 23 22" fill="none" xmlns="http://www.w3.org/2000/svg">
<g clip-path="url(#clip0)">
<path d="M4.88323 11.8076C4.32131 12.9122 4.95931 13.4402 6.41498 14.3422C7.65248 15.1067 9.36206 15.3862 10.4602 15.4981C10.0101 15.9307 12.0726 13.9471 6.13264 19.6607C4.87314 20.8679 6.90081 22.8048 8.15939 21.6232L11.5666 18.337C12.8711 19.5919 14.1214 20.7946 14.9739 21.6278C16.2334 22.814 18.2601 20.8936 17.0144 19.6652C16.9209 19.5763 12.3971 15.2368 12.6731 15.5027C13.785 15.3908 15.4689 15.0947 16.6917 14.3467L16.6908 14.3458C18.1465 13.4392 18.7845 12.9122 18.2308 11.8076C17.8962 11.1806 16.9942 10.6562 15.7934 11.5628C15.7934 11.5628 14.1718 12.8049 11.5566 12.8049C8.94039 12.8049 7.31973 11.5628 7.31973 11.5628C6.11981 10.6517 5.21414 11.1806 4.88323 11.8076Z" fill="white"/>
<path d="M11.5546 11.1302C14.7428 11.1302 17.3461 8.63867 17.3461 5.5715C17.3461 2.4915 14.7428 0 11.5546 0C8.36554 0 5.76221 2.4915 5.76221 5.5715C5.76221 8.63867 8.36554 11.1302 11.5546 11.1302ZM11.5546 2.82242C13.1212 2.82242 14.399 4.05167 14.399 5.5715C14.399 7.0785 13.1212 8.30775 11.5546 8.30775C9.98804 8.30775 8.71021 7.0785 8.71021 5.5715C8.70929 4.05075 9.98712 2.82242 11.5546 2.82242Z" fill="white"/>
</g>
<defs>
<clipPath id="clip0">
<rect x="0.555664" width="22" height="22" fill="white"/>
</clipPath>
</defs>
</svg>
