<svg width="26" height="26" viewBox="0 0 26 26" fill="none" xmlns="http://www.w3.org/2000/svg">
<path d="M3.24998 0H17.0568L24.375 7.28977V24.375C24.375 25.2728 23.647 26 22.75 26H3.24998C2.35296 26 1.625 25.2728 1.625 24.375V1.62498C1.625 0.727203 2.35304 0 3.24998 0Z" fill="#E2574C"/>
<path d="M24.3514 7.31248H18.6875C17.7905 7.31248 17.0625 6.58452 17.0625 5.6875V0.0162354L24.3514 7.31248Z" fill="#B53629"/>
<path d="M18.2798 12.3198C18.552 12.3198 18.6853 12.0826 18.6853 11.8527C18.6853 11.6146 18.5463 11.3846 18.2798 11.3846H16.7295C16.4265 11.3846 16.2575 11.6357 16.2575 11.9128V15.7226C16.2575 16.0622 16.4509 16.2507 16.7125 16.2507C16.9725 16.2507 17.1667 16.0622 17.1667 15.7226V14.6769H18.1043C18.3952 14.6769 18.5407 14.4388 18.5407 14.2024C18.5407 13.9709 18.3952 13.7409 18.1043 13.7409H17.1667V12.3198H18.2798ZM13.04 11.3846H11.9057C11.5978 11.3846 11.3792 11.5959 11.3792 11.9095V15.7258C11.3792 16.115 11.6936 16.2369 11.9187 16.2369H13.109C14.5178 16.2369 15.4482 15.3099 15.4482 13.879C15.4474 12.3662 14.5716 11.3846 13.04 11.3846ZM13.0945 15.2961H12.403V12.3256H13.0262C13.9695 12.3256 14.3798 12.9585 14.3798 13.8319C14.3798 14.6493 13.9768 15.2961 13.0945 15.2961ZM8.93931 11.3846H7.81563C7.49794 11.3846 7.3208 11.5942 7.3208 11.9128V15.7226C7.3208 16.0622 7.52391 16.2507 7.79689 16.2507C8.06986 16.2507 8.27297 16.0622 8.27297 15.7226V14.6102H8.97739C9.84676 14.6102 10.5642 13.9943 10.5642 13.0039C10.5643 12.0347 9.87207 11.3846 8.93931 11.3846ZM8.92065 13.7166H8.27306V12.2792H8.92065C9.3204 12.2792 9.57471 12.5912 9.57471 12.9983C9.57387 13.4046 9.3204 13.7166 8.92065 13.7166Z" fill="white"/>
</svg>
