<svg width="25" height="25" viewBox="0 0 25 25" fill="none" xmlns="http://www.w3.org/2000/svg">
<path fill-rule="evenodd" clip-rule="evenodd" d="M23.037 1.81287C23.0304 1.80581 23.0236 1.79883 23.0167 1.79193C22.8409 1.6161 22.6158 1.51944 22.3859 1.50194C22.3234 1.49714 22.2603 1.49821 22.1973 1.50532C22.1161 1.51445 22.0358 1.5335 21.9584 1.56248L1.97922 8.55518C1.59222 8.69063 1.32712 9.04859 1.31041 9.45827C1.29369 9.86795 1.52876 10.2463 1.90344 10.4128L10.552 14.2566L14.3958 22.9052C14.5623 23.2799 14.9407 23.5149 15.3503 23.4982C15.76 23.4815 16.118 23.2164 16.2534 22.8294L23.2462 2.85006C23.2746 2.77423 23.2934 2.69565 23.3027 2.61617C23.337 2.32551 23.2422 2.03033 23.037 1.81287ZM18.5039 4.89051L5.02065 9.60964L11.0881 12.3063L18.5039 4.89051ZM12.5023 13.7205L19.9181 6.30472L15.199 19.788L12.5023 13.7205Z" fill="#D92929"/>
</svg>
