<svg width="20" height="20" viewBox="0 0 20 20" fill="none" xmlns="http://www.w3.org/2000/svg">
<path fill-rule="evenodd" clip-rule="evenodd" d="M5.83357 2.57575C5.41517 2.57575 5.07599 2.91493 5.07599 3.33333V16.6667C5.07599 17.0851 5.41517 17.4242 5.83357 17.4242H14.1669C14.5853 17.4242 14.9245 17.0851 14.9245 16.6667V3.33333C14.9245 2.91493 14.5853 2.57575 14.1669 2.57575H5.83357ZM3.25781 3.33333C3.25781 1.91077 4.41102 0.757568 5.83357 0.757568H14.1669C15.5895 0.757568 16.7427 1.91077 16.7427 3.33333V16.6667C16.7427 18.0892 15.5895 19.2424 14.1669 19.2424H5.83357C4.41102 19.2424 3.25781 18.0892 3.25781 16.6667V3.33333Z" fill="#E84545"/>
<path fill-rule="evenodd" clip-rule="evenodd" d="M9.09082 15C9.09082 14.4979 9.49783 14.0909 9.99991 14.0909H10.009C10.5111 14.0909 10.9181 14.4979 10.9181 15C10.9181 15.5021 10.5111 15.9091 10.009 15.9091H9.99991C9.49783 15.9091 9.09082 15.5021 9.09082 15Z" fill="#E84545"/>
</svg>
