<svg width="30" height="30" viewBox="0 0 30 30" fill="none" xmlns="http://www.w3.org/2000/svg">
<path d="M30 0H0V30H30V0Z" fill="#7D3DAF"/>
<path d="M24.4879 9.67024L24.482 9.64654C24.0027 7.70921 21.8422 5.63035 19.8582 5.19786L19.8358 5.19325C16.6267 4.58105 13.3728 4.58105 10.1643 5.19325L10.1413 5.19786C8.15785 5.63035 5.99737 7.70921 5.51748 9.64654L5.51221 9.67024C4.91976 12.3758 4.91976 15.1195 5.51221 17.825L5.51748 17.8487C5.97689 19.7034 7.9765 21.6867 9.8865 22.2322V24.3948C9.8865 25.1775 10.8404 25.5619 11.3828 24.9971L13.5739 22.7195C14.0491 22.7461 14.5246 22.7609 15 22.7609C16.6155 22.7609 18.2316 22.6082 19.8358 22.3021L19.8582 22.2975C21.8422 21.865 24.0027 19.7861 24.482 17.8488L24.4879 17.8251C25.0803 15.1195 25.0803 12.3758 24.4879 9.67024ZM22.754 17.4327C22.434 18.6966 20.7936 20.2679 19.4902 20.5582C17.7839 20.8827 16.064 21.0214 14.3459 20.9738C14.3117 20.9729 14.2789 20.9861 14.2551 21.0106C14.0112 21.2609 12.6552 22.6529 12.6552 22.6529L10.9536 24.3993C10.8292 24.529 10.6106 24.4408 10.6106 24.2617V20.6792C10.6106 20.62 10.5684 20.5698 10.5102 20.5584C10.5099 20.5583 10.5096 20.5582 10.5092 20.5582C9.20584 20.2679 7.56606 18.6965 7.24547 17.4326C6.71226 14.9871 6.71226 12.508 7.24547 10.0625C7.56606 8.7986 9.20584 7.22728 10.5092 6.93698C13.4893 6.3702 16.5108 6.3702 19.4902 6.93698C20.7943 7.22728 22.434 8.7986 22.754 10.0625C23.2878 12.5081 23.2878 14.9872 22.754 17.4327Z" fill="white"/>
<path d="M17.8355 19.0864C17.6351 19.0256 17.4441 18.9847 17.2668 18.9111C15.4291 18.1487 13.7379 17.1651 12.3982 15.6573C11.6364 14.7998 11.0401 13.8318 10.536 12.8074C10.297 12.3216 10.0956 11.8168 9.89027 11.3152C9.70305 10.8579 9.97881 10.3853 10.2692 10.0407C10.5416 9.71731 10.8922 9.4698 11.2719 9.28739C11.5683 9.145 11.8606 9.22709 12.0771 9.47829C12.545 10.0214 12.9748 10.5922 13.3228 11.2218C13.5368 11.609 13.4781 12.0823 13.0903 12.3458C12.996 12.4098 12.9101 12.485 12.8223 12.5573C12.7452 12.6207 12.6728 12.6848 12.62 12.7706C12.5235 12.9277 12.5189 13.1129 12.581 13.2837C13.0593 14.5982 13.8655 15.6203 15.1885 16.1708C15.4002 16.2589 15.6129 16.3614 15.8568 16.333C16.2652 16.2853 16.3975 15.8372 16.6837 15.6031C16.9635 15.3744 17.321 15.3714 17.6223 15.5621C17.9238 15.7528 18.216 15.9576 18.5064 16.1646C18.7915 16.3677 19.0754 16.5665 19.3384 16.7981C19.5912 17.0208 19.6783 17.3129 19.5359 17.6151C19.2752 18.1686 18.8959 18.6291 18.3488 18.923C18.1943 19.0059 18.0097 19.0327 17.8355 19.0864C18.0097 19.0327 17.6351 19.0255 17.8355 19.0864Z" fill="white"/>
<path d="M15.0051 8.6545C17.4089 8.72185 19.3831 10.3171 19.8062 12.6935C19.8783 13.0984 19.9039 13.5124 19.936 13.9233C19.9495 14.0962 19.8516 14.2604 19.6651 14.2627C19.4724 14.265 19.3857 14.1038 19.3732 13.931C19.3484 13.5889 19.3312 13.2454 19.2841 12.9062C19.0353 11.1156 17.6075 9.63416 15.8252 9.31628C15.557 9.26842 15.2825 9.25585 15.0108 9.22734C14.8391 9.20931 14.6141 9.1989 14.5761 8.98542C14.5441 8.80644 14.6952 8.66392 14.8656 8.65477C14.912 8.6522 14.9586 8.65431 15.0051 8.6545C14.9586 8.65431 17.4089 8.72185 15.0051 8.6545Z" fill="white"/>
<path d="M18.658 13.3899C18.654 13.4199 18.6519 13.4905 18.6344 13.557C18.5706 13.7983 18.2047 13.8285 18.1204 13.585C18.0955 13.5127 18.0917 13.4305 18.0916 13.3527C18.0907 12.8435 17.9801 12.335 17.7234 11.892C17.4594 11.4367 17.0563 11.054 16.5833 10.8224C16.2974 10.6824 15.9881 10.5954 15.6747 10.5435C15.5377 10.5209 15.3993 10.5071 15.2616 10.4879C15.0948 10.4648 15.0058 10.3585 15.0137 10.1941C15.021 10.04 15.1336 9.92926 15.3015 9.93874C15.8531 9.97007 16.3859 10.0893 16.8763 10.349C17.8736 10.8771 18.4433 11.7108 18.6096 12.8239C18.6171 12.8744 18.6292 12.9243 18.633 12.9749C18.6424 13.0999 18.6484 13.2251 18.658 13.3899C18.6484 13.2251 18.654 13.4199 18.658 13.3899Z" fill="white"/>
<path d="M17.163 13.3317C16.9619 13.3353 16.8542 13.224 16.8335 13.0396C16.8191 12.9111 16.8077 12.7808 16.777 12.6557C16.7166 12.4094 16.5857 12.1811 16.3784 12.0302C16.2806 11.9589 16.1698 11.9069 16.0536 11.8734C15.9061 11.8308 15.7529 11.8426 15.6057 11.8065C15.4459 11.7673 15.3575 11.6379 15.3827 11.4879C15.4055 11.3515 15.5383 11.245 15.6874 11.2558C16.6193 11.323 17.2854 11.8048 17.3804 12.9019C17.3871 12.9793 17.395 13.0612 17.3778 13.1352C17.3484 13.262 17.2546 13.3255 17.163 13.3317C17.2546 13.3255 16.9619 13.3353 17.163 13.3317Z" fill="white"/>
</svg>
