<svg width="24" height="24" viewBox="0 0 24 24" fill="none" xmlns="http://www.w3.org/2000/svg">
<g clip-path="url(#clip0)">
<path d="M19.5462 13.028C19.1654 12.538 19.2743 12.32 19.5462 11.882C19.5511 11.877 22.6948 7.451 23.0187 5.95L23.0206 5.949C23.1816 5.402 23.0206 5 22.2423 5H19.6669C19.0113 5 18.709 5.345 18.5471 5.731C18.5471 5.731 17.2358 8.929 15.3808 11.002C14.7821 11.601 14.5053 11.793 14.1785 11.793C14.0175 11.793 13.7672 11.601 13.7672 11.054V5.949C13.7672 5.293 13.5837 5 13.0409 5H8.99135C8.58011 5 8.33572 5.306 8.33572 5.591C8.33572 6.213 9.26322 6.356 9.35941 8.106V11.903C9.35941 12.735 9.2112 12.888 8.88241 12.888C8.00693 12.888 5.88202 9.677 4.62278 6.002C4.36857 5.289 4.12026 5.001 3.45972 5.001H0.883333C0.148204 5.001 0 5.346 0 5.732C0 6.414 0.875481 9.805 4.07119 14.285C6.201 17.343 9.20041 19 11.9289 19C13.569 19 13.7692 18.632 13.7692 17.999C13.7692 15.077 13.621 14.801 14.4425 14.801C14.8233 14.801 15.4789 14.993 17.0101 16.468C18.76 18.217 19.0476 19 20.0271 19H22.6025C23.3367 19 23.7087 18.632 23.4947 17.906C23.0049 16.379 19.6954 13.238 19.5462 13.028Z" fill="white"/>
</g>
<defs>
<clipPath id="clip0">
<rect width="23.5556" height="24" fill="white"/>
</clipPath>
</defs>
</svg>
