<svg width="30" height="30" viewBox="0 0 30 30" fill="none" xmlns="http://www.w3.org/2000/svg">
<path d="M30 0H0V30H30V0Z" fill="#1BD741"/>
<path d="M4.50879 25.5026L5.97827 20.2834C5.03331 18.6781 4.53578 16.8515 4.53578 14.9752C4.53578 9.19774 9.23605 4.49747 15.0135 4.49747C20.7909 4.49747 25.4911 9.19774 25.4911 14.9752C25.4911 20.7526 20.7909 25.4529 15.0135 25.4529C13.2133 25.4529 11.4505 24.9921 9.89111 24.1171L4.50879 25.5026ZM10.1663 22.2109L10.487 22.4067C11.8466 23.2367 13.4119 23.6755 15.0135 23.6755C19.8108 23.6755 23.7137 19.7725 23.7137 14.9752C23.7137 10.1778 19.8108 6.27483 15.0135 6.27483C10.2161 6.27483 6.31314 10.1778 6.31314 14.9752C6.31314 16.6467 6.78823 18.27 7.68691 19.6694L7.9029 20.0058L7.05667 23.0113L10.1663 22.2109Z" fill="white"/>
<path d="M12.0704 10.0985L11.3905 10.0615C11.177 10.0498 10.9675 10.1212 10.8061 10.2614C10.4765 10.5476 9.94947 11.101 9.7876 11.8221C9.54621 12.8972 9.91926 14.2138 10.8848 15.5304C11.8503 16.8469 13.6496 18.9534 16.8312 19.8531C17.8565 20.143 18.663 19.9476 19.2853 19.5495C19.7782 19.2343 20.1179 18.7282 20.2403 18.1562L20.3489 17.6492C20.3834 17.488 20.3016 17.3245 20.1519 17.2555L17.8541 16.1964C17.705 16.1277 17.5281 16.1711 17.4278 16.3011L16.5257 17.4705C16.4576 17.5589 16.3409 17.5939 16.2356 17.5569C15.6179 17.3398 13.5486 16.4732 12.4132 14.2861C12.364 14.1912 12.3762 14.0761 12.4461 13.9952L13.3082 12.9979C13.3962 12.896 13.4185 12.7529 13.3656 12.6291L12.3751 10.3119C12.3224 10.1885 12.2042 10.1058 12.0704 10.0985Z" fill="white"/>
</svg>
