<svg version="1.1" id="Layer_1" xmlns="http://www.w3.org/2000/svg" xmlns:xlink="http://www.w3.org/1999/xlink" viewBox="55 55 375 105">
				<title><span itemprop="name">Ballu, кондиционер, сплит система, увлажнитель, очиститель воздуха, электрообогреватель, сушилка для рук</span></title>
				<g>
					<path fill-rule="evenodd" clip-rule="evenodd" fill="#636466" d="M282.895,105.279c-3.404,0-6.169-2.766-6.169-6.168 c0-3.404,2.765-6.171,6.169-6.171c3.405,0,6.173,2.767,6.173,6.171C289.068,102.513,286.3,105.279,282.895,105.279 M282.895,91.889 c-3.983,0-7.221,3.24-7.221,7.222c0,3.98,3.238,7.22,7.221,7.22c3.982,0,7.225-3.24,7.225-7.22 C290.12,95.129,286.877,91.889,282.895,91.889 M282.322,98.767c0.494,0,0.859-0.099,1.196-0.297c0.466-0.252,0.76-0.745,0.76-1.423 c0-0.536-0.197-0.987-0.591-1.282c-0.28-0.21-0.707-0.381-1.353-0.381h-0.845v3.383H282.322z M283.715,99.384v-0.027 c1.156-0.351,1.861-1.154,1.861-2.436c0-0.846-0.353-1.649-1.185-2.113c-0.478-0.282-1.114-0.452-2.057-0.452h-2.098v9.284h1.253 v-3.848h0.96c0.267,0.073,0.621,0.494,1.056,1.271l1.52,2.577h1.467l-1.649-2.761C284.348,100.047,283.999,99.54,283.715,99.384 M298.772,82.719v-1.122c0.173,0.043,0.336,0.058,0.509,0.058c0.875,0,1.254-0.582,1.807-1.719l-3.395-6.864h1.443l2.608,5.492 h0.029l2.375-5.492h1.414l-3.35,7.345c-0.772,1.719-1.631,2.36-2.815,2.36C299.238,82.777,298.963,82.763,298.772,82.719 M293.047,74.18h-2.768v-1.108h7.11l-0.393,1.108h-2.653v8.495h-1.296V74.18z M288.307,79.09l-0.904-2.505 c-0.277-0.817-0.424-1.252-0.539-1.604h-0.03c-0.102,0.352-0.263,0.801-0.555,1.618l-0.901,2.491H288.307z M286.353,73.043 l-3.657,9.632h1.372l0.916-2.52h3.729l0.931,2.52h1.401l-3.73-9.632H286.353z M272.335,73.072h1.196l2.623,3.907 c0.392,0.582,0.642,0.945,0.873,1.34h0.031c0.218-0.379,0.479-0.816,0.844-1.399l2.45-3.848h1.194v9.603h-1.282v-5.931 c0-0.452,0-1.034,0.013-1.516h-0.013c-0.191,0.366-0.512,0.86-0.685,1.137l-2.214,3.527h-0.643l-2.433-3.6 c-0.206-0.29-0.466-0.67-0.657-1.034h-0.028c0.028,0.423,0.028,1.049,0.028,1.458v5.959h-1.297V73.072z M262.078,73.072h1.282v5.8 c0,0.67,0,1.151-0.029,1.661h0.029c0.321-0.468,0.728-1.063,1.297-1.792l4.27-5.669h1.252v9.603h-1.298v-6.018 c0-0.699,0.017-1.152,0.031-1.603h-0.031c-0.32,0.466-0.727,1.034-1.252,1.734l-4.443,5.887h-1.108V73.072z M252.228,82.719v-1.21 c0.132,0.029,0.235,0.029,0.293,0.029c0.422,0,0.828-0.203,1.135-0.713c0.891-1.516,1.501-5.421,1.691-7.753h4.575v9.603h-1.297 v-8.539h-2.172c-0.173,2.186-0.828,5.902-1.805,7.474c-0.496,0.817-1.166,1.153-2.011,1.153 C252.564,82.763,252.36,82.748,252.228,82.719 M245.074,73.072h1.282v4.24h0.949c1.487,0,1.618-1.965,2.257-3.308 c0.307-0.627,0.773-1.019,1.531-1.019c0.217,0,0.509,0.031,0.715,0.116v1.166c-0.191-0.073-0.351-0.087-0.498-0.087 c-0.349,0-0.552,0.16-0.714,0.45c-0.465,0.862-0.684,2.552-1.704,3.149v0.029c0.467,0.16,0.815,0.641,1.224,1.414l1.85,3.453 h-1.486l-1.603-3.133c-0.435-0.846-0.8-1.151-1.092-1.151h-1.429v4.284h-1.282V73.072z M239.393,77.91 c0-2.201-1.225-3.818-3.35-3.818c-2.029,0-3.367,1.516-3.367,3.818c0,2.318,1.338,3.804,3.367,3.804 C238.052,81.714,239.393,80.228,239.393,77.91 M231.307,77.91c0-2.914,1.994-4.925,4.736-4.925c2.767,0,4.719,2.055,4.719,4.925 c0,2.987-2.041,4.911-4.719,4.911C233.315,82.821,231.307,80.882,231.307,77.91 M222.373,73.072h7.229v9.603h-1.297V74.18h-4.649 v8.495h-1.283V73.072z M274.012,53.489h1.092c0,0.642,0.335,1.18,1.239,1.18c0.89,0,1.224-0.538,1.224-1.18h1.108 c0.028,1.252-0.831,2.156-2.332,2.156C274.798,55.645,273.983,54.741,274.012,53.489 M272.279,56.184h1.281v5.799 c0,0.672,0,1.152-0.029,1.662h0.029c0.32-0.466,0.728-1.064,1.297-1.793l4.269-5.668h1.252v9.603h-1.295v-6.018 c0-0.699,0.014-1.149,0.031-1.602h-0.031c-0.321,0.465-0.73,1.034-1.252,1.733l-4.445,5.887h-1.107V56.184z M268.825,56.185h1.296 v9.603h-1.296V56.185z M264.015,64.708c1.575,0,2.332-0.597,2.332-1.821c0-0.743-0.276-1.253-0.816-1.529 c-0.407-0.219-0.947-0.305-1.69-0.305h-0.655v3.655H264.015z M261.903,56.185h1.283v3.787h0.611c1.049,0,1.851,0.147,2.464,0.452 c0.931,0.468,1.413,1.283,1.413,2.42c0,1.732-1.034,2.944-3.701,2.944h-2.07V56.185z M252.111,56.184h1.297v4.14h5.042v-4.14h1.283 v9.603h-1.283v-4.356h-5.042v4.356h-1.297V56.184z M247.086,64.708c1.251,0,2.04-0.48,2.04-1.66c0-0.991-0.743-1.619-1.896-1.619 h-1.471v3.279H247.086z M246.735,60.352c1.181,0,1.807-0.597,1.807-1.56c0-0.887-0.523-1.529-1.778-1.529h-1.005v3.089H246.735z M244.462,56.184h2.419c2.042,0,2.96,1.138,2.96,2.435c0,0.932-0.468,1.705-1.239,2.053v0.031c1.091,0.248,1.85,1.149,1.85,2.328 c0,1.575-1.138,2.756-3.295,2.756h-2.695V56.184z M240.572,62.204l-0.904-2.509c-0.275-0.815-0.422-1.252-0.536-1.602h-0.031 c-0.101,0.35-0.263,0.801-0.555,1.616l-0.903,2.495H240.572z M238.619,56.156h0.964l3.729,9.631h-1.399l-0.932-2.521h-3.73 l-0.918,2.521h-1.37L238.619,56.156z M226.132,65.83v-1.207c0.131,0.027,0.234,0.027,0.293,0.027c0.421,0,0.829-0.204,1.135-0.715 c0.89-1.513,1.5-5.418,1.691-7.751h4.575v9.603h-1.297v-8.539h-2.171c-0.176,2.186-0.831,5.901-1.807,7.476 c-0.494,0.814-1.164,1.151-2.01,1.151C226.467,65.875,226.263,65.86,226.132,65.83 M222.373,56.184v9.603h1.283v-8.495h3.321 l0.396-1.108H222.373z"></path>
					<path fill-rule="evenodd" clip-rule="evenodd" fill="#636466" d="M196.027,102.432c8.459,6.229,14.745,16.582,16.417,31.675v5.081 h-9.284c-1.826,0-3.65-0.699-5.043-2.094c-1.394-1.389-2.09-3.214-2.09-5.041V102.432z M80.782,84.036 c3.222,0,7.201,1.164,7.201,6.846c0,4.928-3.979,5.52-7.201,5.52H69.6V84.036H80.782z M85.52,108.864 c2.276,0,7.769,1.517,7.769,8.718c0,7.202-5.493,7.77-7.769,7.77h-10.61c-3.414,0-5.499-2.084-5.499-5.306v-11.182H85.52z M253.072,92.927v32.419h-7.391c-8.156,0-8.156-3.981-8.156-6.825V92.927h-14.977v25.594c0,16.306,12.135,20.664,21.613,20.664 h24.076V92.927H253.072z M148.423,125.346h-8.72c-8.152,0-9.292-5.309-9.292-8.153v-4.927c0-4.36,4.174-7.581,8.533-7.581 c5.31,0,9.479,3.221,9.479,7.581V125.346z M139.704,90.655c-14.787,0-24.267,10.047-24.267,22.748v4.74 c0,16.304,13.271,21.042,22.75,21.042h24.836v-26.919C163.022,99.564,152.214,90.655,139.704,90.655 M99.355,101.474 c3.219-3.793,3.789-8.151,3.789-11.56v-1.707c0-12.317-10.233-15.905-22.362-15.905H54.818v50.775 c0,8.908,7.392,16.111,16.486,16.111h14.974c20.277,0,22.171-14.783,22.171-20.47v-3.029 C108.449,110.001,106.746,104.507,99.355,101.474 M173.275,95.077c5.254,0.073,10.442,1.084,15.25,3.106v41.005h-7.686 c-1.939,0-3.872-0.742-5.347-2.216c-1.483-1.478-2.217-3.41-2.217-5.35V95.077z"></path>
					<path fill-rule="evenodd" clip-rule="evenodd" fill="#5BBA47" d="M162.428,83.492c7.999-1.161,10.823,1.773,10.848,8.599v2.986 c5.254,0.072,10.441,1.084,15.249,3.106V65.734l-26.097,12.433V83.492z M196.028,62.081v40.351 c8.458,6.229,14.746,16.582,16.418,31.674V54.062L196.028,62.081z"></path>
					<g>
						<defs>
							<path id="SVGID_1_" d="M196.028,62.079v28.529c15.725,13.231,16.417,38.435,16.417,38.435V54.062L196.028,62.079z"></path>
						</defs>
						<clipPath id="SVGID_2_">
							<use xlink:href="#SVGID_1_" overflow="visible"></use>
						</clipPath>

						<linearGradient id="SVGID_3_" gradientUnits="userSpaceOnUse" x1="-58.0059" y1="465.0898" x2="-57.0059" y2="465.0898" gradientTransform="matrix(16.1805 -115.1305 -115.1305 -16.1805 54680.9336 995.1646)">
							<stop offset="0" style="stop-color:#ECF5E8"></stop>
							<stop offset="0.1" style="stop-color:#ECF5E8"></stop>
							<stop offset="0.8" style="stop-color:#5BBA47"></stop>
							<stop offset="1" style="stop-color:#5BBA47"></stop>
						</linearGradient>
						<polygon clip-path="url(#SVGID_2_)" fill="url(#SVGID_3_)" points="185.694,127.591 196.346,51.799 222.779,55.514 212.127,131.306"></polygon>
					</g>
					<g>
						<defs>
							<path id="SVGID_4_" d="M162.427,78.165v5.329c0.824-0.12,1.594-0.196,2.308-0.229c9.81-1.432,17.6-0.213,23.791,2.6v-20.13 L162.427,78.165z"></path>
						</defs>
						<clipPath id="SVGID_5_">
							<use xlink:href="#SVGID_4_" overflow="visible"></use>
						</clipPath>

						<linearGradient id="SVGID_6_" gradientUnits="userSpaceOnUse" x1="-58" y1="465.0078" x2="-57" y2="465.0078" gradientTransform="matrix(7.6844 -54.6775 -54.6775 -7.6844 26042.9844 503.9968)">
							<stop offset="0" style="stop-color:#ECF5E8"></stop>
							<stop offset="0.1" style="stop-color:#ECF5E8"></stop>
							<stop offset="0.8" style="stop-color:#5BBA47"></stop>
							<stop offset="1" style="stop-color:#5BBA47"></stop>
						</linearGradient>
						<polygon clip-path="url(#SVGID_5_)" fill="url(#SVGID_6_)" points="159.653,85.475 162.933,62.138 191.3,66.125 188.021,89.462"></polygon>
					</g>
									</g>
			</svg>