<svg width="300" height="80" viewBox="0 0 300 80" fill="none" xmlns="http://www.w3.org/2000/svg">
<path d="M229 74.5L299 0.5H273.5L202 74.5H229Z" fill="#05376C"/>
<path d="M265.5 75L204.5 1H232C232 1 235 1 236.5 1.5C238 2 239.5 3.93651 239.5 3.93651L300 75H265.5Z" fill="#05376C"/>
<path d="M112 56V1.5L141.5 1V56C142 59.1667 146.1 65.5 158.5 65.5C170.9 65.5 176 59.1667 177 56V10.5C177.167 9 178 5.5 180 3.5C182 1.5 185.167 1 186.5 1H213.5V12C212.667 10.8333 210.6 8.6 209 9C207.4 9.4 207 10.5 207 11V56C204.833 63.8333 192.1 79.5 158.5 79.5C124.9 79.5 113.5 63.8333 112 56Z" fill="#05376C"/>
<path fill-rule="evenodd" clip-rule="evenodd" d="M22.5 74.5H0L36 8.5C37.5 5.83333 41 0.5 45.5 0.5H68.5C72.5 0.5 76 2.5 78 6.5C79.1391 8.77822 87.0364 23.6537 95.6872 39.9484C102.225 52.2633 109.193 65.3889 114 74.5L84 75L78 63.5H28L22.5 74.5ZM51 19.5L36 47H70L56 19.5C55.9417 19.4029 55.8794 19.2945 55.8129 19.1787C55.3081 18.3009 54.5602 17 53.5 17C52.3 17 51.5 18.5 51 19.5Z" fill="#05376C"/>
</svg>
