<svg width="60" height="60" viewBox="0 0 60 60" fill="none" xmlns="http://www.w3.org/2000/svg">
<path d="M60 30C60 46.5685 46.5685 60 30 60C13.4315 60 0 46.5685 0 30C0 13.4315 13.4315 0 30 0C46.5685 0 60 13.4315 60 30Z" fill="#F6F6F7"/>
<path d="M46.0822 19.543V39.5832L29.5411 49.1261L13 39.5832V19.543L29.5411 10L46.0822 19.543Z" fill="#ED3D3D"/>
<path d="M41.3108 22.2972V36.8279L29.5411 43.6154L17.7715 36.8279V22.2972L29.5411 15.5098L41.3108 22.2972Z" fill="#333333"/>
<path d="M36.6992 29.5625L29.542 39.1054L31.9277 31.9482L24.7705 29.5625L27.1562 22.4053H33.1206L30.7349 27.1768L36.6992 29.5625Z" fill="white"/>
</svg>
