<svg width="60" height="60" viewBox="0 0 60 60" fill="none" xmlns="http://www.w3.org/2000/svg">
<path d="M60 30C60 46.5685 46.5685 60 30 60C13.4315 60 0 46.5685 0 30C0 13.4315 13.4315 0 30 0C46.5685 0 60 13.4315 60 30Z" fill="#F6F6F7"/>
<path fill-rule="evenodd" clip-rule="evenodd" d="M23.0439 8.91309H20.5654V21.6957H37.9133V8.91309H35.4352V21.6956H23.0439V8.91309Z" fill="#ED3D3D"/>
<path d="M30.6083 16.5221V21.3916C30.6083 22.0636 29.9947 22.609 29.2387 22.609C28.4827 22.609 27.8691 22.0636 27.8691 21.3916V16.5221C27.8691 15.8501 28.4827 15.3047 29.2387 15.3047C29.9947 15.3047 30.6083 15.8501 30.6083 16.5221Z" fill="#333333"/>
<path d="M33 16.6743C33 17.4303 32.5553 18.0438 32.0073 18.0438H26.0366C25.4887 18.0438 25.0439 17.4303 25.0439 16.6743C25.0439 15.9183 25.4887 15.3047 26.0366 15.3047H32.0073C32.5553 15.3047 33 15.9183 33 16.6743Z" fill="#333333"/>
<path d="M40.6523 43.9127V48.7823C40.6523 49.4543 40.1069 49.9997 39.4349 49.9997H19.9566C19.2846 49.9997 18.7393 49.4543 18.7393 48.7823V43.9127C18.7393 43.2407 19.2846 42.6953 19.9566 42.6953H39.4349C40.1069 42.6953 40.6523 43.2407 40.6523 43.9127Z" fill="#D92929"/>
<path d="M38.8676 20.7822H19.6107C17.62 20.7822 16 22.4208 16 24.4344V42.6953C16 44.7088 17.62 46.3474 19.6107 46.3474H38.8676C40.8583 46.3474 42.4783 44.7088 42.4783 42.6953V24.4344C42.4783 22.4208 40.8583 20.7822 38.8676 20.7822Z" fill="#ED3D3D"/>
<path d="M33.51 34.2397C33.4843 36.3344 31.7653 38.0116 29.6706 37.9859C27.5759 37.9601 25.8988 36.2412 25.9245 34.1465C25.9503 32.0517 29.7984 27.6024 29.7984 27.6024C29.7984 27.6024 33.5358 32.145 33.51 34.2397Z" fill="white"/>
<path d="M40.6523 9.36957C40.6523 10.1256 40.1069 10.7391 39.4349 10.7391H19.9566C19.2846 10.7391 18.7393 10.1256 18.7393 9.36957C18.7393 8.61357 19.2846 8 19.9566 8H39.4349C40.1069 8 40.6523 8.61357 40.6523 9.36957Z" fill="#ED3D3D"/>
</svg>
