<svg width="60" height="60" viewBox="0 0 60 60" fill="none" xmlns="http://www.w3.org/2000/svg">
<path d="M60 30C60 46.5685 46.5685 60 30 60C13.4315 60 0 46.5685 0 30C0 13.4315 13.4315 0 30 0C46.5685 0 60 13.4315 60 30Z" fill="#F6F6F7"/>
<path d="M25.5974 10H23.667V15.7143H37.0003V10H32.8796H25.5974Z" fill="#333333"/>
<path d="M43.6582 19.0347L43.6667 22.381L17.0087 22.3362L17 19.0347L23.6667 13.8096H37L43.6582 19.0347Z" fill="#666666"/>
<path d="M43.6667 19.5234H17V49.9996H43.6667V19.5234Z" fill="#333333"/>
<path d="M24.1868 40.4759H17V27.1426H24.1868H35.8931H43.6667V40.4759H36.7234H24.1868Z" fill="#666666"/>
<path d="M23.7406 36.5255C23.8642 37.8748 24.363 39.1548 25.1597 40.2339C26.1489 41.5736 27.5972 42.6032 29.3566 43.0699C33.4341 44.1515 37.6374 41.8006 38.7451 37.819C39.8527 33.8374 34.8473 23.333 34.8473 23.333C34.8473 23.333 32.7497 24.7491 30.3889 26.6646C28.3746 25.012 26.5019 23.757 26.5019 23.757C24.6351 27.7097 23.3376 32.1251 23.7406 36.5255Z" fill="#D92929"/>
<path d="M35.0154 36.8981C34.46 38.7941 32.3524 39.9136 30.3079 39.3985C28.2634 38.8834 27.0563 36.9289 27.6117 35.0329C28.1671 33.1369 33.0611 30 33.0611 30C33.0611 30 35.5708 35.0021 35.0154 36.8981Z" fill="white"/>
</svg>
