<svg width="365" height="94" viewBox="0 0 365 94" fill="none" xmlns="http://www.w3.org/2000/svg">
<path d="M143.592 85.5762C138.696 85.5762 134.584 83.9442 131.256 80.6802C127.992 77.4162 126.36 73.2562 126.36 68.2002C126.36 63.1762 127.992 59.0322 131.256 55.7682C134.552 52.4722 138.664 50.8242 143.592 50.8242C147.24 50.8242 150.376 51.6562 153 53.3202V56.9682C150.056 55.0802 146.936 54.1362 143.64 54.1362C139.8 54.1362 136.552 55.4802 133.896 58.1682C131.272 60.7922 129.96 64.1362 129.96 68.2002C129.96 72.2962 131.272 75.6562 133.896 78.2802C136.552 80.9362 139.832 82.2642 143.736 82.2642C147.64 82.2642 150.968 81.1442 153.72 78.9042V82.6002C150.968 84.5842 147.592 85.5762 143.592 85.5762Z" fill="black"/>
<path d="M183.213 85.0002H160.893V51.4002H164.445V81.7842H183.213V85.0002Z" fill="black"/>
<path d="M193.326 85.0002H189.774V51.4002H193.326V85.0002Z" fill="black"/>
<path d="M206.538 85.0002H203.034V51.4002H206.538L218.682 67.6722L230.826 51.4002H234.282V85.0002H230.778V56.7762L219.786 71.4642H217.626L206.538 56.7762V85.0002Z" fill="black"/>
<path d="M244.105 85.0002H240.409L255.385 51.2082H258.697L273.721 85.0002H269.977L265.801 75.7362H248.185L244.105 85.0002ZM257.017 55.6722L249.385 72.6162H264.649L257.017 55.6722Z" fill="black"/>
<path d="M37.0573 80.6845H35.9497C25.6112 80.6845 17.0182 77.2138 10.1706 70.2724C3.39021 63.1975 0 54.5541 0 44.3423C0 34.0636 3.39021 25.4536 10.1706 18.5122C17.0182 11.5041 25.6112 8 35.9497 8C46.2881 8 54.8811 11.5041 61.7287 18.5122C68.5762 25.4536 72 34.0636 72 44.3423C72 52.0846 69.9524 58.9926 65.8573 65.0664C61.8965 71.0733 56.4923 75.4451 49.6448 78.1816C53.3371 81.986 57.0965 83.8882 60.9231 83.8882C64.2126 83.8882 66.9986 83.1541 69.2811 81.6857V91.7974C66.3944 93.2658 63.0378 94 59.2112 94C55.4517 94 51.8601 92.9321 48.4364 90.7963C45.0126 88.6605 41.2196 85.2899 37.0573 80.6845ZM18.428 62.9639C23.1944 67.903 29.035 70.3725 35.9497 70.3725C42.8643 70.3725 48.7049 67.903 53.4713 62.9639C58.2378 57.8913 60.621 51.6841 60.621 44.3423C60.621 36.9336 58.2378 30.7598 53.4713 25.8207C48.7049 20.8149 42.8643 18.312 35.9497 18.312C29.035 18.312 23.1944 20.8149 18.428 25.8207C13.7287 30.6931 11.379 36.8669 11.379 44.3423C11.379 51.8176 13.7287 58.0248 18.428 62.9639Z" fill="#03B2E8"/>
<path d="M70.7143 69C60.8676 69 52.5889 65.7686 45.878 59.3058C39.2927 52.7796 36 44.511 36 34.5C36 24.489 39.2927 16.2521 45.878 9.78926C52.4007 3.26308 60.6794 0 70.7143 0C77.4251 0 83.3833 1.48898 88.5889 4.46695V15.0165C83.2578 11.5317 77.331 9.78926 70.8084 9.78926C63.9094 9.78926 58.1394 12.1336 53.4983 16.8223C48.9199 21.4477 46.6307 27.3402 46.6307 34.5C46.6307 41.6598 48.9512 47.584 53.5923 52.2727C58.2335 56.8981 64.0976 59.2107 71.1847 59.2107C78.7108 59.2107 84.9826 57.1832 90 53.1281V63.6777C84.4808 67.2259 78.0523 69 70.7143 69Z" fill="black"/>
<path d="M142.104 35.576C137.304 35.384 133.336 33.624 130.2 30.296C127.096 27 125.544 22.968 125.544 18.2C125.544 13.272 127.192 9.14403 130.488 5.81603C133.784 2.42403 137.944 0.728027 142.968 0.728027C147.96 0.728027 152.104 2.42403 155.4 5.81603C158.728 9.20803 160.392 13.336 160.392 18.2C160.392 21.784 159.432 25.048 157.512 27.992C155.624 30.904 153.08 33 149.88 34.28C151.16 35.912 152.872 36.728 155.016 36.728C156.456 36.728 157.784 36.392 159 35.72V41.528C157.368 42.264 155.672 42.632 153.912 42.632C150.136 42.632 146.2 40.28 142.104 35.576ZM135.528 26.072C137.512 28.152 139.992 29.192 142.968 29.192C145.912 29.192 148.376 28.152 150.36 26.072C152.344 23.992 153.336 21.368 153.336 18.2C153.336 15.032 152.344 12.408 150.36 10.328C148.376 8.24803 145.912 7.20803 142.968 7.20803C139.992 7.20803 137.512 8.24803 135.528 10.328C133.576 12.376 132.6 15 132.6 18.2C132.6 21.4 133.576 24.024 135.528 26.072Z" fill="#03B1DE"/>
<path d="M180.553 35.672C176.361 35.672 172.921 34.376 170.233 31.784C167.545 29.192 166.201 25.56 166.201 20.888V1.40003H173.065V21.128C173.065 23.72 173.737 25.72 175.081 27.128C176.457 28.504 178.281 29.192 180.553 29.192C182.857 29.192 184.681 28.504 186.025 27.128C187.401 25.72 188.089 23.72 188.089 21.128V1.40003H195.001V20.888C195.001 25.56 193.641 29.192 190.921 31.784C188.233 34.376 184.777 35.672 180.553 35.672Z" fill="#03B1DE"/>
<path d="M206.25 35H199.002L213.402 1.20803H220.026L234.426 35H227.082L223.77 27.224H209.562L206.25 35ZM216.666 9.84803L211.722 21.512H221.562L216.666 9.84803Z" fill="#03B1DE"/>
<path d="M231.831 7.59203V1.40003H260.007V7.59203H249.351V35H242.439V7.59203H231.831Z" fill="#03B1DE"/>
<path d="M262.909 7.59203V1.40003H291.085V7.59203H280.429V35H273.517V7.59203H262.909Z" fill="#03B1DE"/>
<path d="M303.155 35H296.243V1.40003H311.795C315.379 1.40003 318.195 2.32803 320.243 4.18403C322.323 6.00803 323.363 8.39203 323.363 11.336C323.363 13.576 322.739 15.528 321.491 17.192C320.275 18.824 318.579 19.976 316.403 20.648L326.771 35H318.755L308.963 21.416H303.155V35ZM303.155 7.44803V15.608H311.411C312.979 15.608 314.195 15.256 315.059 14.552C315.955 13.848 316.403 12.84 316.403 11.528C316.403 10.248 315.955 9.25603 315.059 8.55203C314.195 7.81603 312.979 7.44803 311.411 7.44803H303.155Z" fill="#03B1DE"/>
<path d="M339.2 26.072C341.184 28.152 343.664 29.192 346.64 29.192C349.584 29.192 352.048 28.152 354.032 26.072C356.016 23.992 357.008 21.368 357.008 18.2C357.008 15.032 356.016 12.408 354.032 10.328C352.048 8.24803 349.584 7.20803 346.64 7.20803C343.664 7.20803 341.184 8.24803 339.2 10.328C337.248 12.376 336.272 15 336.272 18.2C336.272 21.4 337.248 24.024 339.2 26.072ZM329.216 18.2C329.216 13.272 330.864 9.14403 334.16 5.81603C337.456 2.42403 341.616 0.728027 346.64 0.728027C351.632 0.728027 355.776 2.42403 359.072 5.81603C362.4 9.20803 364.064 13.336 364.064 18.2C364.064 23.032 362.4 27.16 359.072 30.584C355.776 33.976 351.632 35.672 346.64 35.672C341.616 35.672 337.456 33.976 334.16 30.584C330.864 27.192 329.216 23.064 329.216 18.2Z" fill="#03B1DE"/>
</svg>
