<svg width="326" height="83" viewBox="0 0 326 83" fill="none" xmlns="http://www.w3.org/2000/svg">
<path d="M108 14.3269H128.132C131.02 14.3269 133.523 14.5241 135.641 14.9184C140.997 15.8896 143.295 19.7457 143.234 23.5C143.184 26.5716 141.886 29.575 136.628 30.8742L144.81 37.6575H133.473L127.397 31.746H127.181L116.629 31.7304V37.6575H108V14.3269ZM128.325 26.4651C129.769 26.4651 131.028 26.3562 132.103 26.1382C134.98 25.5636 135 25 135 22.5C135 19.5 132.773 18.6233 128.325 18.6233H116.629V26.4651H128.325Z" fill="black"/>
<path d="M151.886 26.4222C151.886 24.5853 152.407 22.9041 153.45 21.3786C154.493 19.8531 155.953 18.5455 157.83 17.4558C159.723 16.3557 161.985 15.5048 164.617 14.9029C167.264 14.301 170.192 14 173.401 14C176.593 14 179.513 14.301 182.161 14.9029C184.808 15.5048 187.07 16.3557 188.947 17.4558C190.84 18.5455 192.309 19.8531 193.351 21.3786C194.394 22.9041 194.916 24.5853 194.916 26.4222C194.916 28.2694 194.394 29.9662 193.351 31.5125C192.309 33.0484 190.84 34.3715 188.947 35.4819C187.07 36.5924 184.808 37.4589 182.161 38.0816C179.513 38.6939 176.593 39 173.401 39C170.192 39 167.264 38.6939 164.617 38.0816C161.985 37.4589 159.723 36.5924 157.83 35.4819C155.953 34.3715 154.493 33.0484 153.45 31.5125C152.407 29.9662 151.886 28.2694 151.886 26.4222ZM159.515 26.4222C159.515 27.6779 159.86 28.809 160.549 29.8157C161.255 30.8223 162.226 31.6837 163.461 32.3997C164.713 33.1054 166.181 33.6503 167.865 34.0342C169.566 34.4182 171.411 34.6102 173.401 34.6102C175.39 34.6102 177.227 34.4182 178.912 34.0342C180.612 33.6503 182.08 33.1054 183.316 32.3997C184.551 31.6837 185.522 30.8223 186.228 29.8157C186.934 28.809 187.287 27.6779 187.287 26.4222C187.287 25.1665 186.934 24.0405 186.228 23.0442C185.522 22.0479 184.551 21.2073 183.316 20.5224C182.08 19.8271 180.612 19.2978 178.912 18.9346C177.227 18.5714 175.39 18.3898 173.401 18.3898C171.411 18.3898 169.566 18.5714 167.865 18.9346C166.181 19.2978 164.713 19.8271 163.461 20.5224C162.226 21.2073 161.255 22.0479 160.549 23.0442C159.86 24.0405 159.515 25.1665 159.515 26.4222Z" fill="black"/>
<path d="M213.915 29.6332L197.477 14.3269H206.117L217.693 24.1656L229.124 14.3269H237.764L221.543 29.6021V37.6575H213.915V29.6332Z" fill="black"/>
<path d="M253.367 14.3269H262.453L279.647 37.6575H271.633L268.625 33.5635H245.653L242.741 37.6575H234.702L253.367 14.3269ZM265.617 29.5006L257.482 18.4483L248.565 29.5006H265.617Z" fill="black"/>
<path d="M287.495 14.3269H296.124V34.33H326V37.6575H287.495V14.3269Z" fill="black"/>
<path fill-rule="evenodd" clip-rule="evenodd" d="M19 18.9673C12.0205 20.814 5.50468 22.5402 0 24L22 82.5L64.5 72L64.875 71H82L69.5455 58.5455L91.5 0C91.0914 0 75.0983 4.17441 55.5278 9.32489C54.9066 9.22407 54.2214 9.11692 53.4564 9L19 6V18.9673ZM19 18.9673V70H31.7682V49.7408L43.8273 48.7835H44.1979L63.5959 71H64.875L69.5455 58.5455L59 48C67.9986 44.436 72.5 40.5 72.5 28C72.5 17.7009 71.1 14 65.5 12C65.3757 11.9556 65.2542 11.9122 65.1352 11.8697C61.1971 10.4624 60.0822 10.064 55.5278 9.32489C43.7752 12.4179 30.7325 15.8629 19 18.9673ZM60.5 28.5C60.5 33.0985 60.5 40.5 53 42L31.7682 43.7521V15.7857C34.5517 15.8237 37.2497 15.7296 39.8052 15.6406C51.6933 15.2263 60.5 14.9194 60.5 28.5Z" fill="#E30613"/>
<path d="M143 52.4017C143 51.36 143.298 50.3899 143.894 49.4916C144.49 48.587 145.351 47.8041 146.476 47.1429C147.612 46.4754 148.993 45.9513 150.62 45.5708C152.256 45.1903 154.106 45 156.168 45C157.975 45 159.63 45.1216 161.134 45.3649C162.648 45.602 164.053 45.9669 165.349 46.4598L163.277 48.7056C162.889 48.5371 162.44 48.3874 161.929 48.2564C161.428 48.1254 160.888 48.0162 160.311 47.9289C159.744 47.8353 159.153 47.7636 158.538 47.7137C157.932 47.6638 157.332 47.6388 156.736 47.6388C155.298 47.6388 154.016 47.7573 152.89 47.9944C151.765 48.2252 150.814 48.5527 150.038 48.9769C149.272 49.3949 148.685 49.8971 148.279 50.4835C147.881 51.0636 147.683 51.7031 147.683 52.4017C147.683 53.1254 147.891 53.7898 148.307 54.3949C148.723 55 149.324 55.524 150.109 55.9669C150.904 56.4036 151.869 56.7467 153.004 56.9963C154.148 57.2396 155.44 57.3612 156.878 57.3612C157.53 57.3612 158.178 57.33 158.822 57.2676C159.465 57.2052 160.084 57.121 160.68 57.015C161.286 56.9027 161.868 56.7717 162.426 56.622C162.984 56.466 163.504 56.2976 163.987 56.1167L166.058 58.3624C164.847 58.874 163.447 59.2764 161.858 59.5696C160.269 59.8565 158.58 60 156.792 60C154.513 60 152.512 59.8066 150.79 59.4198C149.068 59.0268 147.631 58.4903 146.476 57.8104C145.322 57.1241 144.452 56.3194 143.866 55.3961C143.289 54.4666 143 53.4685 143 52.4017Z" fill="black"/>
<path d="M180.025 46.1778H185.523V57.2021H205.421V59.8035H180.025V46.1778Z" fill="black"/>
<path d="M215.224 46.1778H220.751V59.8035H215.224V46.1778Z" fill="black"/>
<path d="M234.512 46.1778H239.01L249.069 53.5115L259.129 46.1778H263.627V59.8035H259.129V50.2857L249.069 57.4042L239.01 50.2857V59.8035H234.512V46.1778Z" fill="black"/>
<path d="M284.505 45.1778H289.273L300 59.8035H295.275L293.501 57.3425H280.546L278.829 59.8035H274.09L284.505 45.1778ZM291.727 54.9002L286.931 48.2564L282.263 54.9002H291.727Z" fill="black"/>
</svg>
