<svg width="741" height="96" viewBox="0 0 741 96" fill="none" xmlns="http://www.w3.org/2000/svg">
<path fill-rule="evenodd" clip-rule="evenodd" d="M615.841 63.4334L622.198 72.55C625.115 75.4238 623.246 79.5655 620.179 80.4585C619.506 80.6686 619.057 81.0062 619.057 81.539V82.7021L653.911 82.6939V81.4033C653.911 81.0431 653.761 80.6155 653.387 80.473C653.163 80.4129 652.938 80.353 652.714 80.2779C649.124 79.0849 646.057 77.2765 643.14 73.5024L626.088 50.9247L633.717 41.3955C638.728 35.7305 645.085 31.8663 648.825 31.0934C649.573 30.9433 649.722 30.6057 649.722 29.9604V28.9475H648.525L628.855 28.9545H627.733C627.733 28.9545 627.733 29.4947 627.733 29.96C627.733 30.5302 627.958 30.9054 628.406 31.1455C628.556 31.2656 628.556 31.273 628.706 31.3781C630.201 32.2861 631.473 34.7096 628.107 38.6489C628.107 38.7389 625.714 41.6952 622.273 45.8371V45.7769L617.337 39.0839C614.345 36.1277 616.44 31.7907 619.581 31.0779C620.329 30.9353 620.478 30.6052 620.478 29.9599V28.9395L619.282 28.9464H586.448C586.448 28.9464 586.373 29.4941 586.373 29.9593C586.373 30.7772 586.971 31.1898 587.719 31.3924C591.235 32.5779 594.301 34.3863 597.218 38.1305L612.027 58.2844L602.453 69.8771C597.442 75.4747 593.179 79.7066 589.739 80.4644C588.991 80.622 588.617 81.0046 588.617 81.5373V82.7004L608.811 82.6923V81.4317C608.811 81.0641 608.661 80.6963 608.287 80.4938C607.988 80.3811 607.838 80.3213 607.689 80.1937C606.268 79.2333 605.146 76.8321 608.437 72.9904C608.437 72.9079 612.401 67.5129 615.841 63.3711V63.4311" fill="#002D62"/>
<path d="M175.837 17.4301C174.041 13.1082 169.404 11.2699 164.468 11.2699H144.424V38.192L160.205 38.2294C165.59 38.2294 170.451 37.2315 171.424 33.1646C171.499 32.6844 171.872 32.3319 172.321 32.3243L173.219 32.3313V51.2922L172.321 51.2991C171.872 51.3061 171.573 50.8939 171.349 50.3537C170.077 46.8496 165.291 45.1614 160.205 45.1614H144.424V66.741C144.424 73.1714 146.742 74.9122 153.174 74.9122H164.468C169.778 74.9122 175.687 72.301 177.706 67.2287C177.856 66.8461 178.155 66.6584 178.604 66.6584H179.352V82.6406H119.742V81.6051C119.742 81.0724 120.116 80.5846 120.864 80.5246C124.529 80.2545 127.371 76.4428 127.371 70.5753V15.208C127.371 9.34786 124.529 5.51371 120.864 5.23605C120.116 5.17593 119.742 4.68826 119.742 4.15562V3.12012H177.482V18.0068H176.734C176.36 17.9918 175.986 17.7517 175.837 17.429" fill="#002D62"/>
<path d="M215.402 82.6419L215.477 81.6063C215.477 81.0736 215.103 80.5859 214.28 80.5258C210.69 80.2557 207.773 76.399 207.773 70.5389V13.1234C207.773 8.71143 207.773 0 207.773 0L184.737 3.12142V4.15692C184.737 4.68956 185.111 5.17721 185.859 5.23728C189.524 5.51494 192.366 9.32665 192.366 15.1868C192.366 15.0517 192.441 70.5614 192.441 70.5614C192.441 76.414 189.524 80.2557 185.934 80.5258C185.111 80.5858 184.737 81.0736 184.737 81.6063L184.812 82.6419H215.402" fill="#002D62"/>
<path d="M520.555 82.6419L520.63 81.6063C520.63 81.0736 520.256 80.5859 519.434 80.5258C515.844 80.2557 512.927 76.399 512.927 70.5389V13.1234C512.927 8.71143 512.927 0 512.927 0L489.891 3.12142V4.15692C489.891 4.68956 490.265 5.17721 491.012 5.23728C494.603 5.51494 497.519 9.32665 497.519 15.1868C497.519 15.0517 497.594 70.5614 497.594 70.5614C497.594 76.414 494.677 80.2557 491.087 80.5258C490.265 80.5858 489.891 81.0736 489.891 81.6063V82.6419H520.555" fill="#002D62"/>
<path d="M402.308 28.003C402.308 28.003 402.308 35.5963 402.308 40.0157C404.702 35.5887 409.414 26.9824 419.586 26.9824C421.455 26.9824 422.951 27.3877 423.998 27.7778L419.735 42.5744C419.212 42.5744 415.247 42.5744 413.228 42.5744C406.646 42.5744 402.533 46.8512 402.533 52.1186V70.5319C402.533 76.392 405.45 80.2561 409.04 80.5262C409.862 80.5862 410.236 81.074 410.162 81.6067V82.6422H379.721V81.6067C379.721 81.074 380.095 80.5863 380.918 80.5262C384.508 80.2561 387.425 76.407 387.425 70.5469C387.425 66.2548 387.425 48.3219 387.425 43.1746C387.425 37.322 384.957 33.7954 380.918 33.2252C380.32 33.1502 379.721 32.4899 379.721 31.9196C379.721 31.3493 379.721 31.1167 379.721 31.1167L402.308 28.003" fill="#002D62"/>
<path d="M585.326 82.6944H571.265C566.478 82.6944 565.057 79.6781 565.057 77.1644C558.849 81.9141 554.362 83.9475 546.284 84.2326C537.234 84.5177 528.932 78.8827 528.932 68.7907L528.858 43.2117C528.858 37.3442 525.941 33.5325 522.351 33.2549C521.603 33.1947 521.154 32.7071 521.229 32.1819V31.1389L544.789 28.0176V61.2798C544.789 76.1515 559.373 74.5683 565.057 70.374V43.1968C565.057 37.3367 562.14 33.5325 558.55 33.2549C557.728 33.1947 557.354 32.7071 557.354 32.1819V31.1389L580.913 28.0176V70.479C580.913 75.0635 581.811 79.7831 585.401 80.5485C585.999 80.676 586.448 80.9386 586.448 81.7715C586.448 82.2142 586.448 82.6944 586.448 82.6944H585.326" fill="#002D62"/>
<path d="M330.208 44.8484V30.8697C330.208 30.8697 322.131 27.1855 309.117 27.1855C292.139 27.1855 280.396 35.8144 280.247 56.7637C280.097 73.3161 289.745 84.391 308.444 84.391C320.784 84.391 327.964 78.2758 330.582 75.8147C332.228 74.5841 332.228 73.4737 332.228 72.0706C332.228 70.6674 332.302 68.1988 332.302 68.1988C327.291 71.8454 320.485 74.3515 313.903 74.3515C300.366 74.3515 296.402 64.7398 296.402 54.0775C296.402 49.6806 297.823 34.6814 310.463 34.5388C318.615 34.5388 323.252 37.0073 328.039 45.0135C328.862 46.229 329.385 46.4917 330.208 46.3191V44.8484" fill="#002D62"/>
<path d="M456.009 34.426C445.912 34.426 443.07 42.3496 443.07 54.8126C443.07 64.8596 443.22 77.4578 456.159 77.4578C468.574 77.1727 468.425 66.6904 468.425 55.2329C468.425 41.8544 465.134 34.5011 456.009 34.426ZM455.112 26.9152C468.2 26.705 486.001 30.0216 486.151 54.6701C486.151 73.9086 478.97 84.3908 455.336 84.3908C438.957 84.3908 425.643 80.6991 425.643 55.9381C425.494 30.757 443.818 27.0652 455.112 26.9227V26.9157" fill="#002D62"/>
<path d="M273.441 53.8224H236.12C235.372 70.8025 244.571 74.194 253.472 74.3365C261.026 74.3365 266.785 71.7405 271.721 68.2664C271.721 68.2664 271.721 71.6879 271.721 72.5658C271.721 73.4512 271.272 74.149 271.048 74.5691C267.682 79.1162 259.081 84.3985 247.264 84.3985C231.109 84.3985 219.815 76.0473 219.815 56.9364C219.815 35.942 231.408 27.2981 247.563 27.208C264.242 27.208 272.843 35.0941 273.441 52.2918V53.8224V53.8224ZM247.413 33.4359C242.253 33.721 237.541 35.9795 236.12 47.1669H258.183C258.333 35.6944 252.574 33.721 247.264 33.4359H247.413Z" fill="#002D62"/>
<path d="M374.336 31.4314V28.9853H357.134V13.0107L334.397 36.6388H341.652V67.9652C341.652 73.3076 343.297 84.5701 358.33 84.7127C364.987 84.7127 369.699 82.3267 373.364 79.0926C374.71 77.9972 374.71 77.2995 374.785 76.2115C374.86 75.2735 374.785 74.178 374.785 72.3398C365.286 77.7121 357.134 74.3356 357.134 63.9135V36.6388H369.325C371.718 36.2486 374.336 34.9356 374.336 31.4314Z" fill="#002D62"/>
<path fill-rule="evenodd" clip-rule="evenodd" d="M81.449 1.67285H0V83.3468H81.449V1.67285ZM51.4571 78.7172V6.29479C67.014 10.9169 78.3824 25.4734 78.3824 42.4835C78.3824 59.5537 67.014 74.0426 51.4571 78.7172ZM3.14128 40.7428C4.03876 20.7013 20.5679 4.75673 40.7618 4.75673C43.1553 4.75673 45.5486 4.98936 47.8672 5.43949C47.8672 25.0382 32.086 40.7428 12.4903 40.7428H3.14128V40.7428ZM12.4903 44.2693C32.086 44.2693 47.8672 59.9438 47.8672 79.58C45.5486 80.0228 43.1553 80.2553 40.7618 80.2553C20.5679 80.2553 4.03876 64.3108 3.14128 44.2693H12.4903" fill="#002D62"/>
</svg>
