<svg width="741" height="96" viewBox="0 0 741 96" fill="none" xmlns="http://www.w3.org/2000/svg">
<g clip-path="url(#clip0)">
<path fill-rule="evenodd" clip-rule="evenodd" d="M697.861 71.8868L705.065 82.2176C708.37 85.4742 706.252 90.1675 702.777 91.1794C702.014 91.4175 701.505 91.8001 701.505 92.4038V93.7218L741.001 93.7126V92.2501C741.001 91.8419 740.831 91.3573 740.407 91.1958C740.153 91.1278 739.899 91.0599 739.645 90.9748C735.577 89.6228 732.101 87.5736 728.796 83.2968L709.472 57.7122L718.117 46.9139C723.796 40.4943 731 36.1155 735.237 35.2397C736.085 35.0696 736.254 34.687 736.254 33.9558V32.8079H734.898L712.608 32.8159H711.337C711.337 32.8159 711.337 33.428 711.337 33.9553C711.337 34.6015 711.591 35.0266 712.1 35.2986C712.269 35.4347 712.269 35.4432 712.439 35.5623C714.134 36.5911 715.575 39.3375 711.761 43.8014C711.761 43.9034 709.049 47.2534 705.15 51.9469V51.8788L699.556 44.2944C696.166 40.9444 698.539 36.0298 702.099 35.2221C702.946 35.0605 703.116 34.6864 703.116 33.9552V32.7988L701.76 32.8067H664.553C664.553 32.8067 664.468 33.4273 664.468 33.9546C664.468 34.8813 665.146 35.3489 665.994 35.5785C669.977 36.9219 673.452 38.9711 676.758 43.2139L693.539 66.0521L682.69 79.1887C677.012 85.5318 672.181 90.3273 668.282 91.186C667.435 91.3646 667.011 91.7982 667.011 92.4019V93.7199L689.894 93.7107V92.2823C689.894 91.8657 689.725 91.4489 689.301 91.2194C688.962 91.0917 688.793 91.0239 688.623 90.8794C687.013 89.791 685.741 87.0701 689.471 82.7167C689.471 82.6231 693.962 76.5097 697.861 71.8162V71.8843" fill="#002D62"/>
<path d="M199.256 19.7569C197.222 14.8594 191.967 12.7763 186.373 12.7763H163.659V43.2839L181.542 43.3263C187.644 43.3263 193.153 42.1955 194.255 37.5869C194.34 37.0428 194.764 36.6433 195.272 36.6348L196.289 36.6426V58.1288L195.272 58.1367C194.764 58.1446 194.425 57.6775 194.17 57.0653C192.73 53.0945 187.305 51.1815 181.542 51.1815H163.659V75.6352C163.659 82.9221 166.286 84.8946 173.575 84.8946H186.373C192.391 84.8946 199.086 81.9357 201.374 76.1879C201.544 75.7543 201.883 75.5416 202.391 75.5416H203.239V93.6524H135.69V92.479C135.69 91.8753 136.114 91.3226 136.962 91.2546C141.115 90.9485 144.335 86.6292 144.335 79.9801V17.2388C144.335 10.5982 141.115 6.2534 136.962 5.93876C136.114 5.87064 135.69 5.31801 135.69 4.71443V3.54102H201.12V20.4103H200.273C199.849 20.3933 199.425 20.1212 199.256 19.7556" fill="#002D62"/>
<path d="M244.09 93.6533L244.175 92.4799C244.175 91.8762 243.751 91.3235 242.819 91.2555C238.751 90.9494 235.445 86.5791 235.445 79.9385V14.8761C235.445 9.87653 235.445 0.00488281 235.445 0.00488281L209.341 3.54202V4.71544C209.341 5.31902 209.765 5.87162 210.613 5.93969C214.766 6.25433 217.986 10.5737 217.986 17.2143C217.986 17.0612 218.071 79.964 218.071 79.964C218.071 86.596 214.766 90.9494 210.697 91.2555C209.765 91.3235 209.341 91.8762 209.341 92.4799L209.426 93.6533H244.09" fill="#002D62"/>
<path d="M589.885 93.6533L589.97 92.4799C589.97 91.8762 589.546 91.3235 588.614 91.2555C584.546 90.9494 581.24 86.5791 581.24 79.9385V14.8761C581.24 9.87653 581.24 0.00488281 581.24 0.00488281L555.136 3.54202V4.71544C555.136 5.31902 555.56 5.87162 556.407 5.93969C560.476 6.25433 563.781 10.5737 563.781 17.2143C563.781 17.0612 563.866 79.964 563.866 79.964C563.866 86.596 560.561 90.9494 556.492 91.2555C555.56 91.3235 555.136 91.8762 555.136 92.4799V93.6533H589.885" fill="#002D62"/>
<path d="M455.889 31.7365C455.889 31.7365 455.889 40.3411 455.889 45.3491C458.602 40.3326 463.941 30.5801 475.468 30.5801C477.586 30.5801 479.281 31.0393 480.468 31.4813L475.637 48.2487C475.044 48.2487 470.552 48.2487 468.263 48.2487C460.805 48.2487 456.144 53.0951 456.144 59.064V79.9296C456.144 86.5702 459.449 90.949 463.517 91.2551C464.45 91.3231 464.873 91.8758 464.789 92.4795V93.6529H430.294V92.4795C430.294 91.8758 430.718 91.3231 431.65 91.2551C435.718 90.949 439.023 86.5872 439.023 79.9466C439.023 75.083 439.023 54.7617 439.023 48.9288C439.023 42.2967 436.227 38.3004 431.65 37.6543C430.972 37.5693 430.294 36.8211 430.294 36.1748C430.294 35.5286 430.294 35.265 430.294 35.265L455.889 31.7365" fill="#002D62"/>
<path d="M663.282 93.7128H647.348C641.924 93.7128 640.314 90.2948 640.314 87.4464C633.279 92.8286 628.194 95.1328 619.04 95.4559C608.785 95.779 599.377 89.3935 599.377 77.9574L599.293 48.9717C599.293 42.3227 595.987 38.0033 591.919 37.6887C591.072 37.6206 590.563 37.0679 590.648 36.4728V35.291L617.345 31.7539V69.4461C617.345 86.2985 633.872 84.5044 640.314 79.7515V48.9547C640.314 42.3142 637.008 38.0033 632.94 37.6887C632.008 37.6206 631.584 37.0679 631.584 36.4728V35.291L658.281 31.7539V79.8705C658.281 85.0656 659.298 90.4137 663.367 91.2811C664.045 91.4256 664.553 91.7232 664.553 92.6671C664.553 93.1687 664.553 93.7128 664.553 93.7128H663.282" fill="#002D62"/>
<path d="M374.187 50.8258V34.9854C374.187 34.9854 365.034 30.8105 350.287 30.8105C331.048 30.8105 317.741 40.5886 317.572 64.3281C317.402 83.085 328.335 95.6349 349.524 95.6349C363.508 95.6349 371.645 88.7053 374.611 85.9163C376.475 84.5219 376.476 83.2636 376.476 81.6736C376.476 80.0834 376.56 77.2862 376.56 77.2862C370.882 81.4184 363.169 84.2582 355.711 84.2582C340.37 84.2582 335.878 73.3664 335.878 61.2841C335.878 56.3016 337.489 39.3047 351.812 39.1432C361.05 39.1432 366.305 41.9404 371.729 51.0129C372.662 52.3903 373.255 52.6879 374.187 52.4924V50.8258" fill="#002D62"/>
<path d="M516.743 39.0154C505.301 39.0154 502.08 47.9943 502.08 62.1172C502.08 73.5023 502.25 87.7783 516.912 87.7783C530.981 87.4553 530.812 75.577 530.812 62.5935C530.812 47.4331 527.082 39.1005 516.743 39.0154ZM515.726 30.5043C530.557 30.2661 550.729 34.0244 550.898 61.9557C550.898 83.7564 542.762 95.6348 515.98 95.6348C497.419 95.6348 482.333 91.4514 482.333 63.3926C482.163 34.8577 502.928 30.6743 515.726 30.5127V30.5049" fill="#002D62"/>
<path d="M309.859 60.9949H267.567C266.72 80.2365 277.144 84.0797 287.23 84.2412C295.79 84.2412 302.316 81.2994 307.91 77.3626C307.91 77.3626 307.91 81.2398 307.91 82.2347C307.91 83.238 307.401 84.0287 307.147 84.5048C303.333 89.6575 293.586 95.6433 280.195 95.6433C261.889 95.6433 249.091 86.1799 249.091 64.5236C249.091 40.7331 262.228 30.938 280.534 30.8359C299.434 30.8359 309.181 39.7723 309.859 59.2605V60.9949V60.9949ZM280.365 37.8933C274.517 38.2163 269.177 40.7756 267.567 53.4531H292.569C292.739 40.4525 286.213 38.2163 280.195 37.8933H280.365Z" fill="#002D62"/>
<path d="M424.192 35.6231V32.8512H404.699V14.749L378.934 41.5239H387.155V77.0226C387.155 83.0764 389.019 95.8389 406.055 96.0005C413.598 96.0005 418.937 93.2967 423.09 89.632C424.616 88.3906 424.616 87.6 424.7 86.3671C424.785 85.3042 424.7 84.0628 424.7 81.9797C413.937 88.0676 404.699 84.2413 404.699 72.4312V41.5239H418.513C421.226 41.0818 424.192 39.5939 424.192 35.6231Z" fill="#002D62"/>
<path fill-rule="evenodd" clip-rule="evenodd" d="M92.2967 1.90137H0V94.453H92.2967V1.90137ZM58.3104 89.2068V7.13888C75.9392 12.3766 88.8217 28.8718 88.8217 48.1474C88.8217 67.491 75.9392 83.9096 58.3104 89.2068ZM3.55965 46.1748C4.57666 23.4641 23.3073 5.39596 46.1907 5.39596C48.9029 5.39596 51.6149 5.65958 54.2423 6.16966C54.2423 28.3786 36.3593 46.1748 14.1538 46.1748H3.55965V46.1748ZM14.1538 50.171C36.3593 50.171 54.2423 67.9331 54.2423 90.1845C51.6149 90.6863 48.9029 90.9498 46.1907 90.9498C23.3073 90.9498 4.57666 72.8817 3.55965 50.171H14.1538" fill="#002D62"/>
</g>
<defs>
<clipPath id="clip0">
<rect width="741" height="96" fill="white"/>
</clipPath>
</defs>
</svg>
