<svg width="91" height="43" viewBox="0 0 91 43" fill="none" xmlns="http://www.w3.org/2000/svg">
<path d="M4.9949 25.2039H9.60283C10.4762 25.2039 11.2921 25.8418 11.3364 26.6873H11.3784V23.2131H4.9949L4.99179 17.1147H11.1507C12.028 17.1147 12.8447 17.7504 12.8905 18.5935H12.9309L12.9247 15.1169L0 15.1224V15.1605C0.8703 15.2079 1.52302 16.1294 1.52302 16.9904V32.9659C1.52302 33.8237 0.8703 34.7492 0 34.7982V34.8354H6.52103V34.7982C5.64995 34.7492 4.99179 33.8237 4.99179 32.9659L4.9949 25.2039Z" fill="#C8222E"/>
<path d="M18.3387 29.5332C18.3387 31.5831 20.0482 33.3556 22.1579 33.3556C24.2652 33.3556 25.981 31.5598 25.981 29.5091V16.9893C25.981 16.1283 25.3259 15.2067 24.4533 15.1593V15.122L30.979 15.1158V15.1593C30.1079 15.2067 29.4482 16.1283 29.4482 16.9893V29.1548C29.4482 33.0704 26.2017 35.3518 22.175 35.3518C18.1413 35.3518 14.8598 33.0704 14.8598 29.1548L14.8683 16.9893C14.8683 16.1283 14.2102 15.2067 13.3438 15.1593V15.1158H19.8601V15.1593C18.9914 15.2114 18.3355 16.1337 18.3355 16.9893L18.3387 29.5332Z" fill="#C8222E"/>
<path d="M71.6561 18.3088C70.5628 16.5472 68.0677 16.7593 68.0677 16.7593C63.9866 16.7593 64.1793 19.8637 64.1793 19.8637C64.1793 19.8637 63.8988 21.4209 65.9495 22.4831L70.0298 24.6449C73.9687 26.7523 73.5016 29.747 73.5016 29.747C73.5016 29.747 73.6796 35.3418 65.442 35.3418C65.442 35.3418 63.0487 35.4148 61.6935 34.9082L60.5342 31.2848H60.5746C61.8295 33.0891 65.4755 33.3494 65.4755 33.3494C70.1044 33.1466 70.1362 30.0104 70.1362 30.0104C70.1362 30.0104 70.3445 28.6599 68.5324 27.6816L64.4715 25.5206C60.2319 23.2617 60.7176 20.2196 60.7176 20.2196C60.7176 20.2196 60.6173 14.7157 67.9053 14.7157C67.9053 14.7157 71.1767 14.7996 71.6981 15.3086V18.3088H71.6561Z" fill="#C8222E"/>
<path d="M39.8618 8.26083C40.5844 8.96795 41.593 9.40232 42.6941 9.40232C44.9126 9.40232 46.7084 7.65706 46.7084 5.49996C46.7084 3.34908 44.9126 1.60071 42.6941 1.60071C42.6941 1.60071 39.6038 1.31553 38.2129 5.16039L38.2175 2.27441C39.2525 0.957305 40.8548 -2.42819e-05 42.6941 -2.42819e-05C45.8241 -2.42819e-05 48.3565 2.46013 48.3565 5.49996C48.3565 8.53513 45.8241 11.0046 42.6941 11.0046C41.1307 11.0046 39.7164 10.3915 38.6946 9.39144L36.7473 7.26309C36.2135 6.7448 35.4792 6.42932 34.6741 6.42932C33.0524 6.42932 31.7377 7.70368 31.7377 9.27799C31.7377 10.8585 33.0524 12.136 34.6741 12.136C34.6741 12.136 36.8429 12.4188 38.2129 9.80561L38.2175 12.1166C37.3783 13.1065 36.0969 13.7383 34.6741 13.7383C32.1425 13.7383 30.0864 11.7413 30.0864 9.27799C30.0864 6.8194 32.1425 4.82703 34.6741 4.82703C35.9353 4.82703 37.0807 5.31968 37.9121 6.13248L39.8618 8.26083Z" fill="#C8222E"/>
<path d="M40.9048 16.948C40.9048 16.0863 40.2489 15.2036 39.3794 15.1593V15.122H45.8903V15.1593C45.0262 15.2074 44.3673 16.0909 44.3673 16.948V32.9577C44.3673 33.8171 45.0262 34.7418 45.8903 34.7931V34.8296H39.3794V34.7931C40.2489 34.7418 40.9048 33.8171 40.9048 32.9577V16.948Z" fill="#C8222E"/>
<path d="M36.8156 16.9898C36.8156 16.1289 37.4699 15.2073 38.3402 15.1599V15.1218H31.8191V15.1599C32.6918 15.2073 33.343 16.1289 33.343 16.9898L33.3484 37.0044C33.3484 37.0044 33.2753 40.5384 30.4282 42.572L30.4352 42.6108C30.997 42.5191 36.8203 41.4445 36.8203 35.8194L36.8156 16.9898Z" fill="#C8222E"/>
<path d="M45.8662 18.6682H45.9051C46.7878 17.1319 48.1492 17.1141 48.1492 17.1141H51.6793L51.6817 32.9652C51.6817 33.8231 51.0251 34.7415 50.1555 34.7928V34.8293H56.6851V34.7928C55.8086 34.7415 55.1497 33.8168 55.1497 32.9652L55.1543 17.1141L58.1048 17.1071C59.0007 17.1071 59.7102 17.8018 59.7358 18.6682H59.7716L60.8556 15.1155H46.9533L45.8662 18.6682Z" fill="#C8222E"/>
<path d="M78.361 29.5332C78.361 31.5831 80.0705 33.3556 82.181 33.3556C84.286 33.3556 86.0033 31.5598 86.0033 29.5091V16.9893C86.0033 16.1283 85.3475 15.2067 84.4787 15.1593V15.122L90.9998 15.1158V15.1593C90.1349 15.2067 89.476 16.1283 89.476 16.9893V29.1548C89.476 33.0704 86.2279 35.3518 82.195 35.3518C78.1691 35.3518 74.8868 33.0704 74.8868 29.1548L74.8915 16.9893C74.8915 16.1283 74.2348 15.2067 73.3638 15.1593V15.1158H79.8864V15.1593C79.0129 15.2114 78.3563 16.1337 78.3563 16.9893L78.361 29.5332Z" fill="#C8222E"/>
</svg>
