<svg width="142" height="21" viewBox="0 0 142 21" fill="none" xmlns="http://www.w3.org/2000/svg">
<path d="M7.66943 0H13.2173V5.54786H7.66943V0Z" fill="#B61F24"/>
<path d="M17.874 2.61084L20.8899 7.26739L16.2333 10.2832L13.2175 5.62668L17.874 2.61084Z" fill="#B61F24"/>
<path d="M3.01562 2.61084L-0.000214271 7.26739L4.65633 10.2832L7.67217 5.62668L3.01562 2.61084Z" fill="#B61F24"/>
<path d="M20.8716 13.2468L17.9049 17.9349L13.2169 14.9682L16.1835 10.2802L20.8716 13.2468Z" fill="#B61F24"/>
<path d="M0.0175781 13.2468L2.98422 17.9349L7.67227 14.9682L4.70562 10.2802L0.0175781 13.2468Z" fill="#B61F24"/>
<path d="M13.2168 20.5596L7.66894 20.5596L7.66894 15.0117L13.2168 15.0117L13.2168 20.5596Z" fill="#B61F24"/>
<path d="M38.6925 17.9488L32.8795 11.3607V17.9488H29.0449V3.42649H32.8795V9.66783L38.5293 3.42649H43.0166L36.5916 10.3205L43.2409 17.9488H38.6925Z" fill="black"/>
<path d="M44.3638 3.42649H54.7253V6.36359H48.0964V9.09673H54.297V12.0338H48.0964V15.0117H54.7253V17.9488H44.3638V3.42649Z" fill="black"/>
<path d="M70.5839 3.42649V17.9488H67.7488L61.1607 9.70862V17.9488H57.5913V3.42649H60.3856L66.9737 11.6259V3.42649H70.5839Z" fill="black"/>
<path d="M77.3887 6.52676H73.0646V3.42649H85.5881V6.52676H81.264V17.9488H77.3887V6.52676Z" fill="black"/>
<path d="M95.948 14.9505H89.5027L88.2177 17.9488H84.3831L91.1752 3.42649H94.1939L101.006 17.9488H97.2329L95.948 14.9505ZM94.7038 12.0746L92.7253 7.4854L90.7468 12.0746H94.7038Z" fill="black"/>
<path d="M104.123 6.52676H99.7984V3.42649H112.322V6.52676H107.998V17.9488H104.123V6.52676Z" fill="black"/>
<path d="M119.668 18.1324C118.58 18.1324 117.506 17.9896 116.445 17.7041C115.384 17.4185 114.521 17.031 113.855 16.5415L115.058 13.8287C115.765 14.2774 116.513 14.6242 117.302 14.8689C118.104 15.1001 118.906 15.2157 119.708 15.2157C120.524 15.2157 121.15 15.1069 121.585 14.8893C122.02 14.6582 122.238 14.3386 122.238 13.9307C122.238 13.5636 122.04 13.2644 121.646 13.0333C121.252 12.7885 120.511 12.5505 119.423 12.3194C118.049 12.0474 116.982 11.7143 116.221 11.32C115.459 10.912 114.922 10.4361 114.609 9.89219C114.31 9.34828 114.16 8.6888 114.16 7.91373C114.16 7.02988 114.412 6.23441 114.915 5.52733C115.418 4.80665 116.125 4.24915 117.036 3.85482C117.947 3.44689 118.988 3.24292 120.157 3.24292C121.204 3.24292 122.217 3.39249 123.196 3.69164C124.189 3.9772 124.964 4.35793 125.521 4.83385L124.338 7.54659C123.699 7.09787 123.026 6.75792 122.319 6.52676C121.612 6.282 120.905 6.15963 120.198 6.15963C119.504 6.15963 118.947 6.2956 118.525 6.56756C118.104 6.82591 117.893 7.17945 117.893 7.62818C117.893 7.87293 117.968 8.0769 118.117 8.24007C118.267 8.40324 118.546 8.56642 118.954 8.72959C119.362 8.87916 119.973 9.04234 120.789 9.21911C122.108 9.50466 123.142 9.8514 123.89 10.2593C124.651 10.6537 125.188 11.1228 125.501 11.6667C125.814 12.197 125.97 12.8361 125.97 13.584C125.97 14.9981 125.419 16.1131 124.318 16.929C123.217 17.7313 121.666 18.1324 119.668 18.1324Z" fill="black"/>
<path d="M135.411 18.1324C133.29 18.1324 131.685 17.6021 130.598 16.5415C129.51 15.4672 128.966 13.8967 128.966 11.8299V3.42649H132.698V11.9726C132.698 13.0197 132.93 13.8219 133.392 14.3794C133.868 14.9369 134.541 15.2157 135.411 15.2157C136.268 15.2157 136.927 14.9369 137.39 14.3794C137.852 13.8083 138.083 13.0061 138.083 11.9726V3.42649H141.856V11.8299C141.856 13.8695 141.299 15.4333 140.184 16.5211C139.083 17.5953 137.492 18.1324 135.411 18.1324Z" fill="black"/>
</svg>
