<svg width="136" height="28" viewBox="0 0 136 28" fill="none" xmlns="http://www.w3.org/2000/svg">
<path d="M15.4801 27.8111C11.7404 27.8111 8.00071 27.7874 4.23735 27.8347C3.43261 27.8347 3.14858 27.6927 3.17225 26.817C3.21959 24.5684 3.17225 24.5684 5.39713 24.5684C9.53919 24.5684 13.6813 24.5447 17.8233 24.5921C18.6281 24.5921 18.9831 24.3317 19.2908 23.6217C21.5867 18.2251 23.9062 12.8523 26.2495 7.47944C26.3678 7.21908 26.4861 6.9824 26.5808 6.72204C26.7465 6.27233 27.1015 6.296 27.4566 6.31967C27.9299 6.367 27.8589 6.72204 27.8589 7.02973C27.8589 8.02383 27.8589 8.99426 27.8589 9.98835C27.8589 15.5506 27.8353 21.1127 27.8826 26.6513C27.8826 27.5507 27.7169 27.8584 26.7465 27.8347C22.9595 27.7637 19.2198 27.8111 15.4801 27.8111Z" fill="#76C047"/>
<path d="M12.3552 0.0236632C16.1422 0.0236632 19.9292 0.0473379 23.7163 0C24.5447 0 24.7814 0.236689 24.7577 1.0651C24.734 3.17164 24.7577 3.17163 22.6275 3.17163C18.4854 3.17163 14.3434 3.1953 10.2013 3.14796C9.30189 3.1243 8.92319 3.45566 8.59182 4.26041C6.29594 9.70426 3.95271 15.1008 1.60949 20.521C1.53848 20.7103 1.42014 20.876 1.3728 21.0653C1.20712 21.5861 0.804743 21.5387 0.402371 21.4914C-0.0473386 21.444 0.0236668 21.0653 0.0236668 20.7577C0.0236668 19.6215 0.0236668 18.4618 0.0236668 17.3257C0.0236668 11.9291 0.0473379 6.53262 0 1.13611C0 0.236686 0.236689 0.0236632 1.11244 0.0236632C4.8758 0.0473321 8.61549 0.0236632 12.3552 0.0236632Z" fill="#76C047"/>
<path d="M54.4658 14.2539C54.4658 12.0764 54.4895 9.92253 54.4421 7.74499C54.4185 6.96391 54.5841 6.63254 55.4599 6.65621C59.1286 6.70355 62.7973 6.70355 66.4659 6.65621C67.2707 6.65621 67.46 6.8929 67.46 7.67397C67.46 9.82784 67.4837 9.82785 65.2825 9.82785C63.46 9.82785 61.6611 9.87518 59.8386 9.80417C58.9156 9.75684 58.6315 10.0882 58.7499 10.9403C58.7972 11.2007 58.7735 11.4847 58.7499 11.7687C58.6789 12.4551 58.9866 12.6445 59.6493 12.6208C61.8978 12.5971 64.1464 12.6445 66.3949 12.5971C67.2233 12.5735 67.389 12.8575 67.389 13.6149C67.389 15.7688 67.4127 15.7687 65.2115 15.7687C63.389 15.7687 61.5901 15.8161 59.7676 15.7451C59.0102 15.7214 58.7499 15.9108 58.7499 16.7155C58.7735 18.7747 58.7262 18.7747 60.8091 18.7747C62.7736 18.7747 64.7618 18.7984 66.7263 18.751C67.389 18.7274 67.602 18.9404 67.602 19.6268C67.6494 21.899 67.6731 21.899 65.4245 21.899C62.1582 21.899 58.8682 21.8753 55.6019 21.9227C54.7025 21.9463 54.3711 21.757 54.4185 20.7629C54.5131 18.609 54.4658 16.4315 54.4658 14.2539Z" fill="#5A5A5A"/>
<path d="M74.7741 15.7691C73.1883 15.7691 71.6262 15.7691 70.0403 15.7691C69.6853 15.7691 69.2829 15.9111 69.1883 15.272C68.7622 12.5738 70.4901 8.83409 72.8806 7.57964C73.9457 7.01158 75.0818 6.75122 76.2889 6.72755C77.9458 6.70388 79.6026 6.72756 81.2594 6.68022C81.8748 6.65655 82.0642 6.86956 82.0878 7.48496C82.1825 9.82818 82.2062 9.82819 79.8629 9.82819C78.8452 9.82819 77.8038 9.78084 76.786 9.85185C75.5552 9.89919 74.4664 10.3252 73.8037 11.4613C73.3067 12.3608 73.4723 12.6211 74.4901 12.6211C77.5671 12.6211 80.644 12.6685 83.721 12.5975C84.6677 12.5738 84.8571 12.8815 84.7861 13.7336C84.5967 15.9111 84.3127 18.065 82.7742 19.7691C81.4724 21.2129 79.7683 21.781 77.8984 21.8283C75.2712 21.923 72.6203 21.852 69.9693 21.8757C69.4486 21.8757 69.2119 21.7573 69.1883 21.1656C69.0462 18.7277 69.0226 18.7514 71.4605 18.7277C73.283 18.7277 75.0818 18.7514 76.9043 18.7277C78.3718 18.704 79.6026 18.207 80.289 16.7632C80.5967 16.1004 80.6204 15.6744 79.6499 15.6981C77.9931 15.7928 76.3836 15.7691 74.7741 15.7691Z" fill="#5A5A5A"/>
<path d="M91.3199 15.7688C89.7104 15.7688 88.0772 15.7688 86.4677 15.7688C86.16 15.7688 85.7813 15.9344 85.663 15.3427C85.0476 12.2658 87.4145 8.1237 90.3731 7.1296C91.0122 6.91658 91.6749 6.77457 92.3376 6.7509C94.1601 6.6799 95.959 6.70356 97.7815 6.65622C98.3259 6.63255 98.5152 6.79824 98.5626 7.36629C98.7046 9.80419 98.7282 9.80419 96.314 9.80419C95.3199 9.80419 94.3495 9.78052 93.3554 9.80419C92.0773 9.85152 90.9412 10.2302 90.2784 11.4373C89.7577 12.3841 89.8761 12.5735 90.9412 12.5735C94.0181 12.5735 97.0951 12.6208 100.172 12.5498C101.071 12.5261 101.379 12.8101 101.261 13.6859C101.142 14.538 101.119 15.4137 100.929 16.2658C100.196 19.7215 98.0655 21.615 94.5152 21.8043C91.7932 21.9464 89.0713 21.8517 86.3494 21.8753C85.876 21.8753 85.6867 21.7807 85.6393 21.2363C85.4736 18.7511 85.45 18.7511 87.9589 18.7511C89.7814 18.7511 91.5802 18.7747 93.4027 18.7511C95.1542 18.7274 96.4323 17.8753 96.8821 16.5735C97.0951 15.9581 96.9767 15.7214 96.2903 15.7451C94.6335 15.7924 92.9767 15.7688 91.3199 15.7688Z" fill="#5A5A5A"/>
<path d="M40.124 14.254C40.124 12.0055 40.1476 9.75691 40.1003 7.50836C40.1003 6.84563 40.2896 6.5616 40.976 6.63261C42.0885 6.75095 43.5323 6.15923 44.266 6.8693C44.9051 7.48469 44.4317 8.90483 44.4317 9.94626C44.4554 12.5498 44.4554 15.1534 44.4317 17.757C44.408 18.5144 44.5974 18.7748 45.4021 18.7748C47.698 18.7274 49.9702 18.7984 52.2661 18.7274C53.1419 18.7038 53.4022 18.9404 53.4022 19.8399C53.3549 21.8754 53.4022 21.8754 51.3667 21.8754C48.0057 21.8754 44.6684 21.8517 41.3074 21.8991C40.408 21.9227 40.0766 21.686 40.1003 20.7393C40.1713 18.5854 40.124 16.4315 40.124 14.254Z" fill="#5A5A5A"/>
<path d="M131.131 21.8516C132.433 21.4492 133.782 21.7569 135.107 21.6622C133.782 22.1593 132.456 21.8043 131.131 21.8516Z" fill="#9E9E9E"/>
<path fill-rule="evenodd" clip-rule="evenodd" d="M129.032 18.6837C129.66 19.7807 130.288 20.8787 131.131 21.8519C131.768 21.7361 132.416 21.7563 133.068 21.7767C133.747 21.7979 134.43 21.8192 135.107 21.6863C134.539 20.7277 133.965 19.7632 133.391 18.7986C132.817 17.8341 132.243 16.8696 131.675 15.911C134.468 14.6329 135.462 13.0708 135.131 10.5855C134.847 8.57367 133.403 7.20087 130.705 6.8695C128.515 6.59174 126.314 6.64107 124.11 6.69047C123.121 6.71263 122.132 6.73481 121.142 6.72748C120.554 6.72748 120.605 7.12252 120.648 7.46219C120.659 7.54647 120.669 7.62734 120.669 7.69792C120.645 11.3193 120.645 14.9406 120.669 18.5619C120.676 18.8913 120.633 19.2576 120.591 19.6239C120.492 20.4685 120.394 21.3137 120.906 21.7099C121.351 22.0631 122.105 22.0078 122.877 21.9513C123.295 21.9207 123.718 21.8897 124.101 21.9229C124.882 21.9939 125 21.6626 124.977 20.9762C124.93 19.5165 124.953 18.0802 124.976 16.6208L124.977 16.5974C124.977 16.5414 124.971 16.4825 124.966 16.4229C124.943 16.1806 124.919 15.9257 125.261 15.7927C126.042 15.485 127.296 15.911 127.793 16.6448C128.241 17.3031 128.636 17.9932 129.032 18.6837ZM126.445 12.6211H127.392C127.666 12.611 127.936 12.6139 128.204 12.6168C128.559 12.6207 128.91 12.6245 129.261 12.5975C130.043 12.5265 130.776 12.2898 130.847 11.343C130.918 10.3726 130.185 10.0412 129.427 9.94655C128.847 9.89499 128.267 9.88555 127.691 9.87617C127.209 9.86833 126.73 9.86054 126.256 9.82821C125.309 9.7572 124.835 9.99388 124.93 11.1063C124.937 11.1968 124.943 11.2818 124.949 11.3618C125.043 12.6211 125.043 12.6211 126.445 12.6211Z" fill="#5A5A5A"/>
<path d="M120.171 21.5677C117.757 16.8339 115.319 12.1238 112.928 7.39C112.644 6.84561 112.289 6.67992 111.721 6.70359C110.585 6.72726 109.425 6.75093 108.289 6.70359C107.555 6.65625 107.153 6.89294 106.822 7.55567C105.307 10.5853 103.768 13.5912 102.206 16.5972C101.331 18.325 100.431 20.0529 99.4844 21.899C100.762 21.899 101.828 21.8517 102.869 21.9227C103.508 21.9464 103.863 21.757 104.147 21.1653C104.881 19.6032 105.733 18.0883 106.49 16.5262C106.774 15.9581 107.106 15.7215 107.745 15.7451C109.165 15.7925 110.585 15.8161 112.005 15.7451C112.715 15.7215 113.047 16.0055 113.331 16.5972C114.088 18.1593 114.893 19.6742 115.674 21.2126C115.863 21.5677 115.982 21.899 116.502 21.899C117.709 21.8517 118.917 21.899 120.124 21.899C120.171 21.7097 120.195 21.615 120.171 21.5677ZM108.668 12.5735C108.905 11.6504 109.425 10.893 109.946 9.8989C110.443 10.893 110.822 11.6741 111.272 12.5735C110.325 12.5735 109.52 12.5735 108.668 12.5735Z" fill="#5A5A5A"/>
</svg>
