<svg width="99" height="38" viewBox="0 0 99 38" fill="none" xmlns="http://www.w3.org/2000/svg">
<path d="M45.3886 18.5576V32.1482H48.6044V18.5576H45.3886ZM39.6002 13.3773H36.2925C35.925 13.3773 35.9862 13.7125 35.9862 13.7125C36.0475 14.1391 36.1394 14.84 36.1394 16.3027C36.1394 19.5327 35.7412 24.1645 32.1885 28.583L31.9435 28.8877C31.9435 28.8877 29.7997 14.0172 29.769 13.743C29.769 13.743 29.769 13.4078 29.4628 13.4078H26.1245C25.8182 13.4078 25.8182 13.743 25.8182 13.743C25.7263 15.4494 24.7769 29.7714 14.272 32.0873C16.5077 32.3311 19.2029 31.6302 21.5611 30.198C24.4706 28.4001 26.4307 25.7491 27.0739 22.7018C27.0739 22.7018 28.3602 30.6856 28.5133 32.5139V32.6358L28.4215 32.6967C25.4813 34.2508 22.143 35.104 18.8047 35.104C10.5355 35.104 3.21579 30.2285 0 22.7933C1.89885 31.5388 9.73925 37.9075 18.8966 37.9075C29.5853 37.9075 35.9556 29.0096 37.0582 22.6714C37.0582 22.6714 38.4976 31.9045 38.5282 32.2092H42.9078C42.8466 31.813 39.937 14.0782 39.9064 13.8039C39.9064 13.8039 39.9064 13.4687 39.6002 13.4687V13.3773ZM2.57263 21.1477C2.57263 11.3966 10.8418 3.47384 20.9792 3.47384C27.2576 3.47384 33.1073 6.61248 36.5069 11.7013C34.0261 4.75367 27.1045 0 19.356 0C9.3411 0 1.19444 7.77043 1.19444 17.3082C1.19444 19.9289 1.83759 22.4885 3.03203 24.8349C2.75639 23.6465 2.57263 22.3971 2.57263 21.1782V21.1477ZM79.3228 20.5078C78.159 19.1671 76.5358 18.4662 74.5757 18.4662C72.585 18.4662 70.9005 19.1061 69.5529 20.3859C68.236 21.6353 67.5622 23.3113 67.5622 25.3834C67.5622 27.425 68.2054 29.0705 69.4917 30.2894C70.778 31.5083 72.6462 32.1178 74.9738 32.1178C79.5066 32.1178 80.4866 29.0096 80.8541 28.004L79.6903 27.6383C78.649 29.5276 76.3214 29.6495 74.9432 29.5581C73.9632 29.4971 73.075 29.162 72.3706 28.6744C71.6662 28.1564 71.1761 27.425 70.9618 26.2976L70.9005 25.871H81.0685C81.0379 23.6465 80.456 21.8486 79.3228 20.5383V20.5078ZM71.1455 23.9512C70.9924 23.9512 70.9924 23.7988 70.9924 23.7379C71.1149 22.9456 71.4212 22.3362 71.9724 21.7877C72.585 21.1477 73.5344 20.7821 74.5451 20.7821C75.4639 20.7821 76.1989 21.0563 76.8421 21.5744C77.3627 22.0314 77.7302 22.6714 77.9446 23.5551C77.9753 23.6465 78.0365 23.9207 77.7915 23.9207H71.1455V23.9512ZM89.5521 18.4052C85.6931 18.4052 84.3149 20.7516 83.8862 21.8486C83.8862 21.8791 83.733 22.2448 83.733 22.2448L85.0194 22.6714C85.0194 22.6714 85.8463 20.2945 89.1233 20.4469C92.431 20.5688 92.0328 23.2808 92.0328 23.7074C90.1953 23.1589 87.592 23.2199 85.8769 23.9817C83.733 24.9568 83.3961 26.907 83.488 28.3392C83.5799 30.4723 85.4788 31.9654 87.9289 32.0873C90.134 32.2092 91.1141 31.7216 92.0328 30.8379L92.0022 32.0873H94.9117V28.522V24.134V23.3722V22.7323C94.973 21.1173 93.8398 18.3748 89.5521 18.3748V18.4052ZM92.0022 28.9486C92.0022 29.162 91.941 29.3143 91.7572 29.4057C91.2059 29.68 90.0421 30.0457 88.6027 29.9542C87.102 29.8323 86.5201 28.7658 86.4282 28.3087C86.3976 28.1259 86.0607 26.1452 87.9901 25.5358C89.2458 25.1396 90.8384 25.3834 91.696 25.6272C91.941 25.6881 92.0022 25.8405 92.0022 26.1452V28.9791V28.9486ZM48.39 13.3773H45.7255C45.3273 13.3773 45.3886 13.7735 45.3886 13.7735C45.3886 14.2001 45.3886 16.2112 45.3886 16.6379H48.6656V13.743C48.6656 13.743 48.6962 13.4078 48.3594 13.4078L48.39 13.3773ZM64.7446 13.3773H62.0188C61.7432 13.3773 61.7432 13.682 61.7432 13.682V19.2585L61.345 19.0452C60.9162 18.8319 60.4875 18.6795 60.0281 18.5881C59.5687 18.4967 59.0174 18.4662 58.4049 18.4662C56.261 18.4662 54.5153 19.0756 53.229 20.325C51.9733 21.5439 51.2995 23.3113 51.2995 25.4748C51.2995 27.3946 51.8508 29.0096 52.9227 30.2894C53.9946 31.5388 55.5566 32.1787 57.6086 32.1787C60.5487 32.1787 61.7125 30.4113 61.7125 30.4113V32.1178H65.0202V28.9182C65.0202 25.3224 65.0202 13.7125 65.0202 13.7125C65.0202 13.7125 65.0202 13.3773 64.7446 13.3773ZM61.5594 28.4306C61.2531 28.7049 60.855 28.9182 60.365 29.101C59.8443 29.3143 59.2318 29.4057 58.558 29.4057C57.4554 29.4057 56.5673 29.0401 55.9241 28.3087C55.281 27.5774 54.9747 26.5109 54.9747 25.0787C54.9747 23.6769 55.281 22.6409 55.8629 22.001C56.4754 21.3306 57.3942 20.9954 58.6193 20.9954C59.2624 20.9954 59.8749 21.0868 60.4262 21.3001C60.9162 21.4829 61.2838 21.6658 61.5594 21.9096C61.6513 22.001 61.7432 22.1533 61.7432 22.3666V27.9431C61.7432 28.1564 61.6513 28.3087 61.5594 28.4001V28.4306Z" fill="#00A6EA"/>
<path d="M96.9048 11.1216C95.7716 11.1216 94.9141 11.9748 94.9141 13.1023C94.9141 14.1993 95.7716 15.083 96.9048 15.083C98.038 15.083 98.8955 14.2298 98.8955 13.1023C98.8955 12.0053 98.038 11.1216 96.9048 11.1216ZM96.9048 11.3958C97.8542 11.3958 98.5892 12.1576 98.5892 13.1023C98.5892 14.0469 97.8848 14.8087 96.9048 14.8087C95.9554 14.8087 95.2203 14.0469 95.2203 13.1023C95.2203 12.1576 95.9247 11.3958 96.9048 11.3958ZM96.476 13.2242H96.966L97.6092 14.2298H97.9461L97.2723 13.2242C97.5786 13.1632 97.8542 12.9804 97.8542 12.5843C97.8542 12.1881 97.6398 11.9443 97.1192 11.9443H96.231V14.2298H96.5066V13.2242H96.476ZM96.476 12.9804V12.1881H96.9967C97.2723 12.1881 97.5479 12.2491 97.5479 12.5843C97.5479 12.9804 97.2111 12.9804 96.8742 12.9804H96.5066H96.476Z" fill="#00A6EA"/>
</svg>
