<svg width="111" height="33" viewBox="0 0 111 33" fill="none" xmlns="http://www.w3.org/2000/svg">
<path d="M12.3395 32.0608H0L6.17052 21.3737H18.51L12.3395 32.0608Z" fill="#D92929"/>
<path d="M24.679 32.0608H37.0208L30.8511 21.3737H18.5093L24.679 32.0608Z" fill="#D92929"/>
<path d="M24.6791 10.687L18.5094 -8.78438e-05L12.3389 10.687L18.5094 21.3733L24.6791 10.687Z" fill="#D92929"/>
<path d="M42.5614 27.5114H47.5038V25.7192H42.5614V23.5144H48.1217V21.7214H42.5614H40.4668V23.5144V30.2685V32.0608H42.5614H48.2678V30.2685H42.5614V27.5114Z" fill="#333333"/>
<path d="M42.4172 12.3132L44.6125 19.9978H44.7H46.5384H46.6243L48.8205 12.3132V19.9978H50.7713V9.65995H49.7072H48.7877H47.7837L45.6196 16.9164L43.4547 9.65995H42.4508H41.5304H40.4663V19.9978H42.4172V12.3132Z" fill="#333333"/>
<path d="M90.0091 9.65967H87.9263V19.9975H90.0091V9.65967Z" fill="#333333"/>
<path d="M91.7086 21.7209H89.6265V32.0612H91.7086V21.7209Z" fill="#333333"/>
<path d="M110.607 9.65967H108.525V19.9975H110.607V9.65967Z" fill="#333333"/>
<path d="M53.684 9.65967H51.6011V19.9975H53.684V9.65967Z" fill="#333333"/>
<path d="M105.615 13.6924H101.476V9.66025H99.4263V19.9973H101.476V15.4847H105.615V19.9973H107.664V9.66025H105.615V13.6924Z" fill="#333333"/>
<path d="M56.7641 19.9978H58.8916V11.4506H61.4174V9.65995H58.8916H56.7641H54.2383V11.4506H56.7641V19.9978Z" fill="#333333"/>
<path d="M75.7613 32.0608H77.8856V23.5144H80.4123V21.7206H77.8856H75.7613H73.2339V23.5144H75.7613V32.0608Z" fill="#333333"/>
<path d="M74.338 20.2854C76.9905 20.2854 78.4624 19.0783 78.4624 16.7704V9.66004H76.3803V16.9587C76.3803 17.847 75.6318 18.59 74.338 18.59C72.7724 18.59 72.3114 17.7134 72.3114 16.9587V9.66004H70.2637V16.7704C70.2637 19.2549 71.8059 20.2854 74.338 20.2854Z" fill="#333333"/>
<path d="M58.5982 27.5114H63.5429V25.7192H58.5982V23.5144H64.1601V21.7214H58.5982H56.5044V23.5144V30.2685V32.0608H58.5982H64.3054V30.2685H58.5982V27.5114Z" fill="#333333"/>
<path d="M83.864 11.3017C84.4328 11.3017 85.0688 11.8306 85.0688 12.526C85.0688 13.1455 84.6242 13.8276 83.7476 13.8276H81.2678V11.3017H83.864ZM83.7101 18.4348H81.2678V15.437H83.6859C84.5562 15.437 85.2922 15.937 85.2922 16.9394C85.2922 17.7879 84.6242 18.4348 83.7101 18.4348ZM81.3483 19.9973H84.3328C86.2774 19.9973 87.4376 18.834 87.4376 17.2066C87.4376 15.8909 86.4829 14.762 85.4438 14.5026C86.3524 14.2713 87.0821 13.344 87.0821 12.2025C87.0821 10.6783 85.9555 9.66025 83.8601 9.66025H81.3483H79.2084H79.1982V19.9973H79.2084H81.3483Z" fill="#333333"/>
<path d="M83.0173 26.3126V23.4993H85.5384C86.3892 23.4993 86.9565 24.0962 86.9565 24.9126C86.9565 25.4868 86.4525 26.3126 85.6002 26.3126H83.0173ZM87.1674 27.097C88.0541 26.8299 89.0065 26.0345 89.0065 24.5993C89.0065 22.761 87.7612 21.7062 85.6423 21.7062H83.0173H80.943H80.9219V32.0457H83.0173V27.9713H84.7947C85.8705 27.9713 86.4549 28.5291 86.6314 29.2659C86.8244 30.0784 86.7752 31.2894 86.983 32.0457H89.0878C88.8831 31.2542 88.7628 30.1776 88.7175 29.3276C88.6417 27.9283 87.9057 27.3705 87.1674 27.097Z" fill="#333333"/>
<path d="M51.0343 21.7211H48.9404V30.2682V32.0613H51.0343H55.9079V30.2682H51.0343V21.7211Z" fill="#333333"/>
<path d="M64.913 15.6286C66.5912 15.9215 67.5451 16.2309 67.5451 17.2325C67.5451 17.9107 66.8732 18.5537 65.4818 18.5537C64.0895 18.5537 63.3762 17.7622 63.3762 16.8231H61.3691C61.3691 18.6208 62.534 20.2646 65.5724 20.2646C68.4647 20.2646 69.7186 18.7341 69.7186 16.9864C69.7186 15.3575 68.6506 14.3238 66.7404 13.9488C64.906 13.5886 63.6466 13.5105 63.6466 12.348C63.6466 11.5495 64.3771 11.0776 65.499 11.0776C66.6935 11.0776 67.3787 11.6644 67.3787 12.6558H69.4014C69.4014 11.0245 68.1655 9.34553 65.4162 9.34553C63.52 9.34553 61.5527 10.4378 61.5527 12.4808C61.5527 14.198 62.8137 15.2614 64.913 15.6286Z" fill="#333333"/>
<path d="M94.0613 15.6286C95.7379 15.9215 96.691 16.2309 96.691 17.2325C96.691 17.9107 96.0215 18.5537 94.6292 18.5537C93.2378 18.5537 92.5221 17.7622 92.5221 16.8231H90.5166C90.5166 18.6208 91.6807 20.2646 94.7183 20.2646C97.6106 20.2646 98.8653 18.7341 98.8653 16.9864C98.8653 15.3575 97.7981 14.3238 95.8887 13.9488C94.0527 13.5886 92.7948 13.5105 92.7948 12.348C92.7948 11.5495 93.5237 11.0776 94.6472 11.0776C95.8387 11.0776 96.5254 11.6644 96.5254 12.6558H98.5489C98.5489 11.0245 97.3121 9.34553 94.5636 9.34553C92.6659 9.34553 90.6986 10.4378 90.6986 12.4808C90.6986 14.198 91.962 15.2614 94.0613 15.6286Z" fill="#333333"/>
<path d="M69.0185 30.4637C67.3341 30.4637 66.3512 28.8136 66.3512 26.8487C66.3512 24.883 67.2997 23.2306 69.0185 23.2306C70.2967 23.2306 70.953 24.0267 71.2373 24.9986H73.4062C73.0507 22.9751 71.4678 21.4712 68.9591 21.4712C65.7965 21.4712 64.1973 23.8916 64.1973 26.8776C64.1973 29.8636 65.8622 32.2825 68.9591 32.2825C71.4381 32.2825 73.1116 30.8418 73.4187 28.6331H71.2373C70.953 29.6722 70.274 30.4637 69.0185 30.4637Z" fill="#333333"/>
<path d="M97.0354 30.4637C95.3518 30.4637 94.3689 28.8136 94.3689 26.8487C94.3689 24.883 95.3158 23.2306 97.0354 23.2306C98.3151 23.2306 98.9714 24.0267 99.2542 24.9986H101.423C101.067 22.9751 99.4847 21.4712 96.9753 21.4712C93.8119 21.4712 92.2134 23.8916 92.2134 26.8776C92.2134 29.8636 93.8783 32.2825 96.9753 32.2825C99.455 32.2825 101.128 30.8418 101.436 28.6331H99.2542C98.9714 29.6722 98.2894 30.4637 97.0354 30.4637Z" fill="#333333"/>
</svg>
