<svg width="110" height="20" viewBox="0 0 110 20" fill="none" xmlns="http://www.w3.org/2000/svg">
<path d="M86.0397 18.8457C85.8504 19.0891 85.4988 19.1162 85.2824 19.3055C85.093 19.2514 84.9037 19.2785 84.6873 19.2785C79.9539 19.2785 75.2205 19.2785 70.4871 19.2785C70.2978 19.2785 70.0814 19.3055 69.8921 19.2514C69.3782 19.0891 68.8913 18.8457 68.4856 18.4941C68.2421 18.2506 67.9987 18.0343 67.7823 17.7638C67.62 17.6556 67.62 17.4392 67.4848 17.304C67.3766 17.0605 67.2414 16.8441 67.1332 16.6007C66.8086 15.7893 66.6463 14.9508 66.6734 14.0852C66.7004 11.4886 66.6734 8.91907 66.6734 6.32247C66.6734 6.18723 66.5652 5.97085 66.8086 5.88971C68.4585 5.88971 70.0814 5.88971 71.7313 5.88971C71.8395 5.88971 71.9477 5.86266 72.0559 5.9438C72.0559 7.9724 72.0289 10.001 72.0289 12.0296C72.0289 12.4624 72.0289 12.8681 72.0289 13.3009C72.0559 14.1664 72.5157 14.6262 73.3542 14.6262C76.2483 14.6262 79.1425 14.6262 82.0366 14.6262C82.821 14.6262 83.1997 14.2475 83.1997 13.4631C83.1997 11.0288 83.1997 8.62155 83.1997 6.18723C83.1997 5.8897 83.1456 5.59217 82.9292 5.37579C82.7128 5.02416 82.3882 4.97007 82.0366 4.97007C80.7654 4.97007 79.4941 4.97007 78.2229 4.97007C74.5443 4.97007 70.8387 4.97007 67.1602 4.97007C66.9979 4.97007 66.7816 5.02417 66.6463 4.88893C66.5381 4.51025 66.6193 4.13159 66.5922 3.77997C66.5922 2.91443 66.5922 2.04888 66.5922 1.18335C66.5922 0.966964 66.6193 0.75059 66.2947 0.939926C65.1857 2.26528 64.1038 3.59063 62.9948 4.91598C62.8325 5.13237 62.6162 5.10531 62.3727 5.10531C58.3967 5.10531 54.4206 5.10531 50.4446 5.10531C50.3364 5.10531 50.2552 5.10531 50.147 5.10531C49.7413 5.05121 49.6061 5.24055 49.6331 5.64627C49.6602 6.02494 49.6602 6.40361 49.6331 6.78229C49.6061 7.16096 49.7413 7.2962 50.12 7.32325C52.1486 7.43144 54.2042 7.53963 56.2328 7.67487C57.991 7.78306 59.722 7.83716 61.4801 7.99945C63.7251 8.21583 65.321 9.35185 66.1324 11.4886C66.2135 11.7321 66.2947 11.9755 66.2947 12.2189C66.2947 13.2738 66.3217 14.3287 66.2947 15.3835C66.2135 17.304 65.1857 18.5752 63.3194 19.0891C62.9678 19.1973 62.6162 19.3055 62.2375 19.2785C61.8588 19.4137 61.426 19.4137 61.0474 19.3867C60.6146 19.3596 60.2089 19.3596 59.7761 19.3596C48.443 19.3596 37.0829 19.3596 25.7497 19.3596C25.5334 19.3596 25.2899 19.4137 25.1006 19.2785C23.64 19.1432 22.6392 18.3859 21.9901 17.1146C21.5844 16.3302 21.395 15.4647 21.395 14.5721C21.395 11.137 21.395 7.70192 21.395 4.26683C21.395 2.96852 21.7466 1.8325 22.7745 0.966967C23.3966 0.453056 24.1539 0.236681 24.9113 0.0473455C25.1006 -0.00675044 25.2899 0.0202876 25.5063 0.0202876C30.2668 0.0202876 35.0272 0.0202876 39.7606 0.0202876C40.7614 -0.0338083 41.3835 0.615347 41.9515 1.29155C42.5736 2.02184 42.9252 2.88738 43.2227 3.77997C43.2768 3.99635 43.2768 4.18568 43.2768 4.40207C43.2768 7.24211 43.2768 10.0821 43.2768 12.9222C43.2768 13.0304 43.2768 13.1115 43.2768 13.2197C43.2498 13.6795 43.1416 13.8148 42.7088 13.8148C41.2482 13.8418 39.7877 13.8418 38.3271 13.8148C37.8943 13.8148 37.7861 13.6795 37.7591 13.2468C37.732 12.4083 37.7591 11.5968 37.7591 10.7583C37.7591 9.43299 37.7591 8.1347 37.7591 6.80934C37.7591 5.3758 37.2992 4.91598 35.8657 4.91598C33.4584 4.91598 31.0782 4.91598 28.6709 4.91598C28.4275 4.91598 28.157 4.94303 27.9136 4.99712C27.2103 5.15941 26.8046 5.67332 26.8046 6.43067C26.7776 7.40439 26.8046 8.37813 26.8046 9.3789C26.8046 10.4879 26.8046 11.5968 26.8046 12.7058C26.8046 13.7877 27.2915 14.2746 28.3734 14.2746C32.8904 14.2746 37.4345 14.2746 41.9515 14.2746C42.1949 14.2746 42.4654 14.2746 42.7088 14.2746C43.1416 14.3016 43.2498 14.4098 43.2768 14.8426C43.3039 15.5729 43.2768 16.3302 43.2768 17.0605C43.2768 17.1687 43.2768 17.2769 43.2768 17.3851C43.2768 17.4933 43.2498 17.6015 43.358 17.6556C43.4932 17.7097 43.5744 17.6015 43.6285 17.5203C44.1965 16.8171 44.7104 16.0598 45.2513 15.3295C46.2792 13.9771 45.8735 14.1934 47.4422 14.1934C51.6888 14.1664 55.9623 14.1934 60.2089 14.1934C60.3712 14.1934 60.5335 14.1934 60.7228 14.1934C61.1285 14.1664 61.2367 14.0582 61.2638 13.6525C61.2638 13.4902 61.2638 13.355 61.2638 13.1927C61.2638 12.841 61.0744 12.6787 60.7498 12.6787C58.9106 12.6246 57.0713 12.4624 55.2321 12.3271C52.6354 12.1107 50.0388 11.9485 47.4693 11.4345C45.8464 11.11 44.6022 10.1903 43.7096 8.81088C43.4391 8.37812 43.2768 7.9183 43.2768 7.37734C43.2768 6.24133 43.2498 5.10532 43.2768 3.9693C43.3039 1.9948 44.8186 0.344867 46.766 0.0743869C46.9013 0.0473389 46.9013 0.0743836 47.1718 0.0202876C47.2259 0.0202876 47.2259 0.0202876 47.2529 0.0202876C47.9021 0.0473356 47.6857 0.0202876 47.902 0.0202876C60.0736 0.0202876 72.2452 0.0202876 84.4168 0.0202876C84.6332 0.0202876 84.8767 -0.0608596 85.066 0.101428C86.202 0.398956 86.9864 1.12926 87.5815 2.10299C87.6626 2.26527 87.7437 2.42757 87.8249 2.56281C87.9872 2.86033 88.0413 3.21195 88.1765 3.53653C88.2577 3.67177 88.2036 3.83406 88.2036 3.99635C88.2036 7.59373 88.1765 11.1911 88.2036 14.7885C88.2036 15.7081 88.0142 16.5466 87.5544 17.3581C87.3921 17.5203 87.2569 17.7097 87.1757 17.9261C86.9323 18.2236 86.4995 18.5752 86.0397 18.8457Z" fill="#C82B32"/>
<path d="M109.518 0.128585C109.545 1.53508 109.572 2.94158 109.518 4.37512C109.382 4.51036 109.22 4.45626 109.085 4.45626C107.137 4.45626 105.19 4.45626 103.243 4.45626C102.566 4.45626 102.566 4.45625 102.566 5.1054C102.566 9.56832 102.566 14.0042 102.566 18.4671C102.566 18.6024 102.566 18.7106 102.566 18.8458C102.593 19.1704 102.458 19.3056 102.134 19.3056C101.836 19.2785 101.511 19.3056 101.214 19.3056C99.4558 19.3056 97.6977 19.3056 95.9125 19.3056C95.7773 19.3056 95.6962 19.2245 95.6962 19.0892C95.6962 18.981 95.6962 18.8728 95.6962 18.7646C95.6962 14.1665 95.6962 9.56833 95.6962 4.94312C95.6962 4.78084 95.7773 4.61854 95.615 4.4833C93.5323 4.45626 91.4496 4.4833 89.3669 4.4833C88.8801 4.4833 88.853 4.48331 88.853 3.99644C88.853 2.86043 88.853 1.69736 88.853 0.561346C88.853 0.23677 88.9342 0.101527 89.2858 0.101527C95.9125 0.101527 102.539 0.101527 109.166 0.101527C109.274 0.0474308 109.409 -0.00665531 109.518 0.128585Z" fill="#C82B32"/>
<path d="M0 4.29365C0 2.9142 0 1.56182 0 0.18237C0.108192 -0.0340134 0.324577 0.0471306 0.486865 0.0471306C4.57111 0.0471306 8.65536 0.0471306 12.7667 0.0471306C15.2551 0.0471306 17.7164 0.0471306 20.2048 0.0471306C20.6647 0.0471306 20.6917 0.0471173 20.6917 0.506933C20.6917 1.67 20.6917 2.83307 20.6917 3.99613C20.6917 4.32071 20.5835 4.42889 20.2589 4.42889C18.2574 4.40184 16.2558 4.42889 14.2543 4.42889C13.7133 4.42889 13.7133 4.4289 13.7133 4.94281C13.7133 9.48687 13.7133 14.058 13.7133 18.602C13.7133 18.7914 13.7404 19.0078 13.6592 19.17C13.551 19.2512 13.4158 19.2512 13.3076 19.2512C11.3061 19.2512 9.27746 19.2512 7.27591 19.2512C7.14067 19.2512 7.03248 19.2782 6.92428 19.1971C6.84314 19.0348 6.89724 18.8725 6.89724 18.7102C6.89724 14.1391 6.89724 9.56802 6.89724 4.99691C6.89724 4.4289 6.89724 4.42889 6.32923 4.42889C4.38178 4.42889 2.43432 4.42889 0.486865 4.42889C0.297529 4.42889 0.108192 4.48299 0 4.29365Z" fill="#C82B32"/>
<path d="M86.0391 18.8454C86.4716 18.4939 86.8771 18.1695 87.3096 17.8181C86.9582 18.2777 86.5797 18.6561 86.0391 18.8454Z" fill="#C82B32"/>
<path d="M67.8091 17.7368C68.1069 17.9263 68.3506 18.17 68.513 18.4679C68.2152 18.2783 67.9986 18.0346 67.8091 17.7368Z" fill="#C82B32"/>
<path d="M67.1606 16.574C67.3502 16.7906 67.4585 17.0342 67.5126 17.2779C67.3231 17.0884 67.1877 16.8447 67.1606 16.574Z" fill="#C82B32"/>
</svg>
