<svg width="77" height="12" viewBox="0 0 77 12" fill="none" xmlns="http://www.w3.org/2000/svg">
<path d="M4.1582 0H7.16634V3.00813H4.1582V0Z" fill="#B61F24"/>
<path d="M9.69141 1.41553L11.3266 3.94038L8.80179 5.57561L7.16656 3.05076L9.69141 1.41553Z" fill="#B61F24"/>
<path d="M1.63525 1.41553L2.04828e-05 3.94038L2.52487 5.57561L4.1601 3.05076L1.63525 1.41553Z" fill="#B61F24"/>
<path d="M11.3169 7.1825L9.70834 9.72442L7.16641 8.11587L8.77497 5.57394L11.3169 7.1825Z" fill="#B61F24"/>
<path d="M0.00927734 7.1825L1.61784 9.72442L4.15976 8.11587L2.55121 5.57394L0.00927734 7.1825Z" fill="#B61F24"/>
<path d="M7.1665 11.1478L4.15837 11.1478L4.15837 8.13969L7.1665 8.13969L7.1665 11.1478Z" fill="#B61F24"/>
<path d="M20.9796 9.73219L17.8277 6.16003V9.73219H15.7485V1.85796H17.8277V5.24211L20.8911 1.85796H23.3242L19.8405 5.596L23.4458 9.73219H20.9796Z" fill="black"/>
<path d="M24.0547 1.85796H29.6728V3.4505H26.0785V4.93245H29.4406V6.52499H26.0785V8.13965H29.6728V9.73219H24.0547V1.85796Z" fill="black"/>
<path d="M38.2716 1.85796V9.73219H36.7344L33.1622 5.26422V9.73219H31.2268V1.85796H32.7419L36.3141 6.3038V1.85796H38.2716Z" fill="black"/>
<path d="M41.9613 3.53897H39.6167V1.85796H46.4071V3.53897H44.0625V9.73219H41.9613V3.53897Z" fill="black"/>
<path d="M52.0244 8.10647H48.5296L47.8329 9.73219H45.7537L49.4365 1.85796H51.0733L54.7671 9.73219H52.7211L52.0244 8.10647ZM51.3498 6.5471L50.277 4.05876L49.2042 6.5471H51.3498Z" fill="black"/>
<path d="M56.4567 3.53897H54.1122V1.85796H60.9026V3.53897H58.558V9.73219H56.4567V3.53897Z" fill="black"/>
<path d="M64.8855 9.83172C64.2957 9.83172 63.7132 9.7543 63.1381 9.59947C62.563 9.44464 62.0949 9.23452 61.7336 8.96909L62.3861 7.49821C62.7695 7.74151 63.175 7.92952 63.6026 8.06223C64.0376 8.18757 64.4726 8.25024 64.9076 8.25024C65.35 8.25024 65.6891 8.19126 65.9251 8.07329C66.161 7.94795 66.279 7.77469 66.279 7.5535C66.279 7.35443 66.1721 7.19223 65.9582 7.06689C65.7444 6.93418 65.3426 6.80516 64.7528 6.67982C64.0081 6.53236 63.4293 6.35172 63.0165 6.13791C62.6036 5.91672 62.3124 5.65867 62.1428 5.36376C61.9806 5.06884 61.8995 4.71126 61.8995 4.29101C61.8995 3.81177 62.0359 3.38046 62.3087 2.99707C62.5815 2.6063 62.9649 2.30402 63.4588 2.0902C63.9528 1.86902 64.5168 1.75842 65.1509 1.75842C65.7186 1.75842 66.2679 1.83952 66.7987 2.00173C67.337 2.15656 67.7572 2.363 68.0595 2.62105L67.4181 4.09194C67.0715 3.84863 66.7066 3.66431 66.3232 3.53897C65.9398 3.40626 65.5564 3.3399 65.173 3.3399C64.797 3.3399 64.4947 3.41363 64.2662 3.56109C64.0376 3.70118 63.9233 3.89287 63.9233 4.13617C63.9233 4.26889 63.9639 4.37948 64.045 4.46795C64.1261 4.55643 64.2772 4.6449 64.4984 4.73338C64.7196 4.81448 65.0514 4.90295 65.4937 4.9988C66.2089 5.15363 66.7693 5.34164 67.1748 5.56283C67.5876 5.77664 67.8789 6.031 68.0485 6.32592C68.218 6.61346 68.3028 6.95999 68.3028 7.36549C68.3028 8.13227 68.0042 8.73685 67.407 9.17922C66.8098 9.61422 65.9693 9.83172 64.8855 9.83172Z" fill="black"/>
<path d="M73.4219 9.83172C72.2717 9.83172 71.4017 9.54418 70.8119 8.96909C70.2221 8.38664 69.9272 7.53507 69.9272 6.41439V1.85796H71.951V6.49181C71.951 7.05952 72.0763 7.49452 72.327 7.79681C72.5851 8.09909 72.95 8.25024 73.4219 8.25024C73.8864 8.25024 74.244 8.09909 74.4946 7.79681C74.7453 7.48715 74.8707 7.05215 74.8707 6.49181V1.85796H76.9166V6.41439C76.9166 7.52032 76.6143 8.3682 76.0098 8.95803C75.4126 9.54049 74.5499 9.83172 73.4219 9.83172Z" fill="black"/>
</svg>
