<svg width="141" height="39" viewBox="0 0 141 39" fill="none" xmlns="http://www.w3.org/2000/svg">
<path fill-rule="evenodd" clip-rule="evenodd" d="M11.5 2.95035V12.7492L18.6879 19.9669L25.8757 12.7492V2.95035C25.8757 1.98362 25.0947 1.19995 24.1328 1.19995H13.243C12.2804 1.19995 11.5 1.98362 11.5 2.95035Z" fill="#50E3C2"/>
<mask id="mask0" mask-type="alpha" maskUnits="userSpaceOnUse" x="18" y="12" width="20" height="16">
<path d="M18.6885 12.7493H37.3758V27.1855H18.6885V12.7493Z" fill="white"/>
</mask>
<g mask="url(#mask0)">
<path fill-rule="evenodd" clip-rule="evenodd" d="M25.8756 12.7493L18.6885 19.967L25.8756 27.1855H35.6329C36.5956 27.1855 37.3759 26.4018 37.3759 25.4358V14.4989C37.3759 13.5322 36.5956 12.7493 35.6329 12.7493H25.8756Z" fill="#33C6A5"/>
</g>
<path fill-rule="evenodd" clip-rule="evenodd" d="M11.5001 12.7493H1.74274C0.780108 12.7493 0.000488281 13.5322 0.000488281 14.4989V25.4358C0.000488281 26.4018 0.780108 27.1855 1.74274 27.1855H11.5001L18.6879 19.967L11.5001 12.7493Z" fill="#009B77"/>
<path fill-rule="evenodd" clip-rule="evenodd" d="M25.8758 27.1853L18.6886 19.9675L11.5 27.1853V36.9848C11.5 37.9516 12.2811 38.7345 13.243 38.7345H24.1328C25.0954 38.7345 25.8758 37.9516 25.8758 36.9848V27.1853Z" fill="#8168F0"/>
<path fill-rule="evenodd" clip-rule="evenodd" d="M46.9081 29.895C46.8897 30.3515 46.8327 30.7429 46.7361 31.0686C46.6394 31.3931 46.522 31.6536 46.3844 31.849H48.3078V28.7215H46.968L46.9081 29.895ZM49.3414 33.2581H48.8234V32.2799H45.9885V33.261H45.4676L45.4653 31.849H45.7876C45.8331 31.7978 45.8883 31.7245 45.9534 31.6286C46.0184 31.5326 46.0811 31.4076 46.1416 31.2518C46.2026 31.0965 46.2555 30.9075 46.3004 30.6853C46.3453 30.4644 46.3729 30.1998 46.3815 29.895L46.4684 28.2888H48.8315V31.849H49.3466L49.3414 33.2581Z" fill="#4B4B4C"/>
<path fill-rule="evenodd" clip-rule="evenodd" d="M53.3643 30.1556C53.3643 29.9178 53.3402 29.7073 53.2924 29.5247C53.2446 29.3426 53.1744 29.1891 53.0823 29.0647C52.9902 28.9402 52.8774 28.846 52.7445 28.7826C52.6116 28.7181 52.4608 28.6867 52.2927 28.6867C52.1316 28.6867 51.9854 28.7181 51.8536 28.7826C51.7213 28.846 51.609 28.9402 51.5158 29.0647C51.4226 29.1891 51.3506 29.3426 51.3 29.5247C51.2493 29.7073 51.224 29.9178 51.224 30.1556V30.4127C51.224 30.6523 51.2499 30.8634 51.3017 31.046C51.3529 31.2291 51.4254 31.3827 51.5198 31.5077C51.6136 31.6333 51.727 31.7275 51.8588 31.7915C51.9906 31.856 52.1373 31.888 52.2979 31.888C52.4683 31.888 52.619 31.856 52.7514 31.7915C52.8832 31.7275 52.9948 31.6333 53.0864 31.5077C53.1773 31.3827 53.2463 31.2291 53.2935 31.046C53.3407 30.8634 53.3643 30.6523 53.3643 30.4127V30.1556ZM53.8823 30.4127C53.8823 30.7127 53.8449 30.9808 53.7701 31.2175C53.6947 31.4542 53.5888 31.6554 53.4512 31.8217C53.3137 31.9881 53.1474 32.1148 52.9523 32.2032C52.7566 32.2905 52.5385 32.3347 52.2979 32.3347C52.0648 32.3347 51.8507 32.2905 51.6551 32.2032C51.46 32.1148 51.2919 31.9881 51.1509 31.8217C51.0099 31.6554 50.9006 31.4542 50.8223 31.2175C50.7446 30.9808 50.7061 30.7127 50.7061 30.4127V30.1609C50.7061 29.8631 50.7446 29.595 50.8223 29.3566C50.9006 29.1182 51.0088 28.9152 51.148 28.7495C51.2873 28.5831 51.4548 28.4552 51.6499 28.3668C51.845 28.2778 52.0596 28.2336 52.2927 28.2336C52.5333 28.2336 52.752 28.2778 52.9477 28.3668C53.1439 28.4552 53.3114 28.5831 53.4495 28.7495C53.5882 28.9152 53.6947 29.1182 53.7701 29.3566C53.8449 29.595 53.8823 29.8631 53.8823 30.1609V30.4127Z" fill="#4B4B4C"/>
<path fill-rule="evenodd" clip-rule="evenodd" d="M58.5131 31.0135C58.4912 31.202 58.4458 31.377 58.3761 31.5381C58.3065 31.7003 58.2104 31.8399 58.0872 31.958C57.9641 32.0754 57.8144 32.1679 57.6372 32.2348C57.4599 32.3017 57.2527 32.3348 57.0156 32.3348C56.7825 32.3348 56.5707 32.2906 56.3808 32.2034C56.1915 32.1156 56.0292 31.9911 55.8945 31.8289C55.7593 31.6672 55.6557 31.473 55.5826 31.2462C55.5089 31.0205 55.4727 30.767 55.4727 30.4878V30.0872C55.4727 29.808 55.5095 29.5539 55.5837 29.3271C55.658 29.0991 55.7639 28.9043 55.9008 28.7432C56.0384 28.581 56.2053 28.4559 56.4015 28.367C56.5978 28.2786 56.8176 28.2344 57.0622 28.2344C57.2844 28.2344 57.4818 28.2669 57.6533 28.3332C57.8254 28.3989 57.971 28.4908 58.0912 28.6083C58.2115 28.7264 58.3071 28.8671 58.3778 29.0305C58.4481 29.1939 58.4935 29.3748 58.5131 29.5719H57.9894C57.9698 29.4329 57.9387 29.3079 57.8973 29.1962C57.8559 29.0852 57.7983 28.9904 57.7252 28.9113C57.6521 28.8328 57.5612 28.7723 57.4524 28.7304C57.3442 28.6886 57.2142 28.6676 57.0622 28.6676C56.8867 28.6676 56.7325 28.7014 56.5995 28.7706C56.4666 28.8386 56.3555 28.9345 56.2657 29.0584C56.1765 29.1817 56.1092 29.33 56.0637 29.5045C56.0188 29.6795 55.9958 29.8714 55.9958 30.0813V30.4878C55.9958 30.6832 56.0165 30.8664 56.0568 31.0386C56.0977 31.2101 56.1598 31.3607 56.2427 31.4892C56.3261 31.6178 56.4315 31.7195 56.5598 31.7934C56.6887 31.8678 56.8407 31.9045 57.0156 31.9045C57.1819 31.9045 57.3224 31.8841 57.4363 31.8446C57.5503 31.8039 57.6446 31.7463 57.72 31.6701C57.7949 31.5945 57.853 31.5015 57.895 31.3904C57.9364 31.2799 57.9681 31.1543 57.9894 31.0135H58.5131Z" fill="#4B4B4C"/>
<path fill-rule="evenodd" clip-rule="evenodd" d="M62.8184 28.7215H61.5488V32.2793H61.0309V28.7215H59.7642V28.2888H62.8184V28.7215Z" fill="#4B4B4C"/>
<path fill-rule="evenodd" clip-rule="evenodd" d="M64.8179 30.8046H66.1605L65.4878 28.9384L64.8179 30.8046ZM66.3153 31.2378H64.6608L64.289 32.2793H63.7515L65.2599 28.2888H65.7157L67.2264 32.2793H66.6923L66.3153 31.2378Z" fill="#4B4B4C"/>
<path fill-rule="evenodd" clip-rule="evenodd" d="M69.2235 30.4131V31.8495H70.0833C70.2082 31.8495 70.3187 31.8326 70.4154 31.7989C70.512 31.7646 70.5938 31.7175 70.6611 31.6564C70.7279 31.5948 70.7791 31.5198 70.8142 31.4314C70.8493 31.343 70.8671 31.2441 70.8671 31.1342C70.8671 31.0249 70.8527 30.9248 70.824 30.8359C70.7946 30.7457 70.7491 30.6695 70.6864 30.6079C70.6243 30.5463 70.5454 30.498 70.4493 30.4643C70.3538 30.43 70.2398 30.4131 70.1075 30.4131H69.2235ZM69.2235 29.9909H70.0102C70.1224 29.9909 70.2243 29.9764 70.3164 29.9473C70.409 29.9176 70.4879 29.8757 70.554 29.8211C70.6197 29.7664 70.6709 29.699 70.7071 29.6199C70.7434 29.5402 70.7612 29.4506 70.7612 29.35C70.7612 29.1302 70.6979 28.9715 70.5713 28.8714C70.4453 28.772 70.2525 28.722 69.9935 28.722H69.2235V29.9909ZM68.7026 32.2798V28.2893H69.9935C70.1961 28.2893 70.3768 28.3097 70.5362 28.3504C70.6956 28.3917 70.8303 28.4556 70.9419 28.5423C71.053 28.6295 71.1382 28.7394 71.1969 28.8732C71.2556 29.0063 71.2849 29.1657 71.2849 29.3524C71.2849 29.539 71.2326 29.7036 71.1278 29.8472C71.0225 29.9903 70.8798 30.102 70.6991 30.1805C70.809 30.2113 70.9074 30.2567 70.9932 30.3171C71.0795 30.377 71.1514 30.4491 71.2101 30.5311C71.2688 30.6137 71.3137 30.7056 71.3448 30.808C71.3753 30.9097 71.3908 31.0173 71.3908 31.1284C71.3908 31.3151 71.3592 31.4802 71.297 31.6233C71.2349 31.7669 71.1462 31.8873 71.0329 31.985C70.9189 32.0827 70.7814 32.1565 70.6202 32.206C70.4591 32.2554 70.2801 32.2798 70.0833 32.2798H68.7026Z" fill="#4B4B4C"/>
<path fill-rule="evenodd" clip-rule="evenodd" d="M75.5958 28.2888H76.1166V32.2793H75.5958V29.2042L73.6511 32.2793H73.1274V28.2888H73.6511V31.364L75.5958 28.2888Z" fill="#4B4B4C"/>
<path fill-rule="evenodd" clip-rule="evenodd" d="M80.6602 28.7215H79.3906V32.2793H78.8727V28.7215H77.606V28.2888H80.6602V28.7215Z" fill="#4B4B4C"/>
<path fill-rule="evenodd" clip-rule="evenodd" d="M85.5897 30.0294C85.7382 30.0294 85.8654 30.0132 85.9725 29.98C86.0789 29.9469 86.1658 29.9009 86.2326 29.8416C86.2993 29.7817 86.3488 29.7119 86.3805 29.6299C86.4121 29.5491 86.4283 29.4595 86.4283 29.3607C86.4283 29.2659 86.411 29.1757 86.3765 29.092C86.3419 29.0077 86.2896 28.9338 86.2194 28.871C86.1486 28.8076 86.0582 28.7582 85.9477 28.7216C85.8378 28.6849 85.7066 28.6669 85.5546 28.6669C85.4407 28.6669 85.3342 28.6843 85.2346 28.7175C85.1351 28.7518 85.0488 28.7983 84.9757 28.8571C84.902 28.917 84.8444 28.9879 84.8019 29.0699C84.7593 29.1519 84.738 29.242 84.738 29.3386H84.2171C84.2171 29.1688 84.2528 29.0152 84.3242 28.878C84.3955 28.7407 84.4922 28.625 84.6131 28.5302C84.7345 28.4349 84.8761 28.3622 85.0378 28.3104C85.1995 28.2592 85.3722 28.2336 85.5546 28.2336C85.7664 28.2336 85.9581 28.2581 86.1296 28.3063C86.3011 28.3546 86.4478 28.4273 86.5693 28.5227C86.6901 28.6186 86.7839 28.7373 86.8495 28.878C86.9157 29.0187 86.9485 29.1821 86.9485 29.3682C86.9485 29.5532 86.8927 29.7212 86.7805 29.8724C86.6688 30.0248 86.5123 30.144 86.3114 30.2324C86.537 30.3086 86.7103 30.4255 86.8294 30.5813C86.9485 30.7377 87.0084 30.9331 87.0084 31.1663C87.0084 31.353 86.9721 31.5193 86.8996 31.6641C86.8277 31.8095 86.7275 31.9316 86.5986 32.0299C86.4703 32.1288 86.3172 32.2038 86.1394 32.2561C85.9609 32.3085 85.7664 32.3347 85.5546 32.3347C85.3849 32.3347 85.2162 32.312 85.0499 32.2672C84.8836 32.2224 84.7345 32.1526 84.6027 32.0584C84.4704 31.9648 84.3639 31.8444 84.2827 31.6984C84.201 31.5519 84.1602 31.3769 84.1602 31.1722H84.681C84.681 31.2728 84.7017 31.3676 84.7437 31.4571C84.7852 31.5467 84.8444 31.6246 84.921 31.6915C84.9981 31.7583 85.0902 31.8107 85.1978 31.8491C85.3054 31.8874 85.424 31.9072 85.5546 31.9072C85.7025 31.9072 85.8349 31.888 85.9506 31.852C86.0663 31.8153 86.1641 31.7642 86.2435 31.6996C86.3229 31.6351 86.3834 31.5583 86.4254 31.4699C86.4668 31.3809 86.4875 31.2832 86.4875 31.178C86.4875 30.9308 86.411 30.75 86.2585 30.6348C86.1054 30.5197 85.8827 30.4621 85.5897 30.4621H85.1397V30.0294H85.5897Z" fill="#4B4B4C"/>
<path fill-rule="evenodd" clip-rule="evenodd" d="M89.3257 30.8046H90.6683L89.9956 28.9384L89.3257 30.8046ZM90.8232 31.2378H89.1686L88.7968 32.2793H88.2593L89.7677 28.2888H90.2235L91.7342 32.2793H91.2001L90.8232 31.2378Z" fill="#4B4B4C"/>
<path fill-rule="evenodd" clip-rule="evenodd" d="M94.2357 30.4873H93.7557V32.2796H93.2349V28.2891H93.7557V30.0482H94.1626L95.5432 28.2891H96.1913L94.6834 30.2238L96.3023 32.2796H95.6652L94.2357 30.4873Z" fill="#4B4B4C"/>
<path fill-rule="evenodd" clip-rule="evenodd" d="M98.4077 30.8046H99.7504L99.0776 28.9384L98.4077 30.8046ZM99.9052 31.2378H98.2506L97.8788 32.2793H97.3413L98.8497 28.2888H99.3055L100.817 32.2793H100.282L99.9052 31.2378Z" fill="#4B4B4C"/>
<path fill-rule="evenodd" clip-rule="evenodd" d="M103.481 30.0294C103.629 30.0294 103.757 30.0132 103.863 29.98C103.97 29.9469 104.056 29.9009 104.123 29.8416C104.19 29.7817 104.239 29.7119 104.271 29.6299C104.303 29.5491 104.319 29.4595 104.319 29.3607C104.319 29.2659 104.302 29.1757 104.267 29.092C104.233 29.0077 104.181 28.9338 104.11 28.871C104.04 28.8076 103.949 28.7582 103.839 28.7216C103.728 28.6849 103.597 28.6669 103.445 28.6669C103.331 28.6669 103.225 28.6843 103.125 28.7175C103.026 28.7518 102.94 28.7983 102.866 28.8571C102.793 28.917 102.735 28.9879 102.693 29.0699C102.65 29.1519 102.629 29.242 102.629 29.3386H102.108C102.108 29.1688 102.144 29.0152 102.215 28.878C102.287 28.7407 102.383 28.625 102.504 28.5302C102.626 28.4349 102.767 28.3622 102.928 28.3104C103.09 28.2592 103.263 28.2336 103.445 28.2336C103.657 28.2336 103.849 28.2581 104.02 28.3063C104.192 28.3546 104.338 28.4273 104.46 28.5227C104.581 28.6186 104.674 28.7373 104.74 28.878C104.807 29.0187 104.84 29.1821 104.84 29.3682C104.84 29.5532 104.784 29.7212 104.671 29.8724C104.559 30.0248 104.403 30.144 104.202 30.2324C104.428 30.3086 104.601 30.4255 104.72 30.5813C104.84 30.7377 104.899 30.9331 104.899 31.1663C104.899 31.353 104.863 31.5193 104.791 31.6641C104.718 31.8095 104.618 31.9316 104.49 32.0299C104.361 32.1288 104.208 32.2038 104.03 32.2561C103.852 32.3085 103.657 32.3347 103.445 32.3347C103.275 32.3347 103.107 32.312 102.941 32.2672C102.774 32.2224 102.626 32.1526 102.493 32.0584C102.361 31.9648 102.254 31.8444 102.173 31.6984C102.092 31.5519 102.051 31.3769 102.051 31.1722H102.572C102.572 31.2728 102.593 31.3676 102.634 31.4571C102.676 31.5467 102.735 31.6246 102.812 31.6915C102.889 31.7583 102.981 31.8107 103.088 31.8491C103.197 31.8874 103.315 31.9072 103.445 31.9072C103.594 31.9072 103.726 31.888 103.842 31.852C103.957 31.8153 104.055 31.7642 104.135 31.6996C104.213 31.6351 104.274 31.5583 104.316 31.4699C104.357 31.3809 104.379 31.2832 104.379 31.178C104.379 30.9308 104.302 30.75 104.149 30.6348C103.997 30.5197 103.774 30.4621 103.481 30.4621H103.03V30.0294H103.481Z" fill="#4B4B4C"/>
<path fill-rule="evenodd" clip-rule="evenodd" d="M109.357 30.3498V31.849H110.309C110.454 31.849 110.578 31.8281 110.682 31.7862C110.786 31.7437 110.871 31.6879 110.937 31.6164C111.003 31.5454 111.051 31.4634 111.082 31.371C111.113 31.2791 111.128 31.1826 111.128 31.082C111.128 30.9813 111.113 30.8866 111.082 30.7982C111.051 30.7092 111.003 30.6318 110.937 30.565C110.871 30.4987 110.786 30.4457 110.682 30.4079C110.578 30.369 110.454 30.3498 110.309 30.3498H109.357ZM111.261 28.7215H109.357V29.9171H110.309C110.526 29.9171 110.718 29.945 110.885 30.0003C111.053 30.0561 111.193 30.1352 111.306 30.2376C111.419 30.3399 111.504 30.4626 111.564 30.6057C111.622 30.7493 111.651 30.9098 111.651 31.0878C111.651 31.2622 111.622 31.4239 111.564 31.5699C111.504 31.7158 111.418 31.8414 111.305 31.9467C111.191 32.052 111.05 32.1334 110.884 32.1921C110.718 32.2508 110.526 32.2793 110.309 32.2793H108.833V28.2888H111.261V28.7215Z" fill="#4B4B4C"/>
<path fill-rule="evenodd" clip-rule="evenodd" d="M116.616 32.2799H117.137V28.2894H116.616V32.2799ZM113.844 30.3498V31.8496H114.796C114.94 31.8496 115.065 31.8281 115.169 31.7862C115.272 31.7443 115.358 31.6879 115.424 31.6164C115.49 31.5454 115.538 31.4634 115.569 31.371C115.6 31.2791 115.615 31.1826 115.615 31.082C115.615 30.9813 115.6 30.8866 115.569 30.7982C115.538 30.7098 115.49 30.6324 115.424 30.5655C115.358 30.4987 115.272 30.4457 115.169 30.4079C115.065 30.3696 114.94 30.3498 114.796 30.3498H113.844ZM113.844 29.9171H114.796C115.013 29.9171 115.205 29.945 115.372 30.0009C115.54 30.0567 115.679 30.1352 115.793 30.2376C115.906 30.3405 115.991 30.4632 116.051 30.6063C116.109 30.7499 116.139 30.9098 116.139 31.0878C116.139 31.2628 116.109 31.4239 116.051 31.5699C115.991 31.7158 115.906 31.842 115.792 31.9467C115.677 32.052 115.537 32.134 115.371 32.1921C115.205 32.2508 115.013 32.2799 114.796 32.2799H113.323V28.2888H113.844V29.9171Z" fill="#4B4B4C"/>
<path fill-rule="evenodd" clip-rule="evenodd" d="M121.952 31.0135C121.93 31.202 121.885 31.377 121.815 31.5381C121.746 31.7003 121.649 31.8399 121.526 31.958C121.403 32.0754 121.253 32.1679 121.076 32.2348C120.898 32.3017 120.692 32.3348 120.455 32.3348C120.221 32.3348 120.01 32.2906 119.82 32.2034C119.63 32.1156 119.468 31.9911 119.333 31.8289C119.198 31.6672 119.094 31.473 119.021 31.2462C118.947 31.0205 118.911 30.767 118.911 30.4878V30.0872C118.911 29.808 118.948 29.5539 119.022 29.3271C119.096 29.0991 119.202 28.9043 119.34 28.7432C119.477 28.581 119.644 28.4559 119.84 28.367C120.036 28.2786 120.257 28.2344 120.501 28.2344C120.723 28.2344 120.92 28.2669 121.092 28.3332C121.264 28.3989 121.41 28.4908 121.53 28.6083C121.651 28.7264 121.746 28.8671 121.816 29.0305C121.887 29.1939 121.932 29.3748 121.952 29.5719H121.428C121.409 29.4329 121.378 29.3079 121.336 29.1962C121.294 29.0852 121.237 28.9904 121.164 28.9113C121.091 28.8328 121 28.7723 120.891 28.7304C120.783 28.6886 120.653 28.6676 120.501 28.6676C120.325 28.6676 120.171 28.7014 120.039 28.7706C119.905 28.8386 119.794 28.9345 119.705 29.0584C119.615 29.1817 119.548 29.33 119.502 29.5045C119.457 29.6795 119.435 29.8714 119.435 30.0813V30.4878C119.435 30.6832 119.455 30.8664 119.495 31.0386C119.537 31.2101 119.598 31.3607 119.682 31.4892C119.765 31.6178 119.871 31.7195 119.999 31.7934C120.127 31.8678 120.279 31.9045 120.455 31.9045C120.621 31.9045 120.761 31.8841 120.875 31.8446C120.989 31.8039 121.083 31.7463 121.159 31.6701C121.233 31.5945 121.292 31.5015 121.333 31.3904C121.375 31.2799 121.407 31.1543 121.428 31.0135H121.952Z" fill="#4B4B4C"/>
<path fill-rule="evenodd" clip-rule="evenodd" d="M126.257 28.7215H124.988V32.2793H124.47V28.7215H123.203V28.2888H126.257V28.7215Z" fill="#4B4B4C"/>
<path fill-rule="evenodd" clip-rule="evenodd" d="M128.308 30.287H129.244C129.397 30.287 129.527 30.2678 129.637 30.2294C129.745 30.191 129.835 30.1375 129.905 30.0695C129.974 30.0009 130.025 29.9195 130.058 29.8252C130.091 29.731 130.107 29.6275 130.107 29.5141C130.107 29.4118 130.091 29.3123 130.058 29.217C130.025 29.121 129.974 29.0367 129.905 28.9634C129.835 28.8901 129.745 28.8314 129.637 28.7878C129.527 28.7442 129.397 28.7221 129.244 28.7221H128.308V30.287ZM128.308 30.7173V32.2799H127.788V28.2888H129.244C129.469 28.2888 129.667 28.3191 129.838 28.3795C130.01 28.4394 130.155 28.5243 130.271 28.6331C130.388 28.7418 130.476 28.8704 130.537 29.0192C130.598 29.1681 130.628 29.3309 130.628 29.5089C130.628 29.7002 130.598 29.8718 130.537 30.0224C130.476 30.1736 130.388 30.2998 130.271 30.4021C130.155 30.5045 130.01 30.583 129.838 30.6371C129.667 30.6906 129.469 30.7173 129.244 30.7173H128.308Z" fill="#4B4B4C"/>
<path fill-rule="evenodd" clip-rule="evenodd" d="M134.756 30.1556C134.756 29.9178 134.733 29.7073 134.684 29.5247C134.637 29.3426 134.567 29.1891 134.474 29.0647C134.382 28.9402 134.269 28.846 134.137 28.7826C134.004 28.7181 133.853 28.6867 133.685 28.6867C133.524 28.6867 133.377 28.7181 133.246 28.7826C133.114 28.846 133.001 28.9402 132.908 29.0647C132.815 29.1891 132.743 29.3426 132.692 29.5247C132.641 29.7073 132.616 29.9178 132.616 30.1556V30.4127C132.616 30.6523 132.642 30.8634 132.694 31.046C132.746 31.2291 132.818 31.3827 132.912 31.5077C133.006 31.6333 133.119 31.7275 133.251 31.7915C133.383 31.856 133.529 31.888 133.69 31.888C133.86 31.888 134.012 31.856 134.144 31.7915C134.275 31.7275 134.387 31.6333 134.479 31.5077C134.57 31.3827 134.639 31.2291 134.686 31.046C134.733 30.8634 134.756 30.6523 134.756 30.4127V30.1556ZM135.274 30.4127C135.274 30.7127 135.237 30.9808 135.162 31.2175C135.087 31.4542 134.981 31.6554 134.843 31.8217C134.706 31.9881 134.539 32.1148 134.344 32.2032C134.149 32.2905 133.93 32.3347 133.69 32.3347C133.457 32.3347 133.243 32.2905 133.048 32.2032C132.852 32.1148 132.684 31.9881 132.543 31.8217C132.402 31.6554 132.293 31.4542 132.215 31.2175C132.137 30.9808 132.099 30.7127 132.099 30.4127V30.1609C132.099 29.8631 132.137 29.595 132.215 29.3566C132.293 29.1182 132.401 28.9152 132.54 28.7495C132.68 28.5831 132.847 28.4552 133.042 28.3668C133.238 28.2778 133.452 28.2336 133.685 28.2336C133.926 28.2336 134.144 28.2778 134.34 28.3668C134.536 28.4552 134.703 28.5831 134.842 28.7495C134.981 28.9152 135.087 29.1182 135.162 29.3566C135.237 29.595 135.274 29.8631 135.274 30.1609V30.4127Z" fill="#4B4B4C"/>
<path fill-rule="evenodd" clip-rule="evenodd" d="M50.8658 19.7239H46.7871V17.8072H50.0802C50.5337 17.8072 50.7547 17.5955 50.7547 17.1593V16.5348C50.7547 16.0986 50.5337 15.8863 50.0802 15.8863H46.7871V14.0842H50.7167C51.1794 14.0842 51.4045 13.8719 51.4045 13.4357V12.8112C51.4045 12.3814 51.1731 12.1633 50.7167 12.1633H45.3415C44.8851 12.1633 44.6543 12.3814 44.6543 12.8112V20.9963C44.6543 21.4325 44.8787 21.6447 45.3415 21.6447H50.8658C51.3193 21.6447 51.5397 21.4325 51.5397 20.9963V20.3717C51.5397 19.9356 51.3193 19.7239 50.8658 19.7239Z" fill="#58595B"/>
<path fill-rule="evenodd" clip-rule="evenodd" d="M79.9784 12.1604H73.6139C73.1604 12.1604 72.9399 12.3721 72.9399 12.8082V13.4328C72.9399 13.869 73.1604 14.0812 73.6139 14.0812H75.73V20.9934C75.73 21.429 75.9499 21.6418 76.4039 21.6418H77.1884C77.6419 21.6418 77.8629 21.429 77.8629 20.9934V14.0812H79.9784C80.4319 14.0812 80.6524 13.869 80.6524 13.4328V12.8082C80.6524 12.3721 80.4319 12.1604 79.9784 12.1604Z" fill="#58595B"/>
<path fill-rule="evenodd" clip-rule="evenodd" d="M88.9142 19.7207H84.8356V17.804H88.1286C88.5821 17.804 88.8026 17.5923 88.8026 17.1562V16.5316C88.8026 16.0954 88.5821 15.8832 88.1286 15.8832H84.8356V14.081H88.7652C89.2279 14.081 89.4529 13.8687 89.4529 13.4326V12.808C89.4529 12.3782 89.2215 12.1602 88.7652 12.1602H83.3899C82.9335 12.1602 82.7021 12.3782 82.7021 12.808V20.9931C82.7021 21.4293 82.9272 21.6416 83.3899 21.6416H88.9142C89.3677 21.6416 89.5881 21.4293 89.5881 20.9931V20.3686C89.5881 19.9324 89.3677 19.7207 88.9142 19.7207Z" fill="#58595B"/>
<path fill-rule="evenodd" clip-rule="evenodd" d="M97.8878 17.7789C97.5494 17.1526 97.1327 16.6879 96.6493 16.3977L96.5785 16.3553L96.6309 16.2913L99.4238 12.9306C99.5631 12.759 99.6005 12.57 99.5257 12.4119C99.4808 12.3182 99.3582 12.1606 99.0417 12.1606H98.175C97.5971 12.1606 97.3721 12.2211 97.0878 12.598L94.4307 15.8959H94.0284V12.8085C94.0284 12.3723 93.808 12.1606 93.3545 12.1606H92.5822C92.1264 12.1606 91.895 12.3787 91.895 12.8085V20.9936C91.895 21.424 92.1264 21.642 92.5822 21.642H93.3545C93.808 21.642 94.0284 21.4298 94.0284 20.9936V17.7783H94.5055C94.9015 17.7783 95.2232 17.8312 95.4114 17.9272C95.5846 18.0394 95.7653 18.2616 95.927 18.5558L97.2939 21.1413C97.5102 21.5664 97.7733 21.642 98.4046 21.642H99.1901C99.4244 21.642 99.5844 21.5711 99.6649 21.4333C99.7478 21.2908 99.7288 21.1082 99.6074 20.8901L97.8878 17.7789Z" fill="#58595B"/>
<path fill-rule="evenodd" clip-rule="evenodd" d="M112.864 19.5552H112.769C111.991 19.5552 111.688 19.8442 111.688 20.5857V20.7002C111.688 21.4417 111.991 21.7307 112.769 21.7307H112.864C113.641 21.7307 113.943 21.4417 113.943 20.7002V20.5857C113.943 19.8442 113.641 19.5552 112.864 19.5552Z" fill="#58595B"/>
<path fill-rule="evenodd" clip-rule="evenodd" d="M133.849 12.1604H133.077C132.623 12.1604 132.403 12.3721 132.403 12.8082V18.3288C132.403 19.3796 131.774 19.9117 130.531 19.9117C129.29 19.9117 128.66 19.3796 128.66 18.3288V12.8082C128.66 12.3721 128.44 12.1604 127.986 12.1604H127.2C126.747 12.1604 126.526 12.3721 126.526 12.8082V18.316C126.526 19.3953 126.897 20.2897 127.597 20.9021C128.293 21.5104 129.308 21.8325 130.531 21.8325C131.751 21.8325 132.763 21.5104 133.457 20.9021C134.154 20.2897 134.523 19.3953 134.523 18.316V12.8082C134.523 12.3721 134.303 12.1604 133.849 12.1604Z" fill="#58595B"/>
<path fill-rule="evenodd" clip-rule="evenodd" d="M56.6201 17.8719L57.5519 15.4579C57.5847 15.3666 57.6158 15.2771 57.644 15.1887L57.7136 14.9665L57.7786 15.1898C57.8063 15.2858 57.8368 15.3817 57.8696 15.4754L58.7869 17.8719H56.6201ZM58.8623 12.6258C58.723 12.2821 58.5078 12.1472 58.0952 12.1472H57.3775C56.9574 12.1472 56.764 12.2717 56.6109 12.638L53.224 20.9302C53.1262 21.1843 53.1792 21.346 53.2407 21.4361C53.3334 21.5722 53.4997 21.6414 53.7357 21.6414H54.3584C54.843 21.6414 55.2262 21.6036 55.396 21.1244L55.9802 19.6142H59.424L59.9926 21.1145C60.1653 21.603 60.5497 21.6414 61.0337 21.6414H61.7381C61.9735 21.6414 62.1393 21.5728 62.2313 21.4373C62.3223 21.3053 62.3275 21.1326 62.2463 20.9238L58.8623 12.6258Z" fill="#58595B"/>
<path fill-rule="evenodd" clip-rule="evenodd" d="M104.511 17.8719L105.442 15.4579C105.476 15.3672 105.506 15.2771 105.534 15.1881L105.604 14.9648L105.67 15.1898C105.697 15.2858 105.727 15.3823 105.761 15.4754L106.678 17.8719H104.511ZM106.753 12.6258C106.613 12.2816 106.399 12.1472 105.986 12.1472H105.268C104.848 12.1472 104.655 12.2717 104.502 12.638L101.116 20.9296C101.017 21.1837 101.07 21.346 101.132 21.4361C101.224 21.5722 101.391 21.6414 101.626 21.6414H102.249C102.733 21.6414 103.117 21.6036 103.287 21.1244L103.872 19.6142H107.315L107.883 21.1145C108.056 21.603 108.441 21.6414 108.925 21.6414H109.629C109.865 21.6414 110.031 21.5728 110.122 21.4373C110.213 21.3053 110.218 21.1326 110.137 20.9238L106.753 12.6258Z" fill="#58595B"/>
<path fill-rule="evenodd" clip-rule="evenodd" d="M121.604 15.9881L121.586 16.0032C121.369 16.187 121.068 16.2789 120.689 16.2789H118.56V14.0812H120.689C121.088 14.0812 121.394 14.1725 121.597 14.3522C121.797 14.5406 121.897 14.818 121.897 15.1797C121.897 15.5426 121.798 15.8148 121.604 15.9881ZM122.732 18.202C122.679 18.0967 122.619 17.9979 122.552 17.9083L122.501 17.8391L122.579 17.8025C123.567 17.3378 124.111 16.4068 124.111 15.1797C124.111 13.3171 122.862 12.1604 120.851 12.1604H117.113C116.658 12.1604 116.426 12.3785 116.426 12.8082V20.9934C116.426 21.4237 116.658 21.6418 117.113 21.6418H117.886C118.339 21.6418 118.56 21.429 118.56 20.9928V18.1991H119.348C120.19 18.1991 120.443 18.3375 120.771 18.9784L121.906 21.1417C122.123 21.5662 122.385 21.6418 123.018 21.6418H123.803C124.037 21.6418 124.197 21.5714 124.277 21.4324C124.361 21.2906 124.341 21.1079 124.22 20.8899L122.732 18.202Z" fill="#58595B"/>
<path fill-rule="evenodd" clip-rule="evenodd" d="M69.6256 15.1737C69.6256 15.3964 69.5871 15.5889 69.5105 15.7459C69.4639 15.8401 69.4041 15.9192 69.3321 15.9832L69.3149 15.9983C69.1796 16.1129 69.0098 16.1926 68.8101 16.235C68.6893 16.2589 68.5575 16.2711 68.4176 16.2711H66.2882V14.0763H68.4176C68.5586 14.0763 68.6898 14.0886 68.809 14.1118C69.0098 14.1543 69.179 14.2339 69.3131 14.3468L69.3321 14.3642C69.4041 14.4282 69.4639 14.5073 69.51 14.6003C69.5871 14.7538 69.6256 14.9463 69.6256 15.172V15.1737ZM71.8293 14.894C71.827 14.8539 71.8229 14.8155 71.8195 14.7765C71.8155 14.7387 71.8126 14.7125 71.8097 14.6875C71.8051 14.6526 71.7999 14.6195 71.7947 14.5858C71.7855 14.5305 71.7758 14.4759 71.7648 14.4218L71.7602 14.4026C71.7562 14.3816 71.7522 14.3607 71.7476 14.3398C71.7395 14.3072 71.7309 14.2752 71.7222 14.2427C71.7147 14.2153 71.7067 14.1886 71.6992 14.1624C71.69 14.1327 71.6814 14.1037 71.6722 14.0752C71.6572 14.0316 71.6417 13.9879 71.625 13.9449L71.614 13.9158C71.5904 13.8554 71.564 13.7978 71.5363 13.7408C71.2774 13.2058 70.8699 12.7975 70.3226 12.5254C69.8294 12.28 69.2429 12.1555 68.5799 12.1555H64.8425C64.3862 12.1555 64.1548 12.3736 64.1548 12.8034V17.0695H64.145V21.0722C64.145 21.3834 64.3971 21.6363 64.7073 21.6363H65.7265C66.0362 21.6363 66.2882 21.3834 66.2882 21.0722V18.1913H68.5799C69.2435 18.1913 69.8299 18.0674 70.3226 17.822C70.8699 17.5493 71.2774 17.141 71.5352 16.6089C71.564 16.549 71.5904 16.4915 71.614 16.431L71.625 16.4019C71.6417 16.3595 71.6572 16.3158 71.6722 16.2711C71.6814 16.2431 71.69 16.2141 71.6992 16.185C71.7073 16.1582 71.7147 16.1315 71.7222 16.1047C71.7309 16.0722 71.7395 16.0396 71.7476 16.007C71.7522 15.9861 71.7562 15.9652 71.7602 15.9442L71.7648 15.925C71.7758 15.8715 71.7855 15.8163 71.7947 15.7616C71.7999 15.7273 71.8051 15.6942 71.8097 15.6599C71.8126 15.6343 71.8155 15.6087 71.8183 15.5825C71.8229 15.5313 71.827 15.493 71.8293 15.4534L71.8345 15.3755C71.8373 15.3121 71.8396 15.2487 71.8396 15.1848L71.8402 15.172C71.8396 15.0981 71.8373 15.0347 71.8345 14.9719L71.8293 14.894Z" fill="#58595B"/>
</svg>
