<svg width="148" height="33" viewBox="0 0 148 33" fill="none" xmlns="http://www.w3.org/2000/svg">
<path d="M27.1235 4.50344C27.2709 4.16285 27.2709 4.16285 28.0816 2.15711C26.1285 1.93004 25.0597 1.74083 23.3645 1.77867C21.1534 0.643348 18.6843 0 16.0678 0C7.18625 0 0 7.37959 0 16.5C0 25.6204 7.18625 33 16.0678 33C24.9492 33 32.1354 25.6204 32.1354 16.5C32.1354 11.7695 30.1822 7.53096 27.1235 4.50344Z" fill="white"/>
<path d="M25.9429 6.81122C25.906 6.77338 25.8692 6.77338 25.8323 6.77338C25.7954 6.77338 25.7586 6.81122 25.7217 6.81122C25.0584 7.60594 24.2845 8.32498 23.4369 8.89264C21.7417 9.99011 19.8253 10.5957 17.7984 10.5957C14.0395 10.5957 11.902 8.70342 10.1699 7.34103C10.1331 7.30319 10.0962 7.26534 10.0962 7.2275C10.0962 7.18966 10.1331 7.15181 10.1699 7.11397C12.8602 4.99471 15.0714 3.63232 17.3193 2.83759C17.393 2.79975 17.4299 2.7619 17.4299 2.68622C17.4299 2.61053 17.3562 2.57268 17.2825 2.53484C16.8771 2.497 16.4717 2.497 16.0664 2.497C8.51157 2.45915 2.39404 8.74126 2.39404 16.4993C2.39404 20.7757 4.23667 24.598 7.18488 27.1713C7.22173 27.2092 7.25859 27.2092 7.33229 27.2092C7.36915 27.2092 7.406 27.1713 7.44285 27.0957L7.99564 25.2791C8.03249 25.2034 8.10619 25.1656 8.1799 25.1656C15.4767 26.7928 18.6092 22.7436 18.0933 20.208C17.651 18.0509 14.2237 16.1587 9.21178 19.0727C9.17492 19.1105 9.13807 19.1105 9.10122 19.0727C9.10122 19.0727 9.06437 19.0727 9.06437 19.0349C9.02751 18.997 8.99066 18.9592 8.99066 18.8835L10.6858 9.99011C10.6858 9.95227 10.7227 9.91443 10.7596 9.87659C10.7964 9.83874 10.8701 9.87659 10.907 9.87659C11.3861 10.1793 12.8233 11.1255 14.3711 12.0715C14.408 12.1094 14.4448 12.1472 14.4448 12.2229C14.408 12.6013 14.1869 14.0016 14.1132 14.6071C14.1132 14.6449 14.1132 14.7207 14.1501 14.7584C14.1869 14.7963 14.2237 14.7963 14.2974 14.7963C22.6998 12.4878 24.4688 17.8995 24.2476 20.473C23.7317 26.3388 17.4299 29.442 11.8283 29.5176C11.7546 29.5176 11.6809 29.5555 11.6809 29.6312C11.6809 29.7069 11.7177 29.7826 11.7914 29.7826C13.155 30.2367 14.5923 30.5016 16.0664 30.5016C23.6211 30.5016 29.7386 24.2195 29.7386 16.4615C29.7386 12.7528 28.2646 9.30892 25.9429 6.81122Z" fill="#E61801"/>
<path d="M12.5312 7.19016C17.0641 10.7097 23.6976 8.93099 25.9087 3.4436C21.8181 5.44934 17.2852 6.73604 12.5312 7.19016Z" fill="#78B617"/>
<path d="M12.5312 7.19015C17.2852 6.77386 21.7812 5.48716 25.9087 3.44358C21.3021 2.91377 16.5113 4.08693 12.5312 7.19015Z" fill="#28A62A"/>
<path d="M81.8489 12.8676C80.1168 12.8676 79.0849 14.0029 78.2373 15.4031H78.2004C78.2004 13.965 77.6476 12.8676 76.063 12.8676C74.1835 12.8676 73.1885 14.3056 72.5251 15.5166H72.4883C72.5989 15.0625 72.7094 14.4191 72.82 13.8893C72.8568 13.7001 72.7831 13.5109 72.6726 13.3974C72.562 13.246 72.3777 13.1703 72.1935 13.1703H70.314L68.6188 22.8962C68.5819 23.0476 68.6188 23.2368 68.7293 23.3882C68.8399 23.5018 68.9873 23.5774 69.1716 23.5774H71.1616L71.309 22.707C72.304 16.9168 73.6676 15.3274 74.7732 15.3274C75.547 15.3274 75.6576 16.0843 75.4733 17.106L74.4414 22.7827C74.4046 22.9719 74.4414 23.1612 74.5889 23.3125C74.6995 23.4639 74.8837 23.5396 75.068 23.5396H77.0211L77.1686 22.6691C78.1636 16.9168 79.5271 15.2896 80.6327 15.2896C81.3698 15.2896 81.4804 16.0086 81.2961 17.0683L80.2642 22.8962C80.2273 23.0476 80.2642 23.1989 80.3748 23.3504C80.4853 23.4639 80.6327 23.5396 80.7801 23.5396H82.807L83.9495 16.9547C84.06 16.4249 84.0969 15.9329 84.0969 15.5166C84.06 13.7758 83.2492 12.8676 81.8489 12.8676ZM93.1257 10.6726L94.0102 10.824C94.2682 10.8618 94.4893 10.8997 94.563 10.4834L94.8578 9.34806C94.9315 9.00746 94.821 8.93177 94.4893 8.85609L93.6785 8.70471C93.4942 8.70471 93.1995 8.62902 93.1257 9.0453L92.7941 10.2185C92.7573 10.4834 92.8309 10.6348 93.1257 10.6726ZM67.3289 13.1703H63.4594C60.5849 13.1703 58.6686 14.4191 58.6686 16.7655C58.6686 18.0143 59.5162 18.8091 60.3638 18.8847V18.9226C60.0321 19.0362 59.6636 19.4903 59.2582 19.9822C58.558 20.8905 58.0421 21.496 57.5998 21.496C57.5261 21.496 57.4524 21.5717 57.4156 21.6474L57.1945 23.2747C57.1945 23.3504 57.1945 23.426 57.2682 23.4639C57.3051 23.5018 57.3788 23.5396 57.4524 23.5396H58.2632C59.5899 23.5396 60.0321 23.0097 61.322 21.3446C62.317 19.9822 62.6855 19.566 63.312 19.566H63.7542L63.1277 23.2368C63.1277 23.3125 63.1277 23.3882 63.1646 23.426C63.2014 23.5018 63.2751 23.5018 63.3489 23.5018H65.5969C65.7074 23.5018 65.818 23.426 65.818 23.3125L67.5501 13.3974C67.5501 13.3217 67.5501 13.246 67.5132 13.2082C67.4763 13.2082 67.4026 13.1703 67.3289 13.1703ZM64.1227 17.7116H62.7223C61.8379 17.7116 61.4325 17.4089 61.4325 16.8033C61.4325 15.7816 62.059 15.2518 63.2751 15.2518H64.6018L64.1227 17.7116ZM60.5849 8.36411C71.3458 7.90998 88.3349 9.95356 88.3349 9.95356C88.556 9.9914 88.7403 9.87788 88.814 9.68865L88.9983 9.121L89.293 8.1749C89.3299 8.09921 89.293 8.06136 89.2562 7.98567C89.2194 7.94783 89.1826 7.90998 89.1088 7.87214C87.0082 7.56939 71.4933 5.52581 60.2164 5.79072C49.6029 6.05563 40.6845 8.21274 38.2891 8.85609C38.1048 8.89393 37.9574 9.0453 37.9206 9.27237L37.6626 10.6726C37.6626 10.7483 37.6626 10.824 37.7363 10.8618C37.7732 10.8997 37.8469 10.9375 37.9206 10.8997C39.8369 10.4455 42.5271 9.9914 46.065 9.53728L43.7064 23.0854C43.6327 23.3125 43.6327 23.5774 44.0749 23.5774H46.3598C46.5072 23.5774 46.6915 23.5396 46.7652 23.1612L48.9763 10.0671C48.9763 10.0293 49.1238 9.34806 49.8608 9.15884C50.8189 9.04531 52.4773 8.96961 53.4723 8.85609L51.0032 23.0854C50.9295 23.5774 51.1507 23.5396 51.3349 23.5396H53.7304C53.9146 23.5396 54.2094 23.5018 54.2831 23.0476L56.6048 9.3859C56.6048 9.3859 56.7523 8.66686 57.4893 8.51549C58.6686 8.47765 59.4057 8.40196 60.5849 8.36411ZM90.3249 10.2942L91.32 10.4455C91.5779 10.4834 91.7991 10.5212 91.9096 10.1049L92.2413 8.93177C92.315 8.55334 92.2045 8.47765 91.8727 8.40196L90.9514 8.28842C90.7672 8.25058 90.4723 8.21274 90.3618 8.62902L90.0301 9.84003C89.9196 10.0671 89.9933 10.2185 90.3249 10.2942ZM94.1945 15.5923C94.1945 13.8893 93.052 12.9054 91.0989 12.9054C87.8558 12.9054 85.2761 15.7816 85.2761 19.6795C85.2761 22.1393 86.6029 23.8423 89.1457 23.8423C91.1357 23.8423 92.4255 23.0476 93.1995 22.3285L92.1307 20.4742C91.5042 21.0418 90.6198 21.5717 89.551 21.5717C88.4455 21.5717 88.0032 20.8526 87.9664 19.6795C91.3568 19.301 94.1945 18.1279 94.1945 15.5923ZM88.1507 17.9008C88.5192 16.387 89.3668 15.0247 90.6566 15.0247C91.2831 15.0247 91.6148 15.2896 91.6148 15.8951C91.5779 16.9926 90.1776 17.7116 88.1507 17.9008ZM102.191 12.8676C100.423 12.8676 99.5013 14.1164 98.6536 15.5923H98.6168C98.7273 15.2139 98.801 14.8733 98.8748 14.4949C98.9485 14.1543 98.8748 13.8137 98.6536 13.5487C98.4326 13.2838 98.1377 13.1325 97.806 13.1325H96.5161L93.826 28.1944H95.3369C96.0002 28.1944 96.5899 27.7024 96.7004 27.0212L97.2901 23.6531C97.5112 23.7288 97.9534 23.8045 98.6905 23.8045C102.191 23.8045 104.734 20.8905 104.734 16.387C104.808 14.2678 103.776 12.8676 102.191 12.8676ZM98.7642 21.7609C98.1745 21.7609 97.8798 21.6852 97.7323 21.6474L97.8429 21.0797C98.6168 17.2575 99.9066 15.3274 101.123 15.3274C101.749 15.3274 102.044 15.9329 102.044 16.8791C101.97 19.9066 100.533 21.7609 98.7642 21.7609ZM144.498 12.8676C140.74 12.8676 138.123 15.9329 138.123 20.3985C138.123 22.5178 139.191 23.8045 140.74 23.8045C142.398 23.8045 143.393 22.5556 144.167 21.0418H144.203C144.093 21.496 144.019 22.0637 143.945 22.5935C143.909 22.8205 143.982 23.0854 144.167 23.2747C144.314 23.4639 144.535 23.5774 144.793 23.5774H146.525C146.562 22.8205 146.673 21.1176 147.152 18.2414L147.999 13.5109C147.557 13.2838 146.341 12.8676 144.498 12.8676ZM144.977 15.668C144.277 19.566 142.95 21.4203 141.845 21.4203C141.218 21.4203 140.923 20.9283 140.923 19.9066C140.923 16.9926 142.434 14.9489 144.093 14.9489C144.498 14.9489 144.867 15.0247 145.051 15.0625L144.977 15.668ZM134.585 19.4524C134.29 18.8469 133.995 18.4306 133.701 18.1657L138.159 13.1703H135.728C135.322 13.1703 134.916 13.3595 134.622 13.7001L131.489 17.4089H130.937L131.526 14.0029C131.563 13.8137 131.526 13.5866 131.378 13.4352C131.268 13.2838 131.047 13.1703 130.863 13.1703H128.91L127.141 23.5774H129.094C129.536 23.5774 129.905 23.2368 129.978 22.8205L130.605 19.301H130.899C131.489 19.301 131.858 19.9444 132.484 21.3446C133.221 22.9719 133.59 23.5774 134.88 23.5774H135.949L136.317 21.496H136.096C135.617 21.496 135.212 20.8526 134.585 19.4524ZM123.603 13.8137C123.197 16.4627 121.871 18.2035 120.581 18.2035C119.917 18.2035 119.696 17.7116 119.881 16.5762L120.212 14.5327C120.249 14.1921 120.175 13.8515 119.954 13.5866C119.734 13.3217 119.438 13.1703 119.107 13.1703H117.743L117.117 16.6898C117.043 17.1439 117.006 17.5981 117.006 17.9765C117.006 19.7173 117.817 20.6634 119.254 20.6634C121.06 20.6634 122.24 19.4524 122.976 18.1279H123.013C122.718 19.7173 122.313 22.0637 122.166 23.5396H124.782C124.819 22.7827 125.004 21.0797 125.482 18.2035L126.366 13.1325H123.677L123.603 13.8137ZM111.515 12.8676C108.235 12.8676 105.766 15.8572 105.766 19.4524C105.766 21.8366 107.203 23.8045 109.82 23.8045C113.174 23.8045 115.495 20.9662 115.495 17.2196C115.532 14.7597 114.058 12.8676 111.515 12.8676ZM110.078 21.6852C109.046 21.6852 108.53 20.777 108.53 19.4146C108.53 17.4845 109.599 15.0247 111.294 15.0247C112.326 15.0247 112.842 15.8194 112.842 17.2575C112.842 19.1497 111.884 21.6852 110.078 21.6852Z" fill="#E61801"/>
</svg>
