<svg width="99" height="39" viewBox="0 0 99 39" fill="none" xmlns="http://www.w3.org/2000/svg">
<path d="M1.39453 14.3037V19.5336L15.5183 17.9817V12.3211L1.39453 14.3037ZM5.90168 19.8518V37.7731H11.0725V19.3239L5.90168 19.8518ZM17.4258 12.0534V37.7731H22.8745V11.2882L17.4258 12.0534ZM23.8896 11.1456V17.0622L31.7574 16.1975V10.0413L23.8896 11.1456ZM23.8896 21.4658V27.4902L29.0543 27.2088V21.0218L23.8896 21.4658ZM23.8896 31.8326V37.7731H31.7574V31.5955L23.8896 31.8326ZM52.1046 7.17565V37.7731H59.2473V6.1728L52.1046 7.17565ZM60.5812 5.98532V13.0234L70.9904 11.8802V4.52365L60.5812 5.98532ZM60.5812 18.3166V25.485L67.4038 25.1129V17.733L60.5812 18.3166ZM60.5812 30.7247V37.7731H70.9904V30.4107L60.5812 30.7247ZM33.8392 9.74854V37.7731H40.0458V8.87689L33.8392 9.74854ZM41.2042 31.3108V37.7728H50.2135V31.0392L41.2042 31.3108ZM94.3274 4.17767C92.0699 2.04715 88.76 1.17328 85.1396 1.69281V9.49894C86.6057 9.4176 87.7937 9.96109 88.323 11.0553C89.1587 12.7805 88.2965 15.369 86.2624 17.7672C83.1228 21.468 74.7742 29.043 74.7742 29.043L86.759 28.6493C94.082 21.5029 96.7117 17.1649 97.1836 11.7509C97.4315 8.88664 96.3908 6.12683 94.3274 4.17767ZM97.6058 37.7731V29.6051L73.297 30.3366L97.6058 37.7731ZM73.297 30.3366L73.2995 37.7728L97.6058 37.7731L73.297 30.3366ZM83.7422 1.86803C76.6803 3.37037 73.2125 8.56015 73.6127 17.0284L81.1422 16.361C80.7992 11.5768 82.2642 10.4419 83.7458 9.81791L83.7422 1.86803Z" fill="#141414"/>
</svg>
