<svg width="60" height="60" viewBox="0 0 60 60" fill="none" xmlns="http://www.w3.org/2000/svg">
<path fill-rule="evenodd" clip-rule="evenodd" d="M30 7.5C17.5736 7.5 7.5 17.5736 7.5 30C7.5 42.4264 17.5736 52.5 30 52.5C42.4264 52.5 52.5 42.4264 52.5 30C52.5 17.5736 42.4264 7.5 30 7.5ZM2.5 30C2.5 14.8122 14.8122 2.5 30 2.5C45.1878 2.5 57.5 14.8122 57.5 30C57.5 45.1878 45.1878 57.5 30 57.5C14.8122 57.5 2.5 45.1878 2.5 30Z" fill="#D92929"/>
<path fill-rule="evenodd" clip-rule="evenodd" d="M30 17.5C31.3807 17.5 32.5 18.6193 32.5 20V30C32.5 31.3807 31.3807 32.5 30 32.5C28.6193 32.5 27.5 31.3807 27.5 30V20C27.5 18.6193 28.6193 17.5 30 17.5Z" fill="#D92929"/>
<path fill-rule="evenodd" clip-rule="evenodd" d="M27.5 40C27.5 38.6193 28.6193 37.5 30 37.5H30.025C31.4057 37.5 32.525 38.6193 32.525 40C32.525 41.3807 31.4057 42.5 30.025 42.5H30C28.6193 42.5 27.5 41.3807 27.5 40Z" fill="#D92929"/>
</svg>
