<svg width="251" height="87" viewBox="0 0 251 87" fill="none" xmlns="http://www.w3.org/2000/svg">
<path fill-rule="evenodd" clip-rule="evenodd" d="M228.077 52.48C224.673 52.48 221.908 49.714 221.908 46.312C221.908 42.908 224.673 40.141 228.077 40.141C231.482 40.141 234.25 42.908 234.25 46.312C234.25 49.714 231.482 52.48 228.077 52.48ZM228.077 39.09C224.094 39.09 220.856 42.33 220.856 46.312C220.856 50.292 224.094 53.532 228.077 53.532C232.059 53.532 235.302 50.292 235.302 46.312C235.302 42.33 232.059 39.09 228.077 39.09ZM227.504 45.968C227.998 45.968 228.363 45.869 228.7 45.671C229.166 45.419 229.46 44.926 229.46 44.248C229.46 43.712 229.263 43.261 228.869 42.966C228.589 42.756 228.162 42.585 227.516 42.585H226.671V45.968H227.504ZM228.897 46.585V46.558C230.053 46.207 230.758 45.404 230.758 44.122C230.758 43.276 230.405 42.473 229.573 42.009C229.095 41.727 228.459 41.557 227.516 41.557H225.418V50.841H226.671V46.993H227.631C227.898 47.066 228.252 47.487 228.687 48.264L230.207 50.841H231.674L230.025 48.08C229.53 47.248 229.181 46.741 228.897 46.585ZM243.954 29.92V28.798C244.127 28.841 244.29 28.856 244.463 28.856C245.338 28.856 245.717 28.274 246.27 27.137L242.875 20.273H244.318L246.926 25.765H246.955L249.33 20.273H250.744L247.394 27.618C246.622 29.337 245.763 29.978 244.579 29.978C244.42 29.978 244.145 29.964 243.954 29.92ZM238.229 21.381H235.461V20.273H242.571L242.178 21.381H239.525V29.876H238.229V21.381V21.381ZM233.489 26.291L232.585 23.786C232.308 22.969 232.161 22.534 232.046 22.182H232.016C231.914 22.534 231.753 22.983 231.461 23.8L230.56 26.291H233.489ZM231.535 20.244L227.878 29.876H229.25L230.166 27.356H233.895L234.826 29.876H236.227L232.497 20.244H231.535ZM217.517 20.273H218.713L221.336 24.18C221.728 24.762 221.978 25.125 222.209 25.52H222.24C222.458 25.141 222.719 24.704 223.084 24.121L225.534 20.273H226.728V29.876H225.446V23.945C225.446 23.493 225.446 22.911 225.459 22.429H225.446C225.255 22.795 224.934 23.289 224.761 23.566L222.547 27.093H221.904L219.471 23.493C219.265 23.203 219.005 22.823 218.814 22.459H218.786C218.814 22.882 218.814 23.508 218.814 23.917V29.876H217.517V20.273V20.273ZM207.26 20.273H208.542V26.073C208.542 26.743 208.542 27.224 208.513 27.734H208.542C208.863 27.266 209.27 26.671 209.839 25.942L214.109 20.273H215.361V29.876H214.063V23.858C214.063 23.159 214.08 22.706 214.094 22.255H214.063C213.743 22.721 213.336 23.289 212.811 23.989L208.368 29.876H207.26V20.273ZM197.41 29.92V28.71C197.542 28.739 197.645 28.739 197.703 28.739C198.125 28.739 198.531 28.536 198.838 28.026C199.729 26.51 200.339 22.605 200.529 20.273H205.104V29.876H203.807V21.337H201.635C201.462 23.523 200.807 27.239 199.83 28.811C199.334 29.628 198.664 29.964 197.819 29.964C197.746 29.964 197.542 29.949 197.41 29.92ZM190.256 20.273H191.538V24.513H192.487C193.974 24.513 194.105 22.548 194.744 21.205C195.051 20.578 195.517 20.186 196.275 20.186C196.492 20.186 196.784 20.217 196.99 20.302V21.468C196.799 21.395 196.639 21.381 196.492 21.381C196.143 21.381 195.94 21.541 195.778 21.831C195.313 22.693 195.094 24.383 194.074 24.98V25.009C194.541 25.169 194.889 25.65 195.298 26.423L197.148 29.876H195.662L194.059 26.743C193.624 25.897 193.259 25.592 192.967 25.592H191.538V29.876H190.256V20.273ZM184.575 25.111C184.575 22.91 183.35 21.293 181.225 21.293C179.196 21.293 177.858 22.809 177.858 25.111C177.858 27.429 179.196 28.915 181.225 28.915C183.234 28.915 184.575 27.429 184.575 25.111ZM176.489 25.111C176.489 22.197 178.483 20.186 181.225 20.186C183.992 20.186 185.944 22.241 185.944 25.111C185.944 28.098 183.903 30.022 181.225 30.022C178.497 30.022 176.489 28.083 176.489 25.111ZM167.555 20.273H174.784V29.876H173.487V21.381H168.838V29.876H167.555V20.273V20.273ZM219.194 0.689999H220.286C220.286 1.332 220.621 1.87 221.525 1.87C222.415 1.87 222.749 1.332 222.749 0.689999H223.857C223.885 1.942 223.026 2.846 221.525 2.846C219.98 2.846 219.165 1.942 219.194 0.689999ZM217.461 3.385H218.742V9.184C218.742 9.856 218.742 10.336 218.713 10.846H218.742C219.062 10.38 219.47 9.782 220.039 9.053L224.308 3.385H225.56V12.988H224.265V6.97C224.265 6.271 224.279 5.821 224.296 5.368H224.265C223.944 5.833 223.535 6.402 223.013 7.101L218.568 12.988H217.461V3.385ZM214.007 3.386H215.303V12.989H214.007V3.386ZM209.197 11.909C210.772 11.909 211.529 11.312 211.529 10.088C211.529 9.345 211.253 8.835 210.713 8.559C210.306 8.34 209.766 8.254 209.023 8.254H208.368V11.909H209.197ZM207.085 3.386H208.368V7.173H208.979C210.028 7.173 210.83 7.32 211.443 7.625C212.374 8.093 212.856 8.908 212.856 10.045C212.856 11.777 211.822 12.989 209.155 12.989H207.085V3.386ZM197.293 3.385H198.59V7.525H203.632V3.385H204.915V12.988H203.632V8.632H198.59V12.988H197.293V3.385ZM192.268 11.909C193.519 11.909 194.308 11.429 194.308 10.249C194.308 9.258 193.565 8.63 192.412 8.63H190.941V11.909H192.268ZM191.917 7.553C193.098 7.553 193.724 6.956 193.724 5.993C193.724 5.106 193.201 4.464 191.946 4.464H190.941V7.553H191.917V7.553ZM189.644 3.385H192.063C194.105 3.385 195.023 4.523 195.023 5.82C195.023 6.752 194.555 7.525 193.784 7.873V7.904C194.875 8.152 195.634 9.053 195.634 10.232C195.634 11.807 194.496 12.988 192.339 12.988H189.644V3.385V3.385ZM185.754 9.405L184.85 6.896C184.575 6.081 184.428 5.644 184.314 5.294H184.283C184.182 5.644 184.02 6.095 183.728 6.91L182.825 9.405H185.754ZM183.801 3.357H184.765L188.494 12.988H187.095L186.163 10.467H182.433L181.515 12.988H180.145L183.801 3.357ZM171.314 13.031V11.824C171.445 11.851 171.548 11.851 171.607 11.851C172.028 11.851 172.436 11.647 172.742 11.136C173.632 9.623 174.242 5.718 174.433 3.385H179.008V12.988H177.711V4.449H175.54C175.364 6.635 174.709 10.35 173.733 11.925C173.239 12.739 172.569 13.076 171.723 13.076C171.649 13.076 171.445 13.061 171.314 13.031ZM167.555 3.385V12.988H168.838V4.493H172.159L172.555 3.385H167.555Z" fill="#636466"/>
<path fill-rule="evenodd" clip-rule="evenodd" d="M141.209 49.633C149.668 55.862 155.954 66.215 157.626 81.308V86.389H148.342C146.516 86.389 144.692 85.69 143.299 84.295C141.905 82.906 141.209 81.081 141.209 79.254V49.633ZM25.964 31.237C29.186 31.237 33.165 32.401 33.165 38.083C33.165 43.011 29.186 43.603 25.964 43.603H14.782V31.237H25.964ZM30.702 56.065C32.978 56.065 38.471 57.582 38.471 64.783C38.471 71.985 32.978 72.553 30.702 72.553H20.092C16.678 72.553 14.593 70.469 14.593 67.247V56.065H30.702ZM198.254 40.128V72.547H190.863C182.707 72.547 182.707 68.566 182.707 65.722V40.128H167.73V65.722C167.73 82.028 179.865 86.386 189.343 86.386H213.419V40.128H198.254ZM93.605 72.547H84.885C76.733 72.547 75.593 67.238 75.593 64.394V59.467C75.593 55.107 79.767 51.886 84.126 51.886C89.436 51.886 93.605 55.107 93.605 59.467V72.547ZM84.886 37.856C70.099 37.856 60.619 47.903 60.619 60.604V65.344C60.619 81.648 73.89 86.386 83.369 86.386H108.205V59.467C108.204 46.765 97.396 37.856 84.886 37.856ZM44.537 48.675C47.756 44.882 48.326 40.524 48.326 37.115V35.408C48.326 23.091 38.093 19.503 25.964 19.503H0V70.278C0 79.186 7.392 86.389 16.486 86.389H31.46C51.737 86.389 53.631 71.606 53.631 65.919V62.89C53.631 57.202 51.928 51.708 44.537 48.675ZM118.457 42.278C123.711 42.351 128.899 43.362 133.707 45.384V86.389H126.021C124.082 86.389 122.149 85.647 120.674 84.173C119.191 82.695 118.457 80.763 118.457 78.823V42.278V42.278Z" fill="#636466"/>
<path fill-rule="evenodd" clip-rule="evenodd" d="M107.61 30.693C115.609 29.532 118.433 32.466 118.458 39.292V42.278C123.712 42.35 128.899 43.362 133.707 45.384V12.935L107.61 25.368V30.693ZM141.21 9.282V49.633C149.668 55.862 155.956 66.215 157.628 81.307V1.263L141.21 9.282Z" fill="#5BBA47"/>
</svg>
