<svg width="60" height="60" viewBox="0 0 60 60" fill="none" xmlns="http://www.w3.org/2000/svg">
<path d="M30 60C46.5685 60 60 46.5685 60 30C60 13.4315 46.5685 0 30 0C13.4315 0 0 13.4315 0 30C0 46.5685 13.4315 60 30 60Z" fill="#F6F6F7"/>
<path d="M16.7569 19.8052C16.3389 19.0574 16.6062 18.1123 17.3541 17.6943L25.1559 13.3331C25.9037 12.9151 26.8488 13.1824 27.2669 13.9303V13.9303C27.6849 14.6781 27.4175 15.6232 26.6697 16.0412L18.8679 20.4024C18.1201 20.8204 17.1749 20.5531 16.7569 19.8052V19.8052Z" fill="#333333"/>
<path d="M44.6809 24.815C44.6809 25.6716 43.9865 26.366 43.1299 26.366V26.366C42.2732 26.366 41.5788 25.6716 41.5788 24.815V16.6746C41.5788 15.6444 40.7407 14.8062 39.7104 14.8062H17.596C16.7393 14.8062 16.0449 14.1118 16.0449 13.2551V13.2551C16.0449 12.3985 16.7393 11.7041 17.596 11.7041H39.7104C42.4512 11.7041 44.6809 13.9338 44.6809 16.6746V24.815Z" fill="#333333"/>
<path d="M39.7099 11.7041H29.9531V14.8062H39.7099C40.7402 14.8062 41.5783 15.6443 41.5783 16.6746V26.366H44.6804V16.6746C44.6805 13.9339 42.4507 11.7041 39.7099 11.7041V11.7041Z" fill="#292B2F"/>
<path d="M38.998 32.996L40.4637 18.4781L45.7973 18.4775L47.2627 32.9952L38.998 32.996Z" fill="#333333"/>
<path d="M38.4852 48.9679C38.4852 49.5202 38.0375 49.9679 37.4852 49.9679H22.4219C21.8696 49.9679 21.4219 49.5202 21.4219 48.9679V23.9877C21.4219 19.2758 25.2417 15.4561 29.9535 15.4561C34.6655 15.4561 38.4852 19.2759 38.4852 23.9877V48.9679Z" fill="#ED3D3D"/>
<path d="M25.2031 12C25.2031 10.8954 26.0986 10 27.2031 10H32.7031C33.8076 10 34.7031 10.8954 34.7031 12V14.5123C34.7031 15.6169 33.8076 16.5123 32.7031 16.5123H27.2031C26.0986 16.5123 25.2031 15.6169 25.2031 14.5123V12Z" fill="#D92929"/>
<path d="M25.2031 29.3672C25.2031 27.7103 26.5463 26.3672 28.2031 26.3672H31.7031C33.3599 26.3672 34.7031 27.7103 34.7031 29.3672V39.7445C34.7031 41.4013 33.3599 42.7445 31.7031 42.7445H28.2031C26.5463 42.7445 25.2031 41.4013 25.2031 39.7445V29.3672Z" fill="white"/>
</svg>
