<svg width="56" height="56" viewBox="0 0 56 56" fill="none" xmlns="http://www.w3.org/2000/svg">
<path d="M28.0008 55.4294C43.1492 55.4294 55.4294 43.1492 55.4294 28.0008C55.4294 12.8525 43.1492 0.572266 28.0008 0.572266C12.8525 0.572266 0.572266 12.8525 0.572266 28.0008C0.572266 43.1492 12.8525 55.4294 28.0008 55.4294Z" fill="#F6F6F7"/>
<path d="M42.04 19.7061H13.9615C12.3108 19.7061 10.9727 21.0442 10.9727 22.6949V37.6094C10.9727 39.2602 12.3108 40.5983 13.9615 40.5983H42.04C43.6907 40.5983 45.0288 39.2602 45.0288 37.6094V22.6949C45.0288 21.0442 43.6907 19.7061 42.04 19.7061V19.7061Z" fill="#D92929"/>
<path d="M10.9727 25.4268H45.0288V29.4968H10.9727V25.4268Z" fill="#333333"/>
<path d="M15.2031 36.543H20.2822V38.2512H15.2031V36.543Z" fill="#EBF0F3"/>
<path d="M22.4639 36.543H27.5429V38.2512H22.4639V36.543Z" fill="#EBF0F3"/>
<path d="M29.7246 36.543H34.8037V38.2512H29.7246V36.543Z" fill="#EBF0F3"/>
<path d="M36.9854 36.543H42.0644V38.2512H36.9854V36.543Z" fill="#EBF0F3"/>
<path d="M15.2031 30.7793H42.0648V31.459H15.2031V30.7793Z" fill="#333333"/>
<path d="M15.2031 32.6797H42.0648V33.3594H15.2031V32.6797Z" fill="#333333"/>
<path d="M15.2031 34.5801H28.6339V35.2598H15.2031V34.5801Z" fill="#333333"/>
<path d="M34.3582 25.8015C38.161 25.185 40.7441 21.6025 40.1276 17.7997C39.5112 13.9969 35.9286 11.4138 32.1258 12.0303C28.323 12.6467 25.74 16.2293 26.3564 20.0321C26.9729 23.8349 30.5554 26.4179 34.3582 25.8015Z" fill="#FCD462"/>
<path d="M34.1413 24.4641C37.2057 23.9674 39.2871 21.0805 38.7904 18.0162C38.2936 14.9518 35.4068 12.8704 32.3424 13.3671C29.2781 13.8639 27.1966 16.7507 27.6934 19.8151C28.1901 22.8794 31.077 24.9609 34.1413 24.4641Z" fill="#F7BE56"/>
</svg>
