<svg width="130" height="130" viewBox="0 0 130 130" fill="none" xmlns="http://www.w3.org/2000/svg">
<circle cx="65" cy="65" r="65" fill="white"/>
<path fill-rule="evenodd" clip-rule="evenodd" d="M102.965 93.7828C102.939 93.7956 98.773 96.9697 96.1535 98.3274C93.7205 99.5885 90.9935 100.848 88.1094 101.649C81.6026 103.457 74.7184 104.05 67.7699 102.648C64.777 102.044 61.6286 101.211 58.9988 100.05C56.7009 99.0359 53.4824 97.4966 51.5079 96.0854C51.2324 95.8883 50.9452 95.6974 50.67 95.5336L48.2294 93.7251C47.1264 92.8849 46.1501 91.997 45.1869 91.0432L41.7055 87.4094C41.4808 87.1501 41.2612 86.8745 41.0336 86.6031C40.0589 85.4415 38.2325 82.7863 37.5183 81.6198C37.1499 81.0183 36.764 80.3907 36.4719 79.7986C34.5169 75.8365 33.6939 74.4624 32.3729 69.5789C29.8193 60.1394 30.5703 49.5347 34.5524 40.5551C36.1611 36.9275 38.5078 33.0219 41.1482 30.0617C41.6021 29.5529 42.0373 29.0078 42.4822 28.5223C43.3145 27.6143 45.9361 25.2319 46.9667 24.4231L50.2697 22.0104C49.3034 22.1858 46.4686 23.58 45.5144 24.0662C43.9396 24.869 42.5411 25.6995 41.192 26.5883C40.4414 27.0826 39.8528 27.4553 39.1619 27.9804C38.8074 28.2499 38.5228 28.4467 38.2109 28.6962L35.3861 31.0525C35.2151 31.2127 35.1621 31.3217 34.9913 31.4808C33.9389 32.4614 32.5062 33.7961 31.5999 34.9303L30.4279 36.3521C27.3343 40.0991 24.7585 45.0422 23.07 49.6097C20.4556 56.6812 19.6689 65.6741 21.2106 73.6031C22.2793 79.0994 24.0625 83.8952 26.7981 88.5321C27.004 88.8812 27.2422 89.2961 27.4338 89.5625C27.7228 89.964 27.8666 90.1502 28.1199 90.6291C28.3255 91.0182 28.5826 91.3339 28.8313 91.6739L33.4654 97.3045C33.7806 97.6309 34.0162 97.8784 34.3373 98.1891L36.1155 99.8356C37.4824 100.891 37.9939 101.479 39.9258 102.867C46.9299 107.901 56.1919 111.29 65.7367 111.423C75.6972 111.562 84.1689 109.007 92.2876 103.72C92.639 103.491 92.9492 103.286 93.2709 103.034C94.3932 102.153 95.414 101.527 96.6708 100.421L98.8769 98.376C99.5866 97.5392 100.107 97.29 101.398 95.7165C101.541 95.5417 101.652 95.4705 101.799 95.2928C102.031 95.0103 102.859 94.0562 102.965 93.7828V93.7828Z" fill="#252062"/>
<path fill-rule="evenodd" clip-rule="evenodd" d="M64.6526 94.2328L63.9715 93.8202C63.7531 93.7176 63.5205 93.5945 63.3079 93.4808C62.8276 93.2242 62.4506 92.9907 61.972 92.7207C59.8974 91.5507 58.3631 90.3673 56.5872 88.8859C56.0093 88.4038 55.4065 87.9484 54.8968 87.3738C54.5911 87.0293 54.2158 86.7216 53.8827 86.3777L52.3652 84.7926C52.1972 84.6126 52.0753 84.4028 51.878 84.1791C51.1312 83.3333 49.8472 81.5482 49.2243 80.6214C43.8001 72.5494 41.2693 61.2216 43.6261 50.5143C44.7065 45.6053 45.9942 42.7758 48.2615 38.5862L51.8857 33.4404C52.0093 33.3047 52.0174 33.267 52.1226 33.1206C52.2876 32.8911 52.4202 32.7951 52.5893 32.5878C53.291 31.7262 54.8598 30.1459 55.6705 29.3603C56.2575 28.7913 57.2092 27.9826 57.9053 27.4846L58.3416 27.1926C58.3727 27.1708 58.4682 27.0992 58.4992 27.0761L60.3196 25.7914C65.8265 22.0182 72.023 20.0593 78.8906 19.3874C78.3869 19.049 75.3675 18.7542 74.844 18.7078C67.855 18.0898 60.6389 19.5892 54.496 22.8557C54.2092 23.0084 54.0429 23.1405 53.743 23.2898C51.8254 24.2452 49.2721 26.2314 47.5047 27.6607L45.6829 29.401C45.2445 29.8243 45.0461 30.0772 44.5006 30.5954C43.768 31.291 41.9314 33.7199 41.3158 34.5505C39.7126 36.7136 38.1271 39.7527 37.1226 42.2576C33.4939 51.305 33.1756 60.9084 36.4328 70.1781C37.4313 73.0191 38.0924 74.2318 39.4483 76.6852C40.8101 79.1494 42.2321 80.748 43.9355 82.8075C44.5994 83.6102 44.8047 83.6404 45.3909 84.2864C46.4831 85.4905 46.1084 84.9602 46.9278 85.7624C47.1389 85.9692 47.2862 86.092 47.5523 86.3237C50.1928 88.6242 54.0341 90.8219 57.2033 92.1262C59.0125 92.8708 62.5835 94.051 64.6526 94.2328V94.2328Z" fill="#2E3094"/>
<path fill-rule="evenodd" clip-rule="evenodd" d="M59.7369 90.7935C59.505 90.2493 58.3585 88.5585 57.8003 87.5738C57.6595 87.3259 57.5991 87.2575 57.4662 87.057C57.2932 86.7958 57.2823 86.6668 57.1739 86.4283C56.9957 86.0357 56.7661 85.7224 56.5709 85.3418C56.0426 84.3129 55.4643 82.8048 55.027 81.674C50.6817 70.4379 51.5366 57.9254 56.2446 47.3354C57.7662 43.9126 59.7332 40.6662 62.025 37.7426L63.5565 35.928C64.596 34.5888 66.5704 32.8097 67.8736 31.6078C68.7737 30.7779 70.733 29.2905 71.6781 28.645C73.109 27.6681 75.4673 26.2128 77.0275 25.4798C79.1361 24.4891 80.8444 23.7429 83.1197 23.063C83.629 22.9108 85.4759 22.4831 85.7718 22.2903C84.9518 21.8458 79.6901 22.0347 78.4764 22.1552C76.2295 22.378 74.0194 22.7493 71.9415 23.3501C67.7929 24.5496 63.2045 26.7213 60.1325 29.1328C59.8199 29.3781 59.3165 29.7003 59.0162 29.9716C58.5866 30.359 58.4248 30.5199 57.9459 30.8453C57.4694 31.1688 56.317 32.3998 55.9517 32.7561C55.5769 33.1218 55.309 33.288 54.9435 33.7011C54.2238 34.5148 53.097 35.729 52.5232 36.5833L51.4564 38.0331C49.8087 40.4265 48.4805 42.9181 47.3106 45.735C42.2996 57.7997 44.1182 72.5181 51.7729 82.9163C52.0837 83.3385 52.3538 83.6318 52.6213 84.0213C53.0187 84.5998 54.903 86.6096 55.4099 87.0964C55.7455 87.4187 56.1 87.7092 56.3934 88.0604C56.7508 88.4881 59.1452 90.5305 59.7369 90.7935V90.7935Z" fill="#1C73BA"/>
<path fill-rule="evenodd" clip-rule="evenodd" d="M62.4991 83.9154C61.9427 82.2423 61.5309 81.7011 60.8948 79.4932C59.4346 74.4252 59.1144 68.7317 60.3517 63.6433C61.3759 59.4309 62.5896 56.5518 64.8148 53.0468C65.2288 52.3947 65.6206 51.8725 66.065 51.2415C67.2414 49.572 67.746 49.2096 68.8521 47.8822L71.1102 45.6543C80.5085 37.3835 93.3892 34.1804 106.406 36.767C106.386 36.7488 106.356 36.6979 106.345 36.7152L105.245 36.0714C104.813 35.8565 104.485 35.6909 104.031 35.4783C103.179 35.0793 102.399 34.7598 101.477 34.4093C91.566 30.6421 79.5632 32.183 70.8653 37.4673C70.6308 37.6098 70.4902 37.7259 70.2948 37.8416L68.1564 39.2869C67.7953 39.5583 67.4127 39.81 67.0828 40.0984C66.4515 40.6505 65.7484 41.1735 65.1743 41.7581L61.689 45.4625C60.2907 47.0896 58.4178 50.2798 57.5863 52.0966C53.9233 60.0978 53.7463 69.763 57.9554 77.5983C58.1654 77.9894 58.3422 78.3861 58.5717 78.7377C59.7683 80.5714 59.9935 81.1075 61.5343 82.9227L62.28 83.7718C62.479 83.9214 62.1972 83.7557 62.4991 83.9154Z" fill="#8CADD9"/>
<path fill-rule="evenodd" clip-rule="evenodd" d="M36.4719 79.7986C34.517 75.8365 33.6939 74.4624 32.3727 69.5787C29.8191 60.1393 30.5703 49.5347 34.5523 40.5551C36.1612 36.9274 38.5078 33.0219 41.1481 30.0617C41.6021 29.5529 42.0372 29.0078 42.4822 28.5223C43.3144 27.6143 45.936 25.2319 46.9665 24.4233L50.2697 22.0104C49.3034 22.1858 46.4685 23.5798 45.5145 24.0662C43.9395 24.869 42.5411 25.6995 41.1919 26.5883C40.4414 27.0826 39.8528 27.4554 39.162 27.9804C38.8074 28.2501 38.5228 28.4467 38.2108 28.6962L35.386 31.0525C35.2151 31.2127 35.1621 31.3217 34.9913 31.4808C33.9388 32.4614 32.5064 33.7961 31.5999 34.9304L30.4279 36.352C27.3343 40.0991 24.7586 45.0422 23.0699 49.6097C20.4556 56.6812 19.6688 65.6742 21.2107 73.6031C22.2793 79.0994 24.0625 83.8952 26.798 88.5321C27.0039 88.8812 27.2421 89.296 27.4338 89.5625C27.7228 89.964 27.8666 90.1502 28.1199 90.6292C28.3255 91.0182 28.5826 91.3339 28.8313 91.6739L33.4653 97.3045C33.7806 97.6309 34.0161 97.8784 34.3372 98.1891L36.1154 99.8356C37.4823 100.891 37.9939 101.479 39.9258 102.867C46.93 107.901 56.192 111.29 65.7367 111.423C75.6972 111.562 84.1689 109.007 92.2876 103.72C92.639 103.491 92.9491 103.286 93.2709 103.034C94.3932 102.153 95.414 101.527 96.6708 100.421L98.8769 98.3761C99.5865 97.5392 100.107 97.29 101.398 95.7165C101.541 95.5417 101.652 95.4705 101.798 95.2928C102.031 95.0103 102.859 94.0562 102.965 93.783C102.939 93.7956 98.7731 96.9696 96.1535 98.3274C93.7205 99.5885 90.9933 100.848 88.1094 101.649C81.6027 103.457 74.7184 104.05 67.7699 102.648C64.777 102.044 61.6285 101.211 58.9989 100.05C56.7009 99.0359 53.4824 97.4964 51.5079 96.0854C51.2324 95.8883 50.9452 95.6974 50.6701 95.5336L48.2294 93.725C47.1264 92.8849 46.1501 91.9971 45.1869 91.0432L41.7053 87.4094C41.4808 87.1499 41.2612 86.8745 41.0335 86.6031C40.0589 85.4415 38.2325 82.7862 37.5183 81.6198C37.1499 81.0183 36.764 80.3907 36.4719 79.7986V79.7986Z" fill="#2D2B82"/>
<path fill-rule="evenodd" clip-rule="evenodd" d="M37.1226 42.2575C33.4939 51.305 33.1756 60.9084 36.4328 70.1781C37.4313 73.0191 38.0924 74.232 39.4483 76.6851C40.8101 79.1494 42.2321 80.748 43.9355 82.8076C44.5994 83.6102 44.8048 83.6404 45.3909 84.2866C46.4831 85.4906 46.1084 84.9602 46.9277 85.7624C47.1387 85.9692 47.2863 86.092 47.5523 86.3238C50.1928 88.6242 54.0341 90.8219 57.2032 92.1261C59.0125 92.8708 62.5834 94.051 64.6526 94.2328L63.9715 93.8202C63.7531 93.7176 63.5205 93.5945 63.308 93.4808C62.8277 93.2242 62.4506 92.9907 61.9719 92.7207C59.8974 91.5507 58.3631 90.3673 56.5873 88.886C56.0093 88.4038 55.4066 87.9483 54.8968 87.3738C54.591 87.0293 54.2158 86.7216 53.8827 86.3777L52.3652 84.7926C52.1972 84.6126 52.0753 84.4028 51.878 84.1791C51.1312 83.3333 49.8472 81.5482 49.2244 80.6214C43.8001 72.5494 41.2693 61.2217 43.6262 50.5143C44.7066 45.6053 45.9942 42.7759 48.2615 38.5863L51.8857 33.4402C52.0093 33.3046 52.0174 33.267 52.1226 33.1205C52.2876 32.891 52.4202 32.795 52.5893 32.5878C53.291 31.7262 54.8597 30.1458 55.6705 29.3602C56.2575 28.7912 57.2091 27.9825 57.9053 27.4846L58.3416 27.1925C58.3727 27.1707 58.4682 27.0992 58.4992 27.076L60.3196 25.7914C65.8265 22.018 72.023 20.0593 78.8906 19.3874C78.3869 19.0489 75.3675 18.7542 74.844 18.7078C67.855 18.0899 60.6389 19.5892 54.496 22.8557C54.2092 23.0083 54.0429 23.1404 53.7431 23.2897C51.8254 24.245 49.2722 26.2314 47.5047 27.6607L45.6828 29.4011C45.2443 29.8243 45.046 30.0772 44.5006 30.5953C43.7681 31.291 41.9314 33.7199 41.3158 34.5505C39.7126 36.7137 38.1272 39.7528 37.1226 42.2575V42.2575Z" fill="#755AA0"/>
<path fill-rule="evenodd" clip-rule="evenodd" d="M47.3105 45.7349C42.2996 57.7995 44.1182 72.518 51.773 82.9162C52.0837 83.3384 52.3538 83.6317 52.6213 84.0211C53.0189 84.5997 54.903 86.6095 55.4099 87.0963C55.7455 87.4186 56.1 87.7091 56.3934 88.0603C56.7507 88.4879 59.1452 90.5304 59.7368 90.7935C59.505 90.2493 58.3586 88.5584 57.8003 87.5737C57.6596 87.3258 57.5989 87.2574 57.4662 87.0569C57.2932 86.7957 57.2823 86.6667 57.174 86.4282C56.9957 86.0356 56.7662 85.7221 56.5707 85.3417C56.0426 84.3128 55.4643 82.8047 55.0269 81.6741C50.6817 70.4378 51.5366 57.9254 56.2445 47.3353C57.7663 43.9125 59.7332 40.6663 62.025 37.7426L63.5564 35.9279C64.5961 34.5888 66.5703 32.8097 67.8736 31.6078C68.7737 30.7779 70.7329 29.2905 71.6781 28.645C73.1091 27.6681 75.4672 26.2128 77.0275 25.4798C79.1361 24.4893 80.8444 23.7429 83.1197 23.063C83.629 22.9108 85.4759 22.4832 85.7718 22.2903C84.9518 21.8459 79.6901 22.0348 78.4764 22.1551C76.2295 22.378 74.0194 22.7493 71.9415 23.35C67.7929 24.5498 63.2045 26.7215 60.1323 29.1328C59.8199 29.378 59.3165 29.7002 59.0162 29.9714C58.5867 30.359 58.4248 30.5199 57.9459 30.8453C57.4694 31.1688 56.3168 32.3998 55.9516 32.7561C55.5769 33.1218 55.309 33.288 54.9435 33.701C54.2238 34.5148 53.097 35.729 52.5232 36.5835L51.4564 38.0332C49.8087 40.4265 48.4803 42.9181 47.3105 45.7349V45.7349Z" fill="#D1759F"/>
<path fill-rule="evenodd" clip-rule="evenodd" d="M57.5863 52.0965C53.9233 60.0978 53.7463 69.763 57.9554 77.5983C58.1654 77.9894 58.3422 78.3861 58.5717 78.7377C59.7682 80.5714 59.9935 81.1076 61.5343 82.9227L62.28 83.7718C62.3806 83.8473 62.3584 83.8424 62.3508 83.8398C62.3586 83.8432 62.3924 83.859 62.4991 83.9154C61.9427 82.2423 61.5309 81.7011 60.8948 79.4932C59.4346 74.4252 59.1146 68.7317 60.3518 63.6434C61.376 59.4309 62.5896 56.5518 64.8146 53.0468C65.2288 52.3947 65.6206 51.8724 66.065 51.2415C67.2413 49.572 67.746 49.2096 68.8521 47.8822L71.11 45.6543C80.5084 37.3835 93.3892 34.1804 106.406 36.7671C106.386 36.7488 106.356 36.6981 106.345 36.7152L105.245 36.0714C104.813 35.8564 104.485 35.6908 104.031 35.4783C103.179 35.0793 102.399 34.7598 101.477 34.4093C91.566 30.6421 79.5632 32.183 70.8653 37.4673C70.6308 37.6098 70.4902 37.7258 70.2947 37.8416L68.1566 39.2869C67.7953 39.5583 67.4128 39.81 67.0828 40.0986C66.4515 40.6505 65.7483 41.1735 65.1743 41.7581L61.689 45.4626C60.2907 47.0896 58.4178 50.2798 57.5863 52.0965V52.0965Z" fill="#D92929"/>
</svg>
