<?xml version="1.0" encoding="UTF-8"?> <svg xmlns="http://www.w3.org/2000/svg" width="185" height="40" viewBox="0 0 185 40" fill="none"> <path d="M53.7344 12.5391H55.1172L54.4219 7.52344L53.7344 12.5391ZM50.3359 17L52.7891 4.04688H56.0234L58.4609 17H55.8203L55.375 14.25H53.4844L53.0469 17H50.3359ZM60.1403 17V4.04688H63.0075V9.28125H64.9997V4.04688H67.8669V17H64.9997V11.3281H63.0075V17H60.1403ZM71.3509 17V6.16406H69.3587V4.04688H76.1869V6.16406H74.2181V17H71.3509ZM77.6709 17V4.04688H79.9366V11.4375L83.2256 4.04688H85.085V17H82.7803V9.46875L79.4131 17H77.6709ZM91.0847 17.1797C90.3607 17.1797 89.7435 17.0807 89.2331 16.8828C88.7227 16.6797 88.3191 16.3828 88.0222 15.9922C87.7305 15.6016 87.5196 15.151 87.3894 14.6406C87.2592 14.1302 87.1941 13.5312 87.1941 12.8438V8.22656C87.1941 7.52344 87.2592 6.91406 87.3894 6.39844C87.5196 5.8776 87.7305 5.42448 88.0222 5.03906C88.3191 4.64844 88.7201 4.35677 89.2253 4.16406C89.7357 3.96615 90.3555 3.86719 91.0847 3.86719C91.7826 3.86719 92.3764 3.95573 92.8659 4.13281C93.3607 4.3099 93.7461 4.57031 94.0222 4.91406C94.3034 5.25781 94.504 5.64844 94.6237 6.08594C94.7487 6.52344 94.8112 7.03125 94.8112 7.60938V8.75H92.0144V7.44531C92.0144 7.24219 92.0118 7.08854 92.0066 6.98438C92.0014 6.88021 91.9831 6.7474 91.9519 6.58594C91.9206 6.41927 91.8737 6.29427 91.8112 6.21094C91.754 6.1276 91.6628 6.05469 91.5378 5.99219C91.4128 5.92448 91.2618 5.89062 91.0847 5.89062C90.9076 5.89062 90.7566 5.92448 90.6316 5.99219C90.5066 6.05469 90.4102 6.13281 90.3425 6.22656C90.28 6.3151 90.2279 6.4401 90.1862 6.60156C90.1498 6.75781 90.1264 6.90104 90.1159 7.03125C90.1107 7.16146 90.1081 7.32292 90.1081 7.51562V13.5547C90.1081 14.0755 90.1758 14.474 90.3112 14.75C90.4467 15.0208 90.7045 15.1562 91.0847 15.1562C91.2566 15.1562 91.4024 15.125 91.5222 15.0625C91.6472 14.9948 91.7409 14.9167 91.8034 14.8281C91.8659 14.7396 91.9128 14.6146 91.9441 14.4531C91.9805 14.2917 92.0014 14.151 92.0066 14.0312C92.0118 13.9115 92.0144 13.7526 92.0144 13.5547V12.1953H94.8112V13.3125C94.8112 13.776 94.7748 14.1953 94.7019 14.5703C94.629 14.9453 94.504 15.2995 94.3269 15.6328C94.155 15.9609 93.9284 16.237 93.6472 16.4609C93.3711 16.6849 93.017 16.862 92.5847 16.9922C92.1524 17.1172 91.6524 17.1797 91.0847 17.1797ZM96.6937 17V4.04688H102.514V6H99.5531V9.20312H101.811V11.1953H99.5531V15.0625H102.545V17H96.6937ZM104.17 17V4.04688H111.943V17H109.123V6.09375H106.99V17H104.17ZM115.357 17V6.16406H113.365V4.04688H120.193V6.16406H118.224V17H115.357ZM121.677 17V4.04688H123.943V11.4375L127.232 4.04688H129.091V17H126.787V9.46875L123.419 17H121.677ZM136.239 17V11.6484C135.672 11.7318 135.169 11.7734 134.732 11.7734C134.065 11.7734 133.461 11.6562 132.919 11.4219C132.383 11.1823 131.948 10.8229 131.614 10.3438C131.286 9.85938 131.122 9.28906 131.122 8.63281V4.04688H133.935V8.625C133.935 8.85938 133.948 9.04688 133.974 9.1875C134.005 9.32812 134.067 9.46875 134.161 9.60938C134.26 9.75 134.416 9.85156 134.63 9.91406C134.844 9.97656 135.12 10.0078 135.458 10.0078C135.687 10.0078 135.948 9.98438 136.239 9.9375V4.04688H139.107V17H136.239ZM141.387 17V4.04688H147.208V6H144.247V9.20312H146.505V11.1953H144.247V15.0625H147.239V17H141.387ZM152.575 17.1797C151.851 17.1797 151.234 17.0807 150.723 16.8828C150.213 16.6797 149.809 16.3828 149.512 15.9922C149.221 15.6016 149.01 15.151 148.879 14.6406C148.749 14.1302 148.684 13.5312 148.684 12.8438V8.22656C148.684 7.52344 148.749 6.91406 148.879 6.39844C149.01 5.8776 149.221 5.42448 149.512 5.03906C149.809 4.64844 150.21 4.35677 150.715 4.16406C151.226 3.96615 151.846 3.86719 152.575 3.86719C153.273 3.86719 153.866 3.95573 154.356 4.13281C154.851 4.3099 155.236 4.57031 155.512 4.91406C155.793 5.25781 155.994 5.64844 156.114 6.08594C156.239 6.52344 156.301 7.03125 156.301 7.60938V8.75H153.504V7.44531C153.504 7.24219 153.502 7.08854 153.497 6.98438C153.491 6.88021 153.473 6.7474 153.442 6.58594C153.411 6.41927 153.364 6.29427 153.301 6.21094C153.244 6.1276 153.153 6.05469 153.028 5.99219C152.903 5.92448 152.752 5.89062 152.575 5.89062C152.398 5.89062 152.247 5.92448 152.122 5.99219C151.997 6.05469 151.9 6.13281 151.832 6.22656C151.77 6.3151 151.718 6.4401 151.676 6.60156C151.64 6.75781 151.616 6.90104 151.606 7.03125C151.601 7.16146 151.598 7.32292 151.598 7.51562V13.5547C151.598 14.0755 151.666 14.474 151.801 14.75C151.937 15.0208 152.194 15.1562 152.575 15.1562C152.747 15.1562 152.892 15.125 153.012 15.0625C153.137 14.9948 153.231 14.9167 153.293 14.8281C153.356 14.7396 153.403 14.6146 153.434 14.4531C153.471 14.2917 153.491 14.151 153.497 14.0312C153.502 13.9115 153.504 13.7526 153.504 13.5547V12.1953H156.301V13.3125C156.301 13.776 156.265 14.1953 156.192 14.5703C156.119 14.9453 155.994 15.2995 155.817 15.6328C155.645 15.9609 155.418 16.237 155.137 16.4609C154.861 16.6849 154.507 16.862 154.075 16.9922C153.642 17.1172 153.142 17.1797 152.575 17.1797ZM158.238 17V4.04688H161.106V9.19531H161.379L163.285 4.04688H166.121L163.77 10.125L166.207 17H163.27L161.379 11.3281H161.106V17H158.238ZM167.715 17V4.04688H169.98V11.4375L173.269 4.04688H175.129V17H172.824V9.46875L169.457 17H167.715ZM182.847 2.38281C182.451 2.73698 181.894 2.91406 181.175 2.91406C180.457 2.91406 179.897 2.73698 179.496 2.38281C179.1 2.02865 178.902 1.53385 178.902 0.898438H180.05C180.05 1.22656 180.139 1.46615 180.316 1.61719C180.493 1.76823 180.779 1.84375 181.175 1.84375C181.566 1.84375 181.852 1.76823 182.035 1.61719C182.217 1.46094 182.308 1.22135 182.308 0.898438H183.449C183.449 1.53385 183.248 2.02865 182.847 2.38281ZM177.472 17V4.04688H179.738V11.4375L183.027 4.04688H184.886V17H182.582V9.46875L179.214 17H177.472ZM51.125 36V23.0469H55.7266V23.9844H52.3516V36H51.125ZM57.4606 36V23.0469H62.1403V23.9844H58.6872V28.8359H61.5153V29.7422H58.6872V35.0859H62.1794V36H57.4606ZM63.2963 36.0312V35.0859C63.4785 35.0807 63.6192 35.0729 63.7181 35.0625C63.8171 35.0521 63.9317 35.0286 64.0619 34.9922C64.1921 34.9557 64.291 34.9115 64.3588 34.8594C64.4265 34.8021 64.5072 34.7135 64.6009 34.5938C64.6947 34.474 64.765 34.3411 64.8119 34.1953C64.8588 34.0443 64.9134 33.8438 64.9759 33.5938C65.0436 33.3438 65.0957 33.0729 65.1322 32.7812C65.1739 32.4896 65.2207 32.1302 65.2728 31.7031C65.3249 31.276 65.3692 30.8229 65.4056 30.3438C65.4473 29.8594 65.4942 29.2917 65.5463 28.6406L65.9291 23.0469H70.9681V36H69.7416V23.9688H67.0228L66.7103 28.6484C66.6426 29.5339 66.5853 30.2318 66.5384 30.7422C66.4916 31.2474 66.4291 31.7917 66.3509 32.375C66.278 32.9583 66.2051 33.3984 66.1322 33.6953C66.0593 33.9922 65.9603 34.3073 65.8353 34.6406C65.7155 34.9688 65.5853 35.2031 65.4447 35.3438C65.3041 35.4792 65.1244 35.612 64.9056 35.7422C64.6921 35.8724 64.4577 35.9531 64.2025 35.9844C63.9838 36.0156 63.7285 36.0312 63.4369 36.0312C63.39 36.0312 63.3431 36.0312 63.2963 36.0312ZM73.5381 36V23.0469H74.7647V28.4766H75.8584C77.1449 28.4766 78.0876 28.776 78.6866 29.375C79.2855 29.974 79.585 30.9427 79.585 32.2812C79.585 33.4948 79.2907 34.4193 78.7022 35.0547C78.1136 35.6849 77.184 36 75.9131 36H73.5381ZM74.7647 35.0625H75.9287C76.8194 35.0625 77.4522 34.849 77.8272 34.4219C78.2074 33.9896 78.3975 33.2708 78.3975 32.2656C78.3975 31.2969 78.21 30.5807 77.835 30.1172C77.46 29.6484 76.8194 29.4141 75.9131 29.4141H74.7647V35.0625ZM84.0531 38.2266V35.0859H84.5609C84.738 34.9609 84.876 34.8568 84.975 34.7734C85.0792 34.6849 85.2016 34.5521 85.3422 34.375C85.4828 34.1927 85.5948 33.9896 85.6781 33.7656C85.7615 33.5417 85.8552 33.2422 85.9594 32.8672C86.0687 32.487 86.1573 32.0443 86.225 31.5391C86.2979 31.0339 86.3708 30.4219 86.4437 29.7031C86.5219 28.9844 86.5922 28.1615 86.6547 27.2344L86.9359 23.0469H91.8187V35.0859H92.8812V38.2266H91.9203L91.8031 36H85.1234L85.0141 38.2266H84.0531ZM85.8031 35.0859H90.5922V23.9688H88.0141L87.7719 27.5C87.6573 29.2812 87.5167 30.6927 87.35 31.7344C87.1417 33.0625 86.85 33.9714 86.475 34.4609C86.3448 34.6328 86.1208 34.8411 85.8031 35.0859ZM93.8887 36.0312V35.0859C94.071 35.0807 94.2117 35.0729 94.3106 35.0625C94.4096 35.0521 94.5242 35.0286 94.6544 34.9922C94.7846 34.9557 94.8835 34.9115 94.9512 34.8594C95.019 34.8021 95.0997 34.7135 95.1934 34.5938C95.2872 34.474 95.3575 34.3411 95.4044 34.1953C95.4512 34.0443 95.5059 33.8438 95.5684 33.5938C95.6361 33.3438 95.6882 33.0729 95.7247 32.7812C95.7664 32.4896 95.8132 32.1302 95.8653 31.7031C95.9174 31.276 95.9617 30.8229 95.9981 30.3438C96.0398 29.8594 96.0867 29.2917 96.1387 28.6406L96.5216 23.0469H101.561V36H100.334V23.9688H97.6153L97.3028 28.6484C97.2351 29.5339 97.1778 30.2318 97.1309 30.7422C97.0841 31.2474 97.0216 31.7917 96.9434 32.375C96.8705 32.9583 96.7976 33.3984 96.7247 33.6953C96.6518 33.9922 96.5528 34.3073 96.4278 34.6406C96.308 34.9688 96.1778 35.2031 96.0372 35.3438C95.8966 35.4792 95.7169 35.612 95.4981 35.7422C95.2846 35.8724 95.0502 35.9531 94.795 35.9844C94.5762 36.0156 94.321 36.0312 94.0294 36.0312C93.9825 36.0312 93.9356 36.0312 93.8887 36.0312ZM103.318 36L105.943 30.125C105.334 29.8854 104.87 29.4557 104.553 28.8359C104.24 28.2109 104.084 27.4479 104.084 26.5469C104.084 26.0417 104.144 25.5859 104.263 25.1797C104.383 24.7734 104.576 24.4062 104.842 24.0781C105.112 23.75 105.487 23.4974 105.967 23.3203C106.446 23.138 107.016 23.0469 107.678 23.0469H110.428V36H109.201V30.4531H107.568C107.365 30.4531 107.18 30.4427 107.013 30.4219L104.678 36H103.318ZM107.763 29.5469H109.201V23.9531H107.732C106.909 23.9531 106.292 24.1589 105.881 24.5703C105.469 24.9818 105.263 25.6406 105.263 26.5469C105.263 27.5729 105.456 28.3307 105.842 28.8203C106.227 29.3047 106.868 29.5469 107.763 29.5469ZM116.583 36V23.0469H119.692C120.26 23.0469 120.747 23.1276 121.153 23.2891C121.56 23.4505 121.88 23.6875 122.114 24C122.349 24.3073 122.518 24.6641 122.622 25.0703C122.726 25.4766 122.778 25.9453 122.778 26.4766C122.778 26.9557 122.721 27.3958 122.607 27.7969C122.497 28.1927 122.323 28.5495 122.083 28.8672C121.849 29.1797 121.528 29.4245 121.122 29.6016C120.721 29.7786 120.25 29.8672 119.708 29.8672H117.81V36H116.583ZM117.81 28.9609H119.364C120.161 28.9609 120.729 28.7786 121.067 28.4141C121.411 28.0443 121.583 27.401 121.583 26.4844C121.583 25.4896 121.432 24.8203 121.13 24.4766C120.828 24.1276 120.245 23.9531 119.38 23.9531H117.81V28.9609ZM124.364 37.6641L124.372 36.7109C124.58 36.7214 124.768 36.7266 124.934 36.7266C125.059 36.7266 125.174 36.724 125.278 36.7188C125.518 36.7031 125.723 36.6536 125.895 36.5703C126.072 36.487 126.205 36.3984 126.294 36.3047C126.387 36.2161 126.46 36.0651 126.512 35.8516C126.565 35.6328 126.598 35.4245 126.614 35.2266C126.63 35.0286 126.64 34.7422 126.645 34.3672L123.88 23.0469H125.059L126.395 28.8594L127.255 33.0234L128.012 28.8438L129.192 23.0469H130.387L127.911 34.4219C127.89 34.5208 127.861 34.6667 127.825 34.8594C127.742 35.2656 127.669 35.599 127.606 35.8594C127.544 36.1146 127.46 36.3594 127.356 36.5938C127.257 36.8333 127.137 37.0156 126.997 37.1406C126.856 37.2708 126.666 37.3828 126.427 37.4766C126.192 37.5703 125.911 37.6302 125.583 37.6562C125.401 37.6719 125.195 37.6797 124.966 37.6797C124.778 37.6797 124.578 37.6745 124.364 37.6641ZM132.114 36V23.0469H133.34V28.9922H134.262L136.903 23.0469H138.145L135.332 29.2812L138.575 36H137.34L134.27 29.6484H133.34V36H132.114Z" fill="#101035"></path> <path fill-rule="evenodd" clip-rule="evenodd" d="M35.9298 26.5666V13.2607V12.9346L35.7001 12.7049L27.0185 4.02332L26.7888 3.79358H26.4627H13.1568H12.8308L12.601 4.02332L3.91943 12.7049L3.6897 12.9346V13.2607V26.5666V26.8927L3.91943 27.1224L12.601 35.804L12.8308 36.0337H13.1568H26.4627H26.7888L27.0185 35.804L35.7001 27.1224L35.9298 26.8927V26.5666Z" fill="#EB0626"></path> <path fill-rule="evenodd" clip-rule="evenodd" d="M27.0185 1.19983H12.601H11.7562L11.1597 1.79639L1.69251 11.2635L1.09595 11.8601V12.7049V27.1224V27.9672L1.69251 28.5637L11.1597 38.0309L11.7562 38.6274H12.601H27.0185H27.8633L28.4599 38.0309L37.927 28.5637L38.5236 27.9672V27.1224V12.7049V11.8601L37.927 11.2635L28.4599 1.79639L27.8633 1.19983H27.0185ZM2.57808 27.1224V12.7049L2.58549 12.6086L2.61143 12.5159L2.65219 12.427L2.70778 12.3492L2.74113 12.3121L12.2083 2.845L12.2824 2.782L12.3676 2.73384L12.4565 2.70049L12.5529 2.68567L12.601 2.68195H27.0185L27.1148 2.68937L27.2075 2.7153L27.2964 2.75606L27.3742 2.81165L27.4113 2.845L36.8784 12.3121L36.9414 12.3862L36.9895 12.4715L37.0229 12.5604L37.0377 12.6567L37.0414 12.7049V27.1224L37.034 27.2187L37.0081 27.3113L36.9673 27.4003L36.9117 27.4781L36.8784 27.5151L27.4113 36.9823L27.3371 37.0452L27.2519 37.0934L27.163 37.1268L27.0667 37.1416L27.0185 37.1453H12.601L12.5047 37.1379L12.412 37.1119L12.3231 37.0712L12.2453 37.0156L12.2083 36.9823L2.74113 27.5151L2.67813 27.441L2.62997 27.3558L2.59662 27.2669L2.58179 27.1705L2.57808 27.1224Z" fill="#EB0626"></path> <path fill-rule="evenodd" clip-rule="evenodd" d="M18.4378 19.8193C18.3909 20.4068 17.4622 20.5715 17.4594 19.6255C17.4519 17.0772 17.4355 14.5068 17.4592 11.9579C17.4681 10.9511 17.4644 11.69 17.4617 10.9092L17.4609 10.6724C17.4586 9.99667 17.4608 8.90941 17.47 8.33348C17.4812 7.64032 17.534 7.02232 17.1365 6.54144C16.7894 6.12145 16.0946 5.86988 15.433 6.22802C14.8469 6.54534 14.7175 7.03691 14.7184 7.89075L14.7184 17.2963C14.7184 19.3978 14.7387 19.3866 14.7102 21.6622C14.7038 22.1699 14.6811 22.8365 14.7342 23.2471C16.665 23.4955 18.2403 24.112 19.5089 25.5019C20.0304 26.0733 20.5256 26.7046 20.9188 27.5849C21.2105 28.2378 21.6143 29.6399 21.5356 30.4598L20.6301 30.4623C20.5432 29.2271 20.4312 28.5134 19.7945 27.3965C18.8339 25.7111 17.1916 24.5396 15.2008 24.2274C14.5792 24.1299 13.8565 24.3083 13.7494 23.743C13.727 23.6251 13.7177 23.4261 13.7154 23.196C13.6962 21.3009 13.7857 20.3911 13.7411 18.1772C13.7382 18.0348 13.7361 17.8998 13.7361 17.7818C13.7361 17.2372 13.8109 16.6111 13.5719 16.168C13.3906 15.8317 13.0037 15.4954 12.4881 15.4547C11.9068 15.4087 11.5163 15.697 11.28 15.9914C10.9345 16.4217 10.9978 16.8564 10.9978 17.4909C10.9978 17.5956 10.9992 17.7051 11.001 17.8176C11.0312 19.6128 11.0252 21.5694 10.9854 23.3564C10.9269 25.9825 10.8453 28.4963 12.3831 30.9308C15.7804 36.309 23.5676 36.2831 27.0044 31.2782C28.703 28.8045 28.6946 26.6435 28.6452 23.6226C28.5885 20.1482 28.6224 22.0968 28.6232 17.5803L28.624 13.1756C28.624 12.3426 28.7963 11.1946 28.324 10.6258C27.8654 10.0736 27.0065 9.87806 26.3521 10.4567C25.7192 11.0163 25.8855 11.83 25.8855 12.8363C25.8855 14.7494 25.8135 17.951 25.8098 19.8641C25.5219 20.4779 25.1184 20.3749 24.9029 19.9266C24.912 16.478 24.9032 11.8728 24.9032 8.42408C24.9032 7.49791 24.9983 6.85137 24.3947 6.3622C23.8302 5.90481 23.0264 5.98384 22.5543 6.46466C22.027 7.00169 22.1589 7.77571 22.1605 8.66648L22.16 18.9939C22.16 19.3675 22.2432 19.9069 22.0225 20.1385C21.7583 20.4157 21.2617 20.2761 21.1931 19.9041C21.1342 19.5853 21.1773 12.0465 21.1805 10.8968C21.1811 10.6785 21.1729 10.3433 21.1766 10.0519C21.1899 9.0272 21.1903 9.95011 21.1802 8.96272C21.1745 8.39636 21.1815 7.82575 21.1815 7.26043C21.1815 6.64217 21.2843 5.9567 20.9546 5.43953C20.3736 4.52802 18.8443 4.62646 18.4967 5.79973C18.355 6.27791 18.4402 16.4178 18.4402 17.8302C18.4402 18.4387 18.4847 19.2337 18.4379 19.8193H18.4378Z" fill="#151616"></path> <path fill-rule="evenodd" clip-rule="evenodd" d="M9.78039 21.5136C9.21638 21.5136 8.7338 21.4403 8.33279 21.2897C7.93375 21.141 7.61813 20.9191 7.38606 20.6259C7.15187 20.3307 6.98292 19.9866 6.87908 19.5937C6.77326 19.1988 6.72021 18.7366 6.72021 18.2031V14.63C6.72021 14.0945 6.77326 13.6282 6.87908 13.2353C6.98292 12.8404 7.15187 12.4963 7.38606 12.2031C7.61813 11.9079 7.93375 11.688 8.33279 11.5373C8.7338 11.3887 9.21638 11.3134 9.78039 11.3134C10.2303 11.3134 10.6253 11.3602 10.9673 11.4538C11.3094 11.5476 11.5903 11.6778 11.8102 11.8427C12.0321 12.0076 12.2113 12.2113 12.3517 12.4556C12.4902 12.7019 12.5879 12.9625 12.6469 13.2414C12.704 13.5183 12.7325 13.8298 12.7325 14.1718V15.0595H10.3525V13.9744C10.3525 13.8319 10.3484 13.7179 10.3403 13.6323C10.332 13.5468 10.3118 13.4471 10.2791 13.3331C10.2445 13.219 10.1855 13.1336 10.102 13.0766C10.0186 13.0196 9.91061 12.991 9.78039 12.991C9.67244 12.991 9.5808 13.0113 9.50349 13.0562C9.42604 13.099 9.36702 13.1519 9.32631 13.2109C9.28759 13.2699 9.25709 13.3494 9.23469 13.4491C9.21227 13.5489 9.19808 13.6365 9.19198 13.7118C9.18588 13.7871 9.18376 13.8766 9.18376 13.9805V18.8485C9.18376 18.9504 9.18588 19.0419 9.19198 19.1193C9.19808 19.1966 9.21439 19.2842 9.23667 19.3819C9.2612 19.4796 9.29369 19.5591 9.33242 19.6202C9.37313 19.6812 9.43214 19.7341 9.50958 19.7748C9.5869 19.8177 9.67654 19.838 9.78039 19.838C9.91061 19.838 10.0186 19.8094 10.102 19.7504C10.1855 19.6934 10.2445 19.608 10.2791 19.4918C10.3118 19.3758 10.332 19.2761 10.3403 19.1905C10.3484 19.105 10.3525 18.9911 10.3525 18.8485V17.7144H12.7325V18.5982C12.7325 18.9422 12.704 19.2558 12.6469 19.5367C12.5879 19.8177 12.4902 20.0824 12.3517 20.3327C12.2113 20.5832 12.0321 20.7929 11.8102 20.9618C11.5903 21.1308 11.3094 21.2653 10.9673 21.365C10.6253 21.4647 10.2303 21.5136 9.78039 21.5136ZM14.7726 21.3589V13.2577H13.3291V11.4701H18.6328V13.2577H17.1954V21.3589H14.7726ZM23.8897 21.2958C23.4907 21.4403 23.0081 21.5136 22.4442 21.5136C21.8802 21.5136 21.3976 21.4403 21.0006 21.2958C20.6037 21.1512 20.2861 20.9333 20.0519 20.6464C19.8177 20.3571 19.6487 20.0171 19.5449 19.6263C19.4411 19.2354 19.3901 18.7712 19.3901 18.2397V14.5893C19.3901 14.0558 19.4411 13.5936 19.5449 13.2028C19.6487 12.8098 19.8177 12.4699 20.0519 12.1828C20.2861 11.8937 20.6037 11.6778 21.0006 11.5312C21.3976 11.3867 21.8802 11.3134 22.4442 11.3134C23.0081 11.3134 23.4907 11.3867 23.8897 11.5312C24.2908 11.6778 24.6084 11.8937 24.8446 12.1828C25.0808 12.4699 25.2517 12.8098 25.3577 13.2028C25.4635 13.5936 25.5164 14.0558 25.5164 14.5893V18.2397C25.5164 18.7712 25.4635 19.2354 25.3577 19.6263C25.2517 20.0171 25.0808 20.3571 24.8446 20.6464C24.6084 20.9333 24.2908 21.1512 23.8897 21.2958ZM22.4442 19.838C22.5744 19.838 22.6824 19.8094 22.7658 19.7504C22.8493 19.6934 22.9104 19.61 22.945 19.4981C22.9817 19.386 23.0041 19.2842 23.0142 19.1927C23.0244 19.103 23.0285 18.989 23.0285 18.8546V13.9683C23.0285 13.8339 23.0244 13.7199 23.0142 13.6282C23.0041 13.5366 22.9817 13.4369 22.945 13.3269C22.9104 13.217 22.8493 13.1336 22.7658 13.0766C22.6824 13.0196 22.5744 12.991 22.4442 12.991C22.3363 12.991 22.2446 13.0113 22.1693 13.0562C22.094 13.099 22.037 13.1498 22.0004 13.2089C21.9616 13.2658 21.9331 13.3452 21.9128 13.4471C21.8944 13.5489 21.8822 13.6323 21.8802 13.6975C21.8782 13.7627 21.8782 13.8522 21.8782 13.9683V18.8546C21.8782 18.9646 21.8782 19.0542 21.8802 19.1213C21.8822 19.1905 21.8944 19.2741 21.9128 19.3758C21.9331 19.4777 21.9616 19.5571 22.0004 19.6141C22.037 19.6711 22.094 19.724 22.1693 19.7687C22.2446 19.8157 22.3363 19.838 22.4442 19.838ZM26.8296 21.3589V11.4701H32.9008V21.3589H30.5269V13.1987H29.2036V21.3589H26.8296Z" fill="white"></path> <path fill-rule="evenodd" clip-rule="evenodd" d="M6.71912 28.4357L6.82481 22.0094H7.97589L8.95628 26.3306L9.96454 22.0094H11.0879L11.1964 28.4357H10.3244L10.2623 24.2653L9.2739 28.4357H8.65724L7.65442 24.2534L7.60019 28.4357H6.71912ZM12.1583 28.4357V22.0094H13.1308V26.0251L14.876 22.0094H15.6738V28.4357H14.6894V24.3421L12.9416 28.4357H12.1583ZM16.6582 28.4357V22.0094H17.829V24.7138H18.0579L19.0965 22.0094H20.2595L19.0542 25.0407L20.3562 28.4357H19.1706L18.0619 25.4429H17.829V28.4357H16.6582ZM22.104 24.7416H22.4797C22.8104 24.7416 23.034 24.6768 23.1505 24.5458C23.2669 24.4148 23.3251 24.1754 23.3251 23.8274C23.3251 23.6276 23.3173 23.4741 23.3014 23.3655C23.2868 23.2571 23.2498 23.1579 23.1929 23.0693C23.136 22.9792 23.0513 22.9184 22.9388 22.8853C22.8264 22.8509 22.6756 22.8351 22.4837 22.8351H22.104V24.7416ZM20.933 28.4357V22.0094H22.7827C23.8782 22.0094 24.4259 22.6167 24.4259 23.8339C24.4259 24.432 24.2765 24.8687 23.9761 25.1465C23.6771 25.4243 23.2538 25.5633 22.7086 25.5633H22.104V28.4357H20.933ZM26.7878 28.5138C26.1262 28.5138 25.6511 28.3339 25.364 27.974C25.0783 27.6154 24.9341 27.0888 24.9341 26.3968V24.0245C24.9341 23.6831 24.9671 23.3881 25.0306 23.1366C25.0955 22.8867 25.2 22.6697 25.3428 22.4858C25.4871 22.3019 25.679 22.1642 25.9185 22.073C26.1592 21.9816 26.4489 21.9353 26.7878 21.9353C27.4466 21.9353 27.9203 22.1126 28.2074 22.4659C28.4958 22.8205 28.6401 23.3391 28.6401 24.0245V26.3968C28.6401 26.7328 28.6069 27.0279 28.5408 27.282C28.4746 27.5374 28.3701 27.7583 28.2273 27.9448C28.0843 28.1327 27.8924 28.2743 27.6517 28.3695C27.4109 28.4647 27.1225 28.5138 26.7878 28.5138ZM26.494 27.5943C26.576 27.6286 26.6738 27.6445 26.7878 27.6445C26.9015 27.6445 26.9981 27.6286 27.0775 27.5943C27.1582 27.5611 27.2217 27.5175 27.2693 27.4633C27.3169 27.409 27.3553 27.3375 27.3817 27.2501C27.4096 27.1616 27.4267 27.0742 27.436 26.9856C27.4453 26.8983 27.4506 26.7937 27.4506 26.672V23.7533C27.4506 23.5984 27.4426 23.4688 27.4267 23.3655C27.4109 23.2624 27.3804 23.1645 27.3354 23.0733C27.2905 22.9806 27.223 22.9131 27.1318 22.8668C27.0417 22.8218 26.9266 22.7993 26.7878 22.7993C26.6475 22.7993 26.5323 22.8218 26.4398 22.8668C26.3484 22.9131 26.2809 22.9806 26.2373 23.0733C26.1923 23.1645 26.1632 23.2624 26.1474 23.3655C26.1315 23.4688 26.1248 23.5984 26.1248 23.7533V26.672C26.1248 26.7937 26.1288 26.8983 26.1381 26.9856C26.1474 27.0742 26.1645 27.1616 26.1923 27.2501C26.2187 27.3375 26.2559 27.409 26.3021 27.4633C26.3497 27.5175 26.4133 27.5611 26.494 27.5943ZM30.6789 27.6366H30.8456C31.0216 27.6366 31.1658 27.622 31.2809 27.5903C31.396 27.5598 31.4952 27.5042 31.5787 27.4235C31.6606 27.3442 31.7201 27.2317 31.756 27.0888C31.793 26.9459 31.8089 26.762 31.8062 26.5397C31.8036 26.1785 31.7321 25.9178 31.5893 25.7577C31.4476 25.5977 31.1935 25.5169 30.8298 25.5169H30.6789V27.6366ZM29.508 28.4357V22.0094H32.4809V22.8774H30.6789V24.6992H30.8681C31.2148 24.6992 31.5098 24.7297 31.7546 24.7906C31.9981 24.8515 32.2084 24.952 32.3844 25.0949C32.5604 25.2364 32.6901 25.4283 32.7734 25.6678C32.8581 25.9086 32.9004 26.2037 32.9004 26.5555C32.9004 26.8426 32.8699 27.0941 32.8092 27.3097C32.7483 27.5255 32.6609 27.7041 32.5484 27.8469C32.436 27.9885 32.2944 28.1036 32.1224 28.1909C31.9504 28.2796 31.7613 28.3418 31.5548 28.3801C31.3484 28.4171 31.1116 28.4357 30.8456 28.4357H29.508Z" fill="white"></path> <path fill-rule="evenodd" clip-rule="evenodd" d="M33.2634 11.1468C33.3255 11.0699 33.3598 10.9507 33.3513 10.8486C33.3399 10.7106 33.2747 10.6147 33.2055 10.552C33.1317 10.4851 33.0181 10.4297 32.8784 10.4395C32.6446 10.4558 32.4508 10.6587 32.4684 10.9128C32.4746 11.0017 32.5089 11.087 32.5603 11.1521L32.5859 11.1823L32.6283 11.2223C32.6701 11.2549 32.6973 11.2725 32.7506 11.294C32.8672 11.3413 33.0041 11.3302 33.1138 11.2736C33.1443 11.2577 33.1712 11.2396 33.1962 11.2179C33.2293 11.1892 33.2359 11.1809 33.2634 11.1468ZM33.126 10.5997C33.2494 10.6964 33.2991 10.8617 33.2392 11.0124C33.2199 11.061 33.2017 11.085 33.1703 11.1215C33.1135 11.1876 33.0216 11.2287 32.9292 11.2348C32.8755 11.2384 32.8226 11.2276 32.7784 11.2103C32.7292 11.1908 32.7061 11.1731 32.6693 11.1414C32.6427 11.1185 32.6133 11.0805 32.5931 11.0409C32.572 11.0002 32.5603 10.9532 32.5559 10.9009C32.5499 10.8312 32.5735 10.7466 32.6104 10.6904C32.6742 10.5932 32.7697 10.5358 32.8904 10.527C32.9733 10.521 33.063 10.5503 33.126 10.5997Z" fill="white"></path> <path fill-rule="evenodd" clip-rule="evenodd" d="M33.0137 10.9247L33.0042 10.9009C33.0341 10.8886 33.0584 10.853 33.065 10.8114C33.0723 10.7652 33.0665 10.7264 33.0403 10.6894C33.0217 10.6634 32.9821 10.6464 32.9353 10.6445C32.9187 10.6438 32.7945 10.6435 32.7842 10.6449V11.0866L32.8737 11.087L32.874 10.9246L32.9182 10.9251L32.9513 11.0055L32.968 11.0461L32.9845 11.087H33.0813C33.0813 11.0783 33.023 10.947 33.0137 10.9247H33.0137ZM32.9526 10.8451C32.9356 10.8556 32.8963 10.8521 32.8739 10.8521L32.8738 10.7187C32.8972 10.7198 32.9345 10.7143 32.9526 10.7255C32.9878 10.7472 32.9855 10.8251 32.9526 10.8451Z" fill="white"></path> </svg> 