<?xml version="1.0" encoding="UTF-8"?> <svg xmlns="http://www.w3.org/2000/svg" width="96" height="96" viewBox="0 0 96 96" fill="none"> <path d="M78.4208 75.3557C77.7344 77.9175 76.0584 80.1017 73.7616 81.4278L52.2384 93.8542C49.9416 95.1803 47.212 95.5396 44.6502 94.8532L20.6443 88.4208C18.0825 87.7344 15.8983 86.0584 14.5722 83.7616L2.14578 62.2384C0.819699 59.9416 0.460347 57.212 1.14678 54.6502L7.57916 30.6442C8.26559 28.0824 9.94157 25.8983 12.2384 24.5722L33.7616 12.1458C36.0584 10.8197 38.788 10.4603 41.3498 11.1468L65.3557 17.5791C67.9175 18.2656 70.1017 19.9416 71.4278 22.2384L83.8542 43.7616C85.1803 46.0584 85.5397 48.788 84.8532 51.3498L78.4208 75.3557Z" fill="#F5F8FA"></path> <path d="M93.877 44.8988C94.4948 47.2044 94.1714 49.661 92.9779 51.7282L80.5515 73.2514C79.358 75.3185 77.3923 76.8269 75.0867 77.4447L51.0807 83.8771C48.7751 84.4949 46.3185 84.1714 44.2513 82.978L22.7281 70.5516C20.661 69.3581 19.1526 67.3923 18.5348 65.0867L12.1024 41.0807C11.4846 38.7751 11.8081 36.3185 13.0015 34.2514L25.4279 12.7282C26.6214 10.661 28.5872 9.15265 30.8928 8.53486L54.8988 2.10248C57.2044 1.48469 59.661 1.80811 61.7281 3.00158L83.2513 15.428C85.3185 16.6215 86.8269 18.5872 87.4446 20.8928L93.877 44.8988Z" stroke="#EB0626" stroke-width="2"></path> <path fill-rule="evenodd" clip-rule="evenodd" d="M60.7977 37.461C60.9668 37.753 60.967 38.1132 60.7975 38.4061C60.6278 38.6992 60.3159 38.8795 59.977 38.8795H46.1017C45.7635 38.8795 45.4508 38.6986 45.2816 38.4058C45.112 38.1131 45.1121 37.7533 45.2815 37.4612L52.2214 25.434C52.3901 25.1416 52.7026 24.961 53.0408 24.961C53.3786 24.961 53.6905 25.1413 53.8599 25.4344L60.7977 37.461ZM53.0408 27.8012L47.7406 36.9873H58.3405L53.0408 27.8012ZM45.2815 48.4847C45.1121 48.1926 45.1121 47.8325 45.2815 47.5403C45.4508 47.2474 45.7637 47.0662 46.1017 47.0662H59.977C60.3162 47.0662 60.6275 47.2466 60.7964 47.5393C60.966 47.8332 60.9662 48.1936 60.7972 48.4843L53.8591 60.5122C53.6898 60.8051 53.3778 60.9854 53.0398 60.9854C52.7014 60.9854 52.3891 60.8047 52.2206 60.5125L45.2821 48.4857L45.2815 48.4847ZM47.7398 48.9588L53.0408 58.1453L58.3405 48.9588H47.7398ZM46.1017 42.016H59.9771C60.4997 42.016 60.9234 42.4394 60.9234 42.9624C60.9234 43.485 60.4994 43.9089 59.9771 43.9089H46.1017C45.5797 43.9089 45.1556 43.485 45.1556 42.9624C45.1556 42.4393 45.5793 42.016 46.1017 42.016ZM39.5272 23.9875C39.5272 20.9623 41.9889 18.5 45.0138 18.5H60.9847C64.0106 18.5 66.473 20.9624 66.473 23.9875V62.0125C66.473 65.0377 64.0105 67.5 60.9845 67.5H45.0136C41.9889 67.5 39.5272 65.0377 39.5272 62.0125V23.9875ZM64.5814 62.0125V23.9875C64.5814 22.0049 62.9676 20.3924 60.9847 20.3924H45.0138C43.0309 20.3924 41.4198 22.0054 41.4198 23.9875V62.0125C41.4198 63.9946 43.0309 65.6075 45.0138 65.6075H60.9866C62.9687 65.6075 64.5814 63.9948 64.5814 62.0125Z" fill="#EB0626"></path> </svg> 