<svg width="99" height="48" viewBox="0 0 99 48" fill="none" xmlns="http://www.w3.org/2000/svg">
<path d="M30.6504 31.0757H36.7431V33.06H33.8447V47.0027H30.6504V31.0757Z" fill="#0079C2"/>
<path d="M40.3559 41.0235L40.9033 33.06H41.0867L41.6341 41.0235H40.3559ZM36.8184 47.0027H39.9459L40.2419 42.7729H41.7481L42.0454 47.0027H45.1716L43.5057 31.0757H38.4843L36.8184 47.0027Z" fill="#0079C2"/>
<path d="M49.7465 41.4282V44.4309C49.7465 44.8356 50.0608 44.9531 50.2441 44.9531C50.5454 44.9531 50.7549 44.705 50.7549 44.4309V40.7233C50.7549 40.2272 50.6632 39.6789 49.4714 39.6789H48.1748V37.9295H49.5238C50.4275 37.9295 50.7549 37.7206 50.7549 36.7415V33.5822C50.7549 33.3081 50.5454 33.06 50.2441 33.06C50.0608 33.06 49.7465 33.1645 49.7465 33.5822V36.1802H46.5508V33.9217C46.5508 32.812 46.6817 31.0757 48.9213 31.0757H51.5669C53.8065 31.0757 53.9506 32.812 53.9506 33.9217V36.4674C53.9506 38.2037 52.7326 38.6736 51.7765 38.6345V38.7911C53.9244 38.7389 53.9506 40.3838 53.9506 40.9452V44.1567C53.9506 45.2794 53.8065 47.0027 51.5669 47.0027H48.9213C46.6817 47.0027 46.5508 45.2794 46.5508 44.1567V41.4282H49.7465Z" fill="#0079C2"/>
<path d="M56.0459 31.0757H63.4457V47.0027H60.25V33.06H59.2416V47.0027H56.0459V31.0757Z" fill="#0079C2"/>
<path d="M68.7367 39.8355V33.06H69.1558C69.4963 33.06 69.7451 33.3472 69.7451 33.8564V39.0392C69.7451 39.5483 69.4963 39.8355 69.1558 39.8355H68.7367ZM65.541 47.0027H68.7367V41.5849H70.5703C72.7967 41.5849 72.9408 39.8616 72.9408 38.7389V33.9217C72.9408 32.812 72.7967 31.0757 70.5703 31.0757H65.541V47.0027Z" fill="#0079C2"/>
<path d="M79.2412 44.4309C79.2412 44.705 79.0317 44.9531 78.7305 44.9531C78.5471 44.9531 78.2328 44.8356 78.2328 44.4309V33.5822C78.2328 33.1645 78.5471 33.06 78.7305 33.06C79.0317 33.06 79.2412 33.3081 79.2412 33.5822V44.4309ZM75.0371 44.1567C75.0371 45.2794 75.1812 47.0027 77.4077 47.0027H80.0664C82.2929 47.0027 82.4369 45.2794 82.4369 44.1567V33.9217C82.4369 32.812 82.2929 31.0757 80.0664 31.0757H77.4077C75.1812 31.0757 75.0371 32.812 75.0371 33.9217V44.1567Z" fill="#0079C2"/>
<path d="M92.8357 31.0757H97.0006V47.0027H93.8049V37.0157H93.687L92.0368 47.0027H89.4829L87.8458 37.0157H87.7279V47.0027H84.5322V31.0757H88.684L90.7664 42.2768L92.8357 31.0757Z" fill="#0079C2"/>
<path d="M26.5095 9.30023C25.5312 5.03128 23.0794 1.55868 22.7415 0.997314C22.2072 1.79366 20.2518 4.86156 19.2577 8.25585C18.172 12.0548 18.0122 15.423 18.3868 18.7259C18.7587 22.0418 20.164 25.4492 20.164 25.4492C20.9106 27.2246 22.0291 29.1437 22.7573 30.0837C23.8247 28.6998 26.2777 24.5745 27.0426 19.1959C27.4683 16.1932 27.4866 13.5692 26.5095 9.30023ZM22.7415 29.0132C22.2609 28.1124 21.5143 26.4022 21.4436 23.739C21.4253 21.1802 22.456 18.9739 22.7573 18.517C23.0257 18.9739 23.9137 20.893 24.0198 23.517C24.0918 26.0758 23.2379 28.0993 22.7415 29.0132ZM26.2253 16.5457C26.1887 18.1776 25.9935 19.9008 25.7447 20.9322C25.8337 19.1567 25.6203 16.6632 25.2116 14.705C24.803 12.7598 23.6465 9.49606 22.7232 7.99475C21.8706 9.43079 20.8202 12.2506 20.2701 14.6919C19.7174 17.1332 19.7017 20.0967 19.7017 20.9844C19.555 20.2403 19.1883 17.564 19.2918 14.8877C19.3782 12.6815 19.8969 10.3969 20.1811 9.35246C21.2655 5.8668 22.4927 3.63441 22.7232 3.28192C22.9537 3.63441 24.4992 6.38899 25.3007 9.27413C26.0983 12.1593 26.2594 14.9269 26.2253 16.5457Z" fill="#0079C2"/>
<path d="M24.4008 31.0759H16.963V36.0498C16.9695 36.0498 16.9748 36.0368 16.9813 36.0368C18.7337 34.2874 21.5757 34.2874 23.3294 36.0368C25.0818 37.7731 25.0818 40.606 23.3294 42.3554C23.3216 42.3684 23.3137 42.3684 23.3059 42.3815C23.2967 42.3815 23.2875 42.3945 23.2797 42.4076C21.5312 44.1308 19.2471 44.9925 16.963 44.9925C14.6684 44.9925 12.3738 44.1308 10.624 42.3815C7.53836 39.3136 7.17296 34.5485 9.52518 31.0759C9.84213 30.6059 10.2075 30.1621 10.624 29.7443C12.3738 27.995 14.6684 27.1333 16.963 27.1333V15.175C8.14607 15.175 0.999023 22.29 0.999023 31.0759C0.999023 39.8619 8.14607 46.9899 16.963 46.9899C21.56 46.9899 25.7013 45.0447 28.6141 41.9507V31.0759H24.4008Z" fill="#0079C2"/>
</svg>
