<svg xmlns="http://www.w3.org/2000/svg" width="397" height="106"><path fill-rule="evenodd" fill="#50B848" d="M382.144 90.76c-8.362 8.658-18.382 13.48-30.061 14.542-1.959.222-3.992.299-6.026.222-4.144 0-7.607-.302-10.622-1.056l-.075-.15h.148c4.898.529 9.72 0 14.242-1.811.754-.3 1.581-.602 2.333-.899 5.654-2.487 10.095-6.553 13.268-11.752 1.648-2.862 2.783-5.496 3.385-7.906.605-1.731.904-3.691.982-5.649a37.902 37.902 0 0 0 0-5.876c-.228-2.035-.682-4.143-1.209-6.176a24.667 24.667 0 0 0-2.564-5.951c-1.728-2.634-3.767-5.264-6.477-7.909a26.25 26.25 0 0 0-7.385-4.67 26.748 26.748 0 0 0-3.165-1.128c-3.992-1.129-7.979-1.806-12.204-1.733-4.749.305-10.023 1.733-15.896 4.22-5.644 2.601-10.111 5.572-13.488 9.124l-.152-56.2h39.107c1.958 0 3.917.153 5.798.375 11.379 1.438 21.4 6.86 29.911 16.35 10.025 11.289 14.994 23.798 14.994 37.808-.147 13.932-5.194 26.133-14.844 36.225zm-3.99-57.092c-1.961-3.159-3.919-5.874-5.726-7.979-3.015-3.164-5.95-5.573-8.966-7.456-2.411-1.506-5.121-2.713-8.439-3.689a19.458 19.458 0 0 0-2.94-.679c-2.031-.377-4.065-.602-6.103-.757h-25.614v19.963c.605-.155 1.354-.379 1.961-.529.602-.305 1.351-.527 2.034-.754 4.896-1.357 9.565-1.884 14.089-1.884 4.145 0 8.662.527 13.333 1.811.075.073.153.073.3.073 3.847 1.206 7.082 2.639 9.795 4.217 5.729 3.464 10.625 8.209 14.39 14.01 3.24 4.82 5.204 9.867 5.953 15.141a44.797 44.797 0 0 0 1.512-10.771 42.69 42.69 0 0 0-1.135-9.717 51.903 51.903 0 0 0-4.444-11zm-70.976 22.678c.047-.05.105-.094.152-.144l.001.144h-.153zm-25.146 26.712c-1.065 0-1.891.126-2.483.723-.36.346-.708 1.292-1.305 2.71l-5.909 19.387h-23.531l2.25-7.212 4.25-14.066c.597-1.891 1.9-3.898 3.902-5.915 1.54-1.532 4.38-2.361 8.165-2.712h29.795l-2.132 7.085h-13.002zm-30.978 7.924l-1.184 3.547h-27.081l2.129-7.093h3.899l.83-2.242c.118-.594-.119-1.186-.354-1.656-.357-.354-.703-.48-1.065-.48h-.943c-1.07 0-1.659 0-2.134.48-.471.47-1.062 1.178-1.419 2.012l-2.951 10.397a2.609 2.609 0 0 0 0 1.893c.236.472.476.826 1.3.945h26.604l-2.246 7.093v.113h-43.158a12.603 12.603 0 0 1-3.667-.826c-2.956-1.418-3.664-4.251-2.245-8.624.711-2.958 1.532-5.559 2.245-7.684.233-.946.468-1.775.711-2.483 1.181-3.19 2.716-5.437 4.486-7.09 2.134-2.249 4.849-3.311 8.046-3.311h32.99c1.895 0 3.429.351 4.496.94.233.122.471.24.711.359 1.062.832 1.886 1.894 2.121 3.074.241 2.007 0 3.435-.354 4.727l-1.767 5.909zm-51.44-7.924h-9.816c-.943 2.839-1.537 5.088-1.891 6.385-.476 1.066-.711 2.249-1.183 3.192-.233 1.069-.59 2.25-.83 3.195-.349 1.772.121 2.604 2.013 2.604h7.452l-2.248 7.444h-22.469c-1.892 0-3.07 0-4.024-.354-.705 0-1.18 0-1.651-.233-.943-.242-1.777-.829-2.485-1.658-1.295-1.536-1.773-3.668-.825-6.622l3.31-10.399 3.432-11.23 27.551-11.587-3.901 11.94H202.454l-2.372 7.323h-.468zm-43.039 22.82H132.92l2.488-8.038 9.573-31.088H168.631l-3.664 12.054-8.392 27.072zm-21.167-15.369l-2.134 6.739c-1.77 5.796-5.556 8.63-11.349 8.63H88.343c-1.659 0-3.077-.24-4.137-.829-2.488-1.181-3.077-3.782-1.772-7.801l1.772-5.793 2.126-6.855c1.773-5.794 5.558-8.627 11.235-8.627h33.342c1.894 0 3.316.235 4.499.829 2.483 1.18 3.07 3.782 1.77 7.798l-1.77 5.909zm-22.237-7.451h-1.418c-.706 0-1.186.126-1.651.359-.592.243-.951.71-1.065 1.418l-3.55 11.822c-.235 1.299 0 2.128 1.3 2.128h1.658c.706 0 1.181-.235 1.657-.594.465-.351.708-.824.826-1.534l3.783-11.822c.238-1.297 0-1.777-1.54-1.777zM80.302 97.011c-1.656 6.033-5.56 8.98-11.237 8.98H7.458c-5.556 0-7.566-2.947-5.912-8.98l6.625-21.038h22.823L24.958 95.83c-.708 1.772-.233 2.604 1.07 2.604h.705c1.184 0 2.129-.832 2.84-2.604l5.912-19.857h23.293l-6.03 19.857c-.708 1.772-.233 2.604 1.188 2.604h.468c1.3 0 2.248-.832 2.958-2.604l6.031-19.857H86.568l-2.362 8.035-3.904 13.003zM321.72 52.575c2.033-1.808 4.671-3.309 7.992-4.748 2.253-.749 5.044-1.278 8.059-1.578 3.465 0 6.173.3 8.209.829 2.111.522 4.144 1.359 6.103 2.41 1.584.901 3.088 1.883 4.519 3.087 2.866 2.26 4.977 5.046 6.705 8.056 1.814 3.618 3.023 7.536 3.321 11.832 0 2.934-.228 5.796-.982 8.205-1.204 4.748-3.693 8.891-7.155 12.504-1.811 1.883-3.995 3.459-6.408 4.815-.752.379-1.506.762-2.261 1.056a32.04 32.04 0 0 1-9.416 2.186 29.696 29.696 0 0 1-8.139-.904c-5.876-1.504-10.547-4.593-14.312-9.116-6.025-7.077-7.839-15.21-5.503-24.32 1.509-5.956 4.749-10.626 9.268-14.314zm7.61 30.956c2.71 2.714 6.03 4.143 9.875 4.143 3.765 0 7.08-1.429 9.788-4.143a13.09 13.09 0 0 0 3.09-4.515c.682-1.664.984-3.394.984-5.275 0-1.888-.302-3.618-.984-5.274-.677-1.658-1.731-3.166-3.09-4.595-2.708-2.637-6.023-4.068-9.788-4.068-3.845 0-7.165 1.431-9.875 4.068-2.639 2.79-4.073 6.026-4.073 9.869 0 3.764 1.434 7.155 4.073 9.79z"/></svg>