<svg width="99" height="48" viewBox="0 0 99 48" fill="none" xmlns="http://www.w3.org/2000/svg">
<g clip-path="url(#clip0)">
<path d="M30.5596 22.5593H36.8388V24.585H33.8517V38.8181H30.5596V22.5593Z" fill="#0079C2"/>
<path d="M40.5608 32.7144L41.125 24.585H41.314L41.8782 32.7144H40.5608ZM36.915 38.8181H40.1383L40.4434 34.5002H41.9957L42.3021 38.8181H45.524L43.8071 22.5593H38.632L36.915 38.8181Z" fill="#0079C2"/>
<path d="M50.2398 33.1275V36.1927C50.2398 36.6059 50.5637 36.7258 50.7527 36.7258C51.0632 36.7258 51.2791 36.4726 51.2791 36.1927V32.4079C51.2791 31.9015 51.1846 31.3417 49.9563 31.3417H48.62V29.556H50.0103C50.9417 29.556 51.2791 29.3427 51.2791 28.3432V25.1181C51.2791 24.8382 51.0632 24.585 50.7527 24.585C50.5637 24.585 50.2398 24.6916 50.2398 25.1181V27.7701H46.9463V25.4646C46.9463 24.3318 47.0813 22.5593 49.3894 22.5593H52.116C54.4242 22.5593 54.5726 24.3318 54.5726 25.4646V28.0633C54.5726 29.8358 53.3173 30.3156 52.332 30.2756V30.4355C54.5456 30.3822 54.5726 32.0614 54.5726 32.6345V35.9129C54.5726 37.059 54.4242 38.8181 52.116 38.8181H49.3894C47.0813 38.8181 46.9463 37.059 46.9463 35.9129V33.1275H50.2398Z" fill="#0079C2"/>
<path d="M56.7314 22.5593H64.3578V38.8181H61.0643V24.585H60.0249V38.8181H56.7314V22.5593Z" fill="#0079C2"/>
<path d="M69.8111 31.5017V24.585H70.243C70.5939 24.585 70.8504 24.8782 70.8504 25.398V30.6887C70.8504 31.2085 70.5939 31.5017 70.243 31.5017H69.8111ZM66.5176 38.8181H69.8111V33.2875H71.7008C73.9954 33.2875 74.1439 31.5283 74.1439 30.3822V25.4646C74.1439 24.3318 73.9954 22.5593 71.7008 22.5593H66.5176V38.8181Z" fill="#0079C2"/>
<path d="M80.6365 36.1927C80.6365 36.4726 80.4206 36.7258 80.1101 36.7258C79.9212 36.7258 79.5972 36.6059 79.5972 36.1927V25.1181C79.5972 24.6916 79.9212 24.585 80.1101 24.585C80.4206 24.585 80.6365 24.8382 80.6365 25.1181V36.1927ZM76.3037 35.9129C76.3037 37.059 76.4522 38.8181 78.7468 38.8181H81.4869C83.7816 38.8181 83.9301 37.059 83.9301 35.9129V25.4646C83.9301 24.3318 83.7816 22.5593 81.4869 22.5593H78.7468C76.4522 22.5593 76.3037 24.3318 76.3037 25.4646V35.9129Z" fill="#0079C2"/>
<path d="M94.6475 22.5593H98.9399V38.8181H95.6464V28.6231H95.5249L93.8242 38.8181H91.1921L89.5048 28.6231H89.3833V38.8181H86.0898V22.5593H90.3687L92.5149 33.9938L94.6475 22.5593Z" fill="#0079C2"/>
<path d="M25.1235 6.86984C24.3492 3.87332 22.409 1.43579 22.1416 1.04175C21.7187 1.60073 20.1713 3.75419 19.3846 6.13675C18.5254 8.80338 18.3989 11.1676 18.6953 13.486C18.9897 15.8136 20.1018 18.2053 20.1018 18.2053C20.6926 19.4516 21.5777 20.7986 22.154 21.4584C22.9987 20.4871 24.94 17.5914 25.5453 13.8159C25.8822 11.7083 25.8967 9.86637 25.1235 6.86984ZM22.1416 20.707C21.7612 20.0747 21.1704 18.8743 21.1144 17.0049C21.0999 15.2088 21.9156 13.6601 22.154 13.3394C22.3665 13.6601 23.0692 15.0072 23.1532 16.8491C23.2102 18.6452 22.5344 20.0655 22.1416 20.707ZM24.8986 11.9557C24.8696 13.1011 24.7151 14.3107 24.5182 15.0347C24.5887 13.7884 24.4197 12.0382 24.0964 10.6636C23.773 9.29822 22.8578 7.0073 22.1271 5.95348C21.4523 6.96148 20.6211 8.94083 20.1858 10.6544C19.7484 12.368 19.736 14.4482 19.736 15.0713C19.6199 14.549 19.3297 12.6705 19.4115 10.7919C19.4799 9.24324 19.8904 7.6396 20.1153 6.9065C20.9735 4.4598 21.9447 2.89281 22.1271 2.64539C22.3095 2.89281 23.5325 4.82634 24.1668 6.85152C24.798 8.87669 24.9255 10.8194 24.8986 11.9557Z" fill="#0079C2"/>
<path d="M24.1181 22.5595H16.4526V27.6371C16.4594 27.6371 16.4648 27.6238 16.4715 27.6238C18.2776 25.838 21.2066 25.838 23.014 27.6238C24.82 29.3962 24.82 32.2882 23.014 34.074C23.0059 34.0873 22.9978 34.0873 22.9897 34.1006C22.9803 34.1006 22.9708 34.114 22.9627 34.1273C21.1607 35.8864 18.8067 36.766 16.4526 36.766C14.0878 36.766 11.723 35.8864 9.91965 34.1006C6.73952 30.9688 6.36294 26.1045 8.78716 22.5595C9.11381 22.0798 9.49041 21.6266 9.91965 21.2002C11.723 19.4144 14.0878 18.5348 16.4526 18.5348V6.32739C7.36583 6.32739 0 13.5905 0 22.5595C0 31.5285 7.36583 38.805 16.4526 38.805C21.1904 38.805 25.4585 36.8193 28.4604 33.6608V22.5595H24.1181Z" fill="#0079C2"/>
</g>
<defs>
<clipPath id="clip0">
<rect width="99" height="48" fill="white"/>
</clipPath>
</defs>
</svg>
