<svg width="141" height="39" viewBox="0 0 141 39" fill="none" xmlns="http://www.w3.org/2000/svg">
<path fill-rule="evenodd" clip-rule="evenodd" d="M1 33.1499H140.557V7H1V33.1499Z" fill="#B2324E"/>
<path fill-rule="evenodd" clip-rule="evenodd" d="M24.7701 13.8725C23.7288 13.6346 22.6576 13.5153 21.617 13.5153C18.1663 13.5153 15.2802 14.4372 13.5839 15.9843C10.9962 18.2751 9.65723 22.0235 12.3941 24.7611C10.6091 24.136 8.91353 23.1253 8.08031 22.3211C7.03897 21.3992 6.38477 20.0303 6.38477 18.4832C6.38477 17.2636 6.86069 15.9843 7.66407 14.8244C8.58606 13.7234 9.77659 12.7119 11.3528 12.0278C13.0483 11.2841 15.0415 10.897 17.154 10.897C19.861 10.897 21.8542 11.2543 24.7694 12.6223V13.8725H24.7701Z" fill="white"/>
<path fill-rule="evenodd" clip-rule="evenodd" d="M23.8782 20.6844L23.908 23.9277C21.7955 22.5888 19.6837 21.2207 17.5712 19.8817C16.8573 19.4356 16.6194 19.1082 16.5 18.8105H22.2117C23.8483 18.8404 23.8483 19.822 23.8782 20.6844Z" fill="white"/>
<path fill-rule="evenodd" clip-rule="evenodd" d="M29.4713 21.6071V27.6463C26.9724 28.7481 24.0274 29.2821 20.784 29.2821C17.6301 29.2821 13.9414 27.7947 10.1334 25.028H10.1035C12.8702 26.2185 14.477 26.4863 17.2437 26.784C20.8437 26.8436 22.8667 26.3073 25.1866 24.9101V18.8113H25.2761L29.4713 21.6071Z" fill="white"/>
<path fill-rule="evenodd" clip-rule="evenodd" d="M58.5076 24.7902C59.6086 24.7305 59.8466 24.7611 59.8764 23.5997C59.8764 21.1604 59.8764 18.7212 59.8764 16.2812C59.8764 16.0134 59.8764 15.7755 59.8167 15.4778C59.0134 15.4778 57.6744 15.4182 57.1097 15.6561C56.8121 15.7747 56.7822 16.7571 56.7822 17.1435H56.128C56.128 16.2506 56.128 15.3585 56.0684 14.4656C59.4296 14.5551 62.7319 14.5551 66.0044 14.4656C65.9148 15.3585 65.8552 16.2506 65.8552 17.1435H65.201C65.201 16.7862 65.201 15.7449 64.8735 15.5964C64.3678 15.4181 62.9698 15.4771 62.1665 15.4771C62.1665 15.7449 62.1366 16.0127 62.1366 16.2805C62.1366 18.6309 62.1366 20.9516 62.1366 23.3013C62.1366 24.7596 62.1665 24.7596 63.5047 24.7887V25.4735C61.8979 25.3832 60.1427 25.3832 58.5068 25.4735V24.7902H58.5076Z" fill="white"/>
<path fill-rule="evenodd" clip-rule="evenodd" d="M44.2266 15.4194L44.2564 14.8838C45.2977 14.7354 46.0713 14.5265 46.9336 14.3184C47.3207 14.2289 47.6773 14.8241 47.8556 15.1218C48.8671 16.7278 49.4915 18.4539 50.2956 20.0599C50.9498 18.8702 51.5451 17.5312 52.0807 16.3414C52.5573 15.3597 52.9139 15.0621 52.9139 14.4668H54.9369V15.0919C54.223 15.1516 54.0149 15.3299 53.5986 15.8357C52.4678 17.2037 51.8434 18.9 50.9811 20.5068C50.2367 21.9039 48.5113 25.3845 46.9053 25.5039C46.4592 25.5344 45.7453 25.5635 45.3582 25.2957L45.8043 24.1052C47.0537 24.5819 48.1249 23.5398 48.9283 22.2023C48.3032 21.0409 47.7974 19.7623 47.2327 18.5427C46.727 17.4715 46.1615 16.2519 45.1202 15.5678L44.2266 15.4194Z" fill="white"/>
<path fill-rule="evenodd" clip-rule="evenodd" d="M34.9453 24.7902C35.7189 24.7902 36.1649 24.9692 36.1948 24.0472C36.344 21.4886 36.1948 18.93 36.2843 16.3707C36.2843 15.2697 35.9867 15.0914 34.9461 15.0914V14.4663C37.5345 14.6453 40.1222 14.4663 42.6808 14.4663L42.8889 14.7043C42.8292 15.448 42.7994 16.2215 42.7994 16.9951H42.1452C42.1452 16.5482 42.0557 16.1022 42.0258 15.6561C40.7764 15.2988 39.7649 15.3585 38.6049 15.4181C38.5751 15.7449 38.5751 16.1022 38.5751 16.4289V23.4206C38.5751 24.8178 38.6348 24.8484 40.0625 24.7887V25.4735C38.367 25.4138 36.6408 25.4429 34.9453 25.4735V24.7902Z" fill="white"/>
<path fill-rule="evenodd" clip-rule="evenodd" d="M88.0479 19.8222L88.2858 19.0487C89.6248 19.0487 90.9929 19.1971 92.2132 19.8812C93.7596 20.7136 93.4328 22.9746 92.4206 24.0764C90.8444 25.892 88.5529 25.4153 86.4709 25.4153C85.9055 25.4153 85.3699 25.475 84.8351 25.475V25.0871C85.0424 24.9387 85.2811 24.7604 85.4893 24.6119C85.4893 24.224 85.5489 23.8384 85.5489 23.4214V16.6676C85.5489 15.3585 85.4893 15.1802 84.0615 15.0907V14.4656C86.65 14.6148 89.2078 14.4656 91.7962 14.4656L92.0044 14.7035C91.9149 15.4472 91.9149 16.2208 91.9149 16.9943H91.2607C91.2308 16.5475 91.1413 16.1014 91.1122 15.6554C90.1007 15.3577 88.8811 15.3577 87.839 15.4174C87.8099 15.7441 87.7502 16.2208 87.7502 16.5177C87.7801 19.1956 87.7502 21.9019 87.7502 24.6105C88.1672 24.6105 88.5238 24.6992 88.9699 24.6395C90.2492 24.4605 90.8743 23.3602 90.8743 22.11C90.8743 21.0694 90.6065 20.4145 90.0709 20.1765C89.5353 19.9408 88.8512 19.8222 88.0479 19.8222Z" fill="white"/>
<path fill-rule="evenodd" clip-rule="evenodd" d="M123.659 24.7902C124.7 24.7611 125.057 24.7611 125.057 23.6594V16.2812C125.057 15.1802 124.76 15.0914 123.659 15.0914V14.4663C125.354 14.5558 127.021 14.5558 128.687 14.4663V15.0914C127.258 15.0914 127.288 15.3592 127.288 16.6982V19.673H127.496C128.775 18.4534 130.055 17.2039 131.215 15.8657C131.661 15.3898 131.929 15.2115 131.929 14.467C132.91 14.5267 133.863 14.5267 134.815 14.467V15.0921C134.249 15.122 133.713 15.2115 133.238 15.5681C131.928 16.5199 130.709 17.7694 129.549 18.9002C131.126 20.7449 132.464 22.7381 134.19 24.4336C134.458 24.7014 134.815 24.791 135.201 24.8201V25.4757C134.19 25.4161 133.059 25.4452 132.077 25.4757C130.619 23.7198 129.281 21.8758 127.674 20.2392H127.287C127.287 21.3104 127.287 22.4099 127.287 23.452C127.317 24.6716 127.436 24.791 128.686 24.791V25.4757C127.049 25.4161 125.294 25.4161 123.658 25.4757V24.7902H123.659Z" fill="white"/>
<path fill-rule="evenodd" clip-rule="evenodd" d="M108.874 24.7902C110.005 24.7305 110.212 24.7014 110.212 23.5706C110.212 21.1306 110.212 18.7212 110.212 16.2819C110.212 15.2108 109.945 15.122 108.874 15.0922V14.467C110.629 14.5566 112.235 14.5566 113.812 14.467V15.0922C112.414 15.122 112.473 15.3898 112.473 16.6989V19.1389C114.199 19.2284 115.895 19.2284 117.59 19.1389V16.2827C117.59 15.1518 117.293 15.0929 116.192 15.0929V14.4678C117.887 14.4976 119.554 14.5275 121.16 14.4678V15.0929C119.792 15.1227 119.822 15.4204 119.822 16.6997C119.822 18.901 119.822 21.1022 119.822 23.3043C119.822 24.5836 119.822 24.7917 121.16 24.7917V25.4765C119.554 25.4459 117.857 25.4459 116.251 25.4765V24.7917C117.293 24.7917 117.59 24.732 117.59 23.6608V20.1206C115.864 20.1206 114.169 20.0907 112.473 20.1206C112.473 21.191 112.473 22.2331 112.473 23.3035C112.473 24.6425 112.443 24.791 113.812 24.791V25.4757C112.206 25.4161 110.48 25.4452 108.874 25.4757V24.7902Z" fill="white"/>
<path fill-rule="evenodd" clip-rule="evenodd" d="M71.6275 17.0852L71.5678 16.9361L70.1102 20.8329C70.616 20.8635 71.1218 20.8635 71.6275 20.8635C72.1333 20.8635 72.6383 20.8635 73.1149 20.8329L71.6275 17.0852ZM71.6275 21.6959H69.7828C69.515 22.4404 69.1875 23.1833 68.9496 23.9569C68.6818 24.9095 69.3658 24.8498 70.0804 24.8498V25.4749C68.9205 25.4152 67.671 25.3846 66.4805 25.4749V24.8498C67.0459 24.761 67.4323 24.6708 67.7001 24.1359C69.0689 20.9813 70.3781 17.8282 71.6275 14.6154C71.6574 14.5259 71.6872 14.4662 71.717 14.3774H72.7882C74.2458 17.5611 75.5251 21.2797 77.0423 24.4328C77.2206 24.7901 77.7264 24.8498 78.0837 24.8498V25.4749C76.5075 25.4152 74.7515 25.4152 73.1455 25.4749V24.8498C73.978 24.8498 74.6919 24.9095 74.2465 23.8084L73.4133 21.6959H71.6275V21.6959Z" fill="white"/>
<path fill-rule="evenodd" clip-rule="evenodd" d="M100.068 17.0852L100.009 16.9361L98.5516 20.8329C99.0574 20.8635 99.5624 20.8635 100.068 20.8635C100.575 20.8635 101.05 20.8635 101.556 20.8329L100.068 17.0852ZM100.068 21.6959H98.2234C97.9265 22.4404 97.5991 23.1833 97.391 23.9569C97.1232 24.9095 97.7774 24.8498 98.5218 24.8498V25.4749C97.3611 25.4152 96.0818 25.3846 94.9219 25.4749V24.8498C95.4873 24.761 95.9035 24.7013 96.1415 24.1359C97.5401 21.0119 98.8194 17.8282 100.069 14.6154C100.099 14.5259 100.129 14.4662 100.158 14.3774H101.23C102.717 17.5611 103.996 21.2797 105.514 24.4328C105.692 24.7901 106.198 24.8498 106.555 24.8498V25.4749C104.949 25.4152 103.223 25.4152 101.617 25.4749V24.8498C102.42 24.8498 103.163 24.9095 102.718 23.8084L101.885 21.6959H100.068V21.6959Z" fill="white"/>
</svg>
