<?xml version="1.0" encoding="UTF-8"?> <svg xmlns="http://www.w3.org/2000/svg" width="18" height="20" viewBox="0 0 18 20" fill="none"> <path d="M17.4621 10.865C17.0482 9.96902 15.8483 9.38995 14.6111 9.38995C13.5618 9.38995 12.5214 9.80072 11.7147 10.52L11.6562 10.5469H11.0975C11.0972 10.5469 11.097 10.547 11.0967 10.547C9.42755 10.547 8.14062 11.8996 8.14062 13.4766C8.14062 13.8004 7.87863 14.0625 7.55469 14.0625C7.2309 14.0625 6.96875 13.8004 6.96875 13.4766C7.03726 13.3594 7.01453 9.375 11.0967 9.375H11.2609C11.3868 9.27826 11.5243 9.20364 11.6562 9.1185V8.30383L13.3799 2.29324C13.5135 1.82663 13.2438 1.34003 12.7773 1.20621C12.3105 1.07239 11.8239 1.34216 11.6901 1.80878L10.4844 6.01349V7.03125C10.4844 7.35489 10.2221 7.61719 9.89844 7.61719C9.57495 7.61719 9.3125 7.35489 9.3125 7.03125V0.878906C9.3125 0.393524 8.91898 0 8.43359 0C7.94821 0 7.55469 0.393524 7.55469 0.878906V7.03125C7.55469 7.35489 7.29239 7.61719 6.96875 7.61719C6.64526 7.61719 6.38281 7.35489 6.38281 7.03125V6.01349L5.17706 1.80878C5.0434 1.34216 4.55664 1.07239 4.09003 1.20621C3.62341 1.34003 3.35364 1.82663 3.48746 2.29324C3.52515 2.42477 4.97824 7.49207 4.89325 7.19559L2.01285 4.41422C1.66373 4.07684 1.10739 4.08661 0.770172 4.43588C0.432953 4.785 0.442566 5.34134 0.79184 5.67856L2.28125 7.117V9.70322C2.28125 11.461 2.69141 13.2188 3.45312 14.8009V19.4141C3.45312 19.7304 3.71085 20 4.03906 20H11.0703C11.3985 20 11.6562 19.7304 11.6562 19.4141C11.6562 19.2871 11.6562 16.8744 11.6562 16.9948C11.6562 16.9939 11.6569 16.9931 11.6569 16.9922C11.6781 15.8147 11.9973 14.6524 12.5809 13.631C13.5795 11.8829 15.0233 11.6586 16.0532 11.6586C16.3405 11.6586 16.6215 11.6763 16.8893 11.6953C17.3452 11.7287 17.6432 11.2585 17.4621 10.865Z" fill="#101035"></path> </svg> 