<svg width="26" height="26" viewBox="0 0 26 26" fill="none" xmlns="http://www.w3.org/2000/svg">
<path fill-rule="evenodd" clip-rule="evenodd" d="M13 3.24998C7.61526 3.24998 3.25004 7.6152 3.25004 13C3.25004 18.3848 7.61526 22.75 13 22.75C18.3848 22.75 22.75 18.3848 22.75 13C22.75 7.6152 18.3848 3.24998 13 3.24998ZM1.08337 13C1.08337 6.41859 6.41865 1.08331 13 1.08331C19.5814 1.08331 24.9167 6.41859 24.9167 13C24.9167 19.5814 19.5814 24.9166 13 24.9166C6.41865 24.9166 1.08337 19.5814 1.08337 13Z" fill="#E84545"/>
<path fill-rule="evenodd" clip-rule="evenodd" d="M13 5.41669C13.5983 5.41669 14.0833 5.90171 14.0833 6.50002V12.3305L17.8178 14.1977C18.3529 14.4653 18.5698 15.116 18.3023 15.6512C18.0347 16.1863 17.384 16.4032 16.8488 16.1357L12.5155 13.969C12.1485 13.7855 11.9166 13.4104 11.9166 13V6.50002C11.9166 5.90171 12.4017 5.41669 13 5.41669Z" fill="#E84545"/>
</svg>
