<svg width="26" height="26" viewBox="0 0 26 26" fill="none" xmlns="http://www.w3.org/2000/svg">
<path fill-rule="evenodd" clip-rule="evenodd" d="M12.6196 1.15229C12.8649 1.06032 13.1351 1.06032 13.3804 1.15229L22.0471 4.40229C22.4699 4.56085 22.75 4.96506 22.75 5.41665V13C22.75 16.7336 20.2781 19.717 18.0467 21.6694C16.9083 22.6656 15.7749 23.4442 14.9283 23.9733C14.5039 24.2386 14.1487 24.4429 13.8971 24.5822C13.7712 24.6519 13.671 24.7054 13.6009 24.7422C13.5658 24.7607 13.5382 24.7749 13.5187 24.7849L13.4954 24.7968L13.4883 24.8003L13.486 24.8015C13.4857 24.8017 13.4845 24.8023 13 23.8333C12.5155 24.8023 12.5152 24.8021 12.5149 24.8019L12.5117 24.8003L12.5046 24.7968L12.4813 24.7849C12.4618 24.7749 12.4342 24.7607 12.3991 24.7422C12.329 24.7054 12.2288 24.6519 12.1029 24.5822C11.8513 24.4429 11.4961 24.2386 11.0717 23.9733C10.2251 23.4442 9.09174 22.6656 7.95329 21.6694C5.72189 19.717 3.25 16.7336 3.25 13V5.41665C3.25 4.96506 3.53012 4.56085 3.95295 4.40229L12.6196 1.15229ZM13 23.8333L12.5149 24.8019C12.8198 24.9544 13.1795 24.9548 13.4845 24.8023L13 23.8333ZM13 22.6013C13.2076 22.4836 13.4731 22.3278 13.78 22.136C14.5584 21.6495 15.5917 20.9385 16.62 20.0389C18.7219 18.1997 20.5833 15.7663 20.5833 13V6.1674L13 3.32365L5.41667 6.1674V13C5.41667 15.7663 7.27811 18.1997 9.38005 20.0389C10.4083 20.9385 11.4416 21.6495 12.22 22.136C12.5269 22.3278 12.7924 22.4836 13 22.6013Z" fill="#D92929"/>
</svg>
