<svg width="26" height="26" viewBox="0 0 26 26" fill="none" xmlns="http://www.w3.org/2000/svg">
<path fill-rule="evenodd" clip-rule="evenodd" d="M22.75 6.5C22.75 5.90169 22.2649 5.41667 21.6666 5.41667L4.33329 5.41667C3.73499 5.41667 3.24996 5.90169 3.24996 6.5L3.24996 19.5C3.24996 20.0983 3.73498 20.5833 4.33329 20.5833L21.6666 20.5833C22.2649 20.5833 22.75 20.0983 22.75 19.5L22.75 6.5ZM21.6666 3.25C23.4616 3.25 24.9166 4.70507 24.9166 6.5L24.9166 19.5C24.9166 21.2949 23.4616 22.75 21.6666 22.75L4.33329 22.75C2.53837 22.75 1.08329 21.2949 1.08329 19.5L1.08329 6.5C1.08329 4.70507 2.53837 3.25 4.33329 3.25L21.6666 3.25Z" fill="#D92929"/>
<path fill-rule="evenodd" clip-rule="evenodd" d="M14.0833 13C14.0833 11.2051 12.6283 9.74998 10.8333 9.74998C9.03841 9.74998 7.58333 11.2051 7.58333 13C7.58333 14.7949 9.03841 16.25 10.8333 16.25C12.6283 16.25 14.0833 14.7949 14.0833 13ZM10.8333 7.58331C13.8249 7.58331 16.25 10.0084 16.25 13C16.25 15.9915 13.8249 18.4166 10.8333 18.4166C7.84179 18.4166 5.41667 15.9915 5.41667 13C5.41667 10.0084 7.84179 7.58331 10.8333 7.58331Z" fill="#D92929"/>
<path fill-rule="evenodd" clip-rule="evenodd" d="M19.2415 11.678C19.8398 11.678 20.3248 12.163 20.3248 12.7613L20.3248 12.7722C20.3248 13.3705 19.8398 13.8555 19.2415 13.8555C18.6432 13.8555 18.1582 13.3705 18.1582 12.7722L18.1582 12.7613C18.1582 12.163 18.6432 11.678 19.2415 11.678ZM19.2415 8.42798C19.8398 8.42798 20.3248 8.913 20.3248 9.51131L20.3248 9.52215C20.3248 10.1205 19.8398 10.6055 19.2415 10.6055C18.6432 10.6055 18.1582 10.1205 18.1582 9.52215L18.1582 9.51131C18.1582 8.913 18.6432 8.42798 19.2415 8.42798Z" fill="#D92929"/>
</svg>
