<svg width="26" height="26" viewBox="0 0 26 26" fill="none" xmlns="http://www.w3.org/2000/svg">
<path fill-rule="evenodd" clip-rule="evenodd" d="M10.9267 1.72666C11.1006 1.33544 11.4886 1.08331 11.9167 1.08331C13.066 1.08331 14.1682 1.53986 14.9808 2.35252C15.7935 3.16517 16.25 4.26737 16.25 5.41665V8.66665H21.2928C21.7616 8.66231 22.2259 8.75945 22.6537 8.95144C23.0835 9.14435 23.4662 9.42841 23.7754 9.78393C24.0845 10.1394 24.3127 10.5579 24.444 11.0104C24.5754 11.4628 24.6068 11.9384 24.5361 12.4042L23.0411 22.1541C23.0411 22.1544 23.0412 22.1538 23.0411 22.1541C22.9234 22.9287 22.5297 23.6356 21.9327 24.1431C21.3372 24.6493 20.5792 24.9239 19.7978 24.9166H4.33337C3.47142 24.9166 2.64477 24.5742 2.03528 23.9647C1.42578 23.3552 1.08337 22.5286 1.08337 21.6666V14.0833C1.08337 13.2214 1.42578 12.3947 2.03528 11.7852C2.64477 11.1757 3.47142 10.8333 4.33337 10.8333H6.87934L10.9267 1.72666ZM8.66671 12.1465L12.5752 3.35246C12.9017 3.45663 13.2019 3.63775 13.4488 3.88458C13.8551 4.29091 14.0834 4.84201 14.0834 5.41665V9.74998C14.0834 10.3483 14.5684 10.8333 15.1667 10.8333H21.2984L21.3106 10.8332C21.4677 10.8315 21.6232 10.8638 21.7665 10.9282C21.9098 10.9925 22.0373 11.0871 22.1404 11.2056C22.2434 11.3242 22.3195 11.4636 22.3633 11.6145C22.407 11.7651 22.4175 11.9235 22.394 12.0786C22.3941 12.0785 22.394 12.0788 22.394 12.0786L20.899 21.8292C20.8598 22.0875 20.7286 22.323 20.5295 22.4922C20.3304 22.6614 20.0769 22.753 19.8156 22.75L8.66671 22.75V12.1465ZM6.50004 22.75V13H4.33337C4.04606 13 3.77051 13.1141 3.56734 13.3173C3.36418 13.5204 3.25004 13.796 3.25004 14.0833V21.6666C3.25004 21.954 3.36418 22.2295 3.56734 22.4327C3.77051 22.6358 4.04606 22.75 4.33337 22.75H6.50004Z" fill="#D92929"/>
</svg>
