<svg width="24" height="24" viewBox="0 0 24 24" fill="none" xmlns="http://www.w3.org/2000/svg">
<path d="M11.5198 13.2882C11.9838 13.2882 12.4638 13.2882 12.9358 13.2882C12.8798 12.3282 14.0558 12.0642 14.0558 10.8802C14.0558 9.94417 13.3438 9.16817 12.1758 9.20017C11.1838 9.22417 10.3598 9.80017 10.3838 11.0162C10.8478 11.0162 11.1358 11.0162 11.5918 11.0162C11.5918 10.6322 11.8558 10.4722 12.1358 10.4642C12.3998 10.4642 12.6958 10.6162 12.6798 10.9122C12.6158 11.8162 11.3838 12.0242 11.5198 13.2882ZM12.2238 14.9602C12.6638 14.9602 13.0158 14.6722 13.0158 14.2322C13.0158 13.7842 12.6638 13.4962 12.2238 13.4962C11.7918 13.4962 11.4398 13.7842 11.4398 14.2322C11.4398 14.6722 11.7918 14.9602 12.2238 14.9602Z" fill="#FA5427"/>
<circle cx="12" cy="12" r="7" stroke="#FA5427" stroke-width="2"/>
</svg>
