<svg width="60" height="60" viewBox="0 0 60 60" fill="none" xmlns="http://www.w3.org/2000/svg">
<circle cx="30" cy="30" r="30" fill="#F6F6F7"/>
<path d="M12.1036 19.7363C12.4648 19.845 12.8546 19.8408 13.218 19.7184C13.6015 19.5893 14.009 19.5826 14.3965 19.6992L27.039 23.5027C27.3987 23.6109 27.7781 23.4071 27.8864 23.0473C27.9946 22.6874 27.7907 22.3081 27.4309 22.1999L14.7884 18.3963C14.1292 18.198 13.436 18.2094 12.7838 18.4291C12.6087 18.488 12.4668 18.4308 12.3979 18.3916C12.329 18.3523 12.2076 18.2594 12.1691 18.0787C12.0619 17.5765 11.7466 17.1393 11.3038 16.8794C10.8612 16.6193 10.3256 16.557 9.83474 16.7083C9.59639 16.7818 9.34414 16.7827 9.1053 16.7109C8.74553 16.6026 8.36539 16.8062 8.25713 17.1661C8.14889 17.5258 8.35203 17.905 8.7118 18.0132C9.21174 18.1636 9.73815 18.1619 10.2355 18.0086C10.4091 17.955 10.5478 18.0135 10.6151 18.0528C10.6823 18.0922 10.8007 18.185 10.8386 18.3627C10.9476 18.8737 11.2704 19.3151 11.7243 19.5738C11.8452 19.6424 11.9726 19.6969 12.1036 19.7363Z" fill="#655E67"/>
<path d="M17.3679 23.8585L21.0918 24.9788C21.3316 25.0509 21.5846 24.915 21.6567 24.6752L23.5891 18.2521C23.6612 18.0123 23.5253 17.7594 23.2855 17.6872L19.5616 16.5669C19.4406 16.5305 19.3099 16.5462 19.201 16.6103L17.1358 17.8257C17.0374 17.8837 16.9644 17.9766 16.9316 18.0859L16.0126 21.1406C15.9797 21.2499 15.9892 21.3677 16.0394 21.4702L17.0911 23.6233C17.1466 23.7368 17.2469 23.8221 17.3679 23.8585Z" fill="#999999"/>
<path d="M22.4466 26.8665L20.8147 26.3756C20.2237 26.1978 19.8887 25.5745 20.0665 24.9835L22.4329 17.1178C22.6107 16.5268 23.234 16.1918 23.825 16.3696L25.4569 16.8605C26.0479 17.0383 26.3829 17.6616 26.2051 18.2526L26.1461 22.0038L23.8387 26.1183C23.6609 26.7093 23.0376 27.0443 22.4466 26.8665Z" fill="#333333"/>
<path d="M38.1283 31.5841C38.1283 31.5841 37.3282 34.6397 35.3369 37.2586C34.7369 38.0478 35.0944 39.1907 36.0437 39.4763L40.2474 40.7409L42.5976 32.9288L38.1282 31.5842L38.1283 31.5841Z" fill="#333333"/>
<path d="M26.2473 18.1113L23.762 26.3725C23.6423 26.7702 23.6854 27.2 23.8815 27.5649L25.286 30.1781C25.6281 30.8134 26.2082 31.2872 26.8986 31.4949L38.9349 35.116C39.4543 35.2722 39.7857 35.7792 39.7224 36.317C38.7442 44.5972 38.8111 44.0743 38.785 44.1612C38.6852 44.493 38.3299 44.6949 37.9843 44.5909C36.9612 44.2831 35.8449 44.7949 35.471 45.7953C35.2577 46.3657 35.3202 46.9642 35.582 47.4539C35.8263 47.9073 36.2432 48.2685 36.7748 48.4284L43.9013 50.5724C44.9 50.8729 45.9268 50.1987 46.048 49.163L46.3923 46.2557L47.5117 36.7899L48.3209 29.9508C48.4417 28.9292 49.4562 28.2646 50.441 28.5609C51.5631 28.8985 52.7488 28.2409 53.0493 27.0972C53.3344 26.0076 52.6686 24.8933 51.5899 24.5688L27.6401 17.3635C27.0478 17.1853 26.425 17.5207 26.2473 18.1113Z" fill="#D92929"/>
<path d="M34.7212 29.0672L41.9297 31.2359C42.4094 31.3802 42.9152 31.1083 43.0595 30.6287L44.3227 26.4301C44.467 25.9504 44.1951 25.4445 43.7155 25.3002L36.5069 23.1315C36.0272 22.9872 35.5214 23.2591 35.3771 23.7388L34.1139 27.9374C33.9696 28.417 34.2416 28.9229 34.7212 29.0672Z" fill="#333333"/>
<path d="M43.0421 37.1123L42.2466 43.8343C42.169 44.4899 42.5733 45.1067 43.2057 45.2969L46.3923 46.2556L47.5117 36.7898L44.785 35.9694C43.975 35.7258 43.1414 36.2724 43.0421 37.1123Z" fill="#333333"/>
<path d="M30.3658 22.3813L28.6505 21.8652C28.2907 21.757 28.0868 21.3777 28.195 21.0178C28.3033 20.6581 28.6827 20.4541 29.0424 20.5624L30.7578 21.0784C31.1175 21.1867 31.3215 21.566 31.2132 21.9258C31.1049 22.2857 30.7256 22.4895 30.3658 22.3813Z" fill="#999999"/>
<path d="M28.2573 23.1757L29.9726 23.6917C30.3324 23.8 30.5363 24.1793 30.428 24.5391C30.3198 24.8989 29.9404 25.1028 29.5806 24.9946L27.8653 24.4785C27.5056 24.3703 27.3016 23.991 27.4099 23.6311C27.5181 23.2712 27.8975 23.0674 28.2573 23.1757Z" fill="#999999"/>
<path d="M27.4702 25.788L29.1855 26.304C29.5453 26.4123 29.7492 26.7916 29.6409 27.1514C29.5327 27.5112 29.1533 27.7151 28.7935 27.6069L27.0782 27.0908C26.7184 26.9826 26.5145 26.6033 26.6228 26.2434C26.731 25.8836 27.1104 25.6797 27.4702 25.788Z" fill="#999999"/>
<path d="M37.7651 26.0357L41.0654 27.0286C41.4251 27.1369 41.6291 27.5162 41.5208 27.876C41.4126 28.2358 41.0332 28.4397 40.6734 28.3315L37.3731 27.3386C37.0133 27.2303 36.8094 26.851 36.9177 26.4912C37.026 26.1313 37.4054 25.9275 37.7651 26.0357Z" fill="#999999"/>
</svg>
