<svg width="60" height="60" viewBox="0 0 60 60" fill="none" xmlns="http://www.w3.org/2000/svg">
<circle cx="30" cy="30" r="30" fill="#F6F6F7"/>
<path d="M44.6564 14.1377H15.343C14.5198 14.1377 13.8516 14.8059 13.8516 15.6291V46.4021C13.8516 47.2253 14.5198 47.8935 15.343 47.8935H44.6564C45.4796 47.8935 46.1478 47.2253 46.1478 46.4021V15.6291C46.1478 14.8059 45.4798 14.1377 44.6564 14.1377Z" fill="#D92929"/>
<path d="M44.6558 47.8936H15.343C14.5193 47.8936 13.8516 47.2259 13.8516 46.4022V30.2451H46.1472V46.4022C46.1472 47.2259 45.4795 47.8936 44.6558 47.8936Z" fill="#333333"/>
<path d="M47.5079 44.2643H12.492C11.534 44.2643 10.8245 43.3739 11.0382 42.4401L13.8522 30.1455H46.1478L48.9618 42.4401C49.1755 43.3739 48.4659 44.2643 47.5079 44.2643Z" fill="#D92929"/>
<path d="M22.291 33.1036V26.8112C22.291 25.1537 22.7305 23.9353 23.61 23.1569C24.4892 22.3784 25.6643 21.9893 27.1345 21.9893C28.6049 21.9893 29.7834 22.3785 30.67 23.1569C31.5565 23.9354 31.9998 25.1536 31.9998 26.8112V33.1036C31.9998 34.7615 31.5565 35.9795 30.67 36.7579C29.7833 37.5364 28.605 37.9255 27.1345 37.9255C25.6642 37.9255 24.4891 37.5363 23.61 36.7579C22.7306 35.9794 22.291 34.7614 22.291 33.1036ZM24.5831 33.1036C24.5831 34.9632 25.4335 35.893 27.1347 35.893C27.9564 35.893 28.5906 35.6625 29.0375 35.201C29.4842 34.7399 29.7078 34.0408 29.7078 33.1036V26.8112C29.7078 25.8743 29.4842 25.1752 29.0375 24.7138C28.5906 24.2526 27.9564 24.0217 27.1347 24.0217C25.4335 24.0217 24.5831 24.9516 24.5831 26.8112V33.1036Z" fill="white"/>
<path d="M33.4062 25.2546C33.4062 24.8798 33.5575 24.5843 33.8603 24.3679L36.1092 22.2056C36.2675 22.0472 36.4622 21.9678 36.693 21.9678C36.9525 21.9678 37.1866 22.0364 37.3957 22.1732C37.6046 22.3103 37.7092 22.4941 37.7092 22.7246V37.0391C37.7092 37.2699 37.5937 37.4537 37.3633 37.5905C37.1326 37.7276 36.866 37.7959 36.5632 37.7959C36.2459 37.7959 35.9756 37.7277 35.7524 37.5905C35.5288 37.4536 35.4172 37.2699 35.4172 37.0391V25.0166L34.6604 25.968C34.5162 26.1122 34.3577 26.1842 34.1847 26.1842C33.9685 26.1842 33.7846 26.0869 33.6333 25.8923C33.4819 25.6978 33.4062 25.4853 33.4062 25.2546Z" fill="white"/>
<path d="M24.6303 17.1702C23.8615 17.1702 23.2383 16.547 23.2383 15.7783V13.392C23.2383 12.6232 23.8615 12 24.6303 12C25.399 12 26.0222 12.6232 26.0222 13.392V15.7782C26.0222 16.547 25.399 17.1702 24.6303 17.1702Z" fill="#333333"/>
<path d="M34.7465 17.1702C33.9777 17.1702 33.3545 16.547 33.3545 15.7783V13.392C33.3545 12.6232 33.9777 12 34.7465 12C35.5152 12 36.1384 12.6232 36.1384 13.392V15.7782C36.1384 16.547 35.5152 17.1702 34.7465 17.1702Z" fill="#333333"/>
</svg>
