<svg width="60" height="60" viewBox="0 0 60 60" fill="none" xmlns="http://www.w3.org/2000/svg">
<circle cx="30" cy="30" r="30" fill="#F6F6F7"/>
<path d="M32.1252 40.3111C32.1252 35.3121 36.1778 31.2595 41.1769 31.2595C42.1682 31.2595 43.1214 31.4211 44.0141 31.7157C44.2304 30.571 44.3418 29.3925 44.3418 28.1892V19.5041C44.3418 19.0086 43.9643 18.5948 43.471 18.5494C38.5004 18.0912 33.8434 15.8682 30.3578 12.2897C29.9812 11.9032 29.3603 11.9037 28.9842 12.2897C25.4984 15.8682 20.8414 18.0912 15.8708 18.5494C15.3775 18.5948 15 19.0086 15 19.5041V28.1892C15 34.7141 18.2556 40.5134 23.9321 44.1004L28.7996 47.1764C29.3294 47.5104 30.0138 47.5106 30.5426 47.176L33.5919 45.249C32.6655 43.8286 32.1252 42.1334 32.1252 40.3111Z" fill="#D92929"/>
<path d="M32.1256 40.311C32.1256 35.312 36.1782 31.2594 41.1773 31.2594C41.5016 31.2594 41.8217 31.2772 42.1371 31.3104C42.3264 30.2966 42.4245 29.2535 42.4245 28.189V20.3617C37.6464 19.7355 33.1773 17.6123 29.6712 14.3037C26.1652 17.6123 21.6961 19.7355 16.918 20.3617V28.189C16.918 34.0424 19.8481 39.251 24.957 42.4791L29.6712 45.4582L32.7179 43.533C32.3364 42.5317 32.1256 41.4462 32.1256 40.311Z" fill="#ED3D3D"/>
<path d="M36.1565 25.1003C35.7336 24.6774 35.0452 24.6776 34.6223 25.1005L28.5714 31.1515L25.7128 28.2927C25.5082 28.0883 25.2358 27.9758 24.9457 27.9758C24.6556 27.9758 24.383 28.0884 24.1785 28.2928C23.9737 28.4977 23.8608 28.7699 23.8608 29.0596C23.8608 29.3494 23.9737 29.6218 24.1785 29.8266L27.8042 33.4523C28.009 33.6572 28.2816 33.77 28.5713 33.77C28.8611 33.77 29.1336 33.6572 29.3385 33.4522L36.1565 26.6343C36.5794 26.2117 36.5794 25.5234 36.1565 25.1003Z" fill="#EDF4FC"/>
<path d="M41.1772 49.3631C46.1762 49.3631 50.2288 45.3105 50.2288 40.3114C50.2288 35.3123 46.1762 31.2598 41.1772 31.2598C36.1781 31.2598 32.1255 35.3123 32.1255 40.3114C32.1255 45.3105 36.1781 49.3631 41.1772 49.3631Z" fill="#333333"/>
<path d="M41.177 47.6479C45.1763 47.6479 48.4184 44.4058 48.4184 40.4065C48.4184 36.4071 45.1763 33.165 41.177 33.165C37.1776 33.165 33.9355 36.4071 33.9355 40.4065C33.9355 44.4058 37.1776 47.6479 41.177 47.6479Z" fill="#EDF4FC"/>
<path d="M44.0024 40.779H40.7877C40.5821 40.779 40.4155 40.6124 40.4155 40.4068C40.4155 40.2012 40.5821 40.0347 40.7877 40.0347H44.0024C44.2079 40.0347 44.3745 40.2012 44.3745 40.4068C44.3745 40.6124 44.2079 40.779 44.0024 40.779Z" fill="#D92929"/>
<path d="M41.1983 41.2291C40.9927 41.2291 40.8262 41.0625 40.8262 40.8569V35.9405C40.8262 35.7349 40.9927 35.5684 41.1983 35.5684C41.4039 35.5684 41.5705 35.7349 41.5705 35.9405V40.8569C41.5705 41.0625 41.4039 41.2291 41.1983 41.2291Z" fill="#D92929"/>
</svg>
