<svg width="60" height="60" viewBox="0 0 60 60" fill="none" xmlns="http://www.w3.org/2000/svg">
<circle cx="30" cy="30" r="30" fill="#F6F6F7"/>
<path d="M34.4089 29.2744C33.419 34.4806 30.266 34.8105 29.7894 34.8105C29.3128 34.8105 26.1598 34.4806 25.1699 29.2378L25.5365 27.9546C26.7098 29.4578 28.1763 30.521 29.7894 30.521C31.4026 30.521 32.8691 29.4578 34.0423 27.9546L34.4089 29.2744Z" fill="white"/>
<path d="M34.1887 28.5045C33.0155 30.1177 31.4757 31.2542 29.7892 31.2542C28.1027 31.2542 26.5629 30.1177 25.3896 28.5045L25.5363 27.9912C26.7095 29.4944 28.176 30.5576 29.7892 30.5576C31.4023 30.5576 32.8688 29.4944 34.0421 27.9912L34.1887 28.5045Z" fill="#E6E9EE"/>
<path d="M43.4282 35.1038C34.8491 32.1708 34.4092 29.2378 34.4092 29.2378C33.4193 34.4806 30.2663 34.8105 29.7897 34.8105C29.313 34.8105 26.16 34.4806 25.1702 29.2378C25.1702 29.2378 25.0602 31.9875 16.1511 35.1038C16.1511 35.1038 11.9899 41.2082 11 47.6608C17.5535 49.4023 23.1537 50.8688 29.753 50.8688C36.389 50.8688 40.651 49.5856 50 47.6608C49.0834 41.2082 43.4282 35.1038 43.4282 35.1038Z" fill="#333333"/>
<path d="M39.0655 33.3074C38.2956 32.9041 37.6357 32.5375 37.0858 32.2075L36.3158 43.0964H23.2639L22.494 32.2075C21.944 32.5741 21.3208 32.9408 20.5142 33.3074C21.1375 37.9269 18.1494 49.4482 18.1494 49.4482C22.3656 50.4106 26.0503 50.8689 29.7899 50.8689C33.5295 50.8689 36.9391 50.5481 41.8885 49.3565C41.8885 49.3565 38.4423 37.9269 39.0655 33.3074Z" fill="#ED3D3D"/>
<path d="M35.8754 22.0152C36.1321 23.1884 35.6188 25.1315 35.5821 25.3148C34.4089 28.1012 32.2458 30.5209 29.7894 30.5209C27.333 30.5209 25.1699 28.1012 23.9967 25.3148C23.96 25.1682 23.4468 23.1884 23.7034 21.9785H35.8754V22.0152Z" fill="white"/>
<path d="M35.5645 24.3251C35.5645 24.3251 36.1511 22.2353 35.8578 20.9888H36.9943C36.9943 20.9888 36.701 23.1885 35.5645 24.3251Z" fill="#324A5E"/>
<path d="M23.9787 24.3251C22.8421 23.1885 22.5488 20.9888 22.5488 20.9888H23.6854C23.3921 22.2353 23.9787 24.3251 23.9787 24.3251Z" fill="#324A5E"/>
<path d="M25.4271 10.7598L26.8203 19.5588H21.9441C21.7608 18.8989 21.6875 18.239 21.6875 17.5057C21.6875 14.6827 23.1907 12.1896 25.4271 10.7598Z" fill="#D92929"/>
<path d="M37.8926 17.5423C37.8926 18.2389 37.7826 18.9355 37.5993 19.5954H32.7598L34.153 10.7964C36.3894 12.1896 37.8926 14.6826 37.8926 17.5423Z" fill="#D92929"/>
<path d="M37.6721 19.5589H32.7593L34.1525 10.7598C34.2991 9.84324 33.6026 9 32.6493 9H26.9299C26.0134 9 25.2801 9.84324 25.4268 10.7598L26.8199 19.5589H21.9071C21.2472 19.5589 20.6973 20.1088 20.6973 20.7687C20.6973 21.4287 21.2472 21.9786 21.9071 21.9786H37.6721C38.332 21.9786 38.882 21.4287 38.882 20.7687C38.882 20.1088 38.332 19.5589 37.6721 19.5589Z" fill="#ED3D3D"/>
</svg>
