<svg width="54" height="54" viewBox="0 0 54 54" fill="none" xmlns="http://www.w3.org/2000/svg">
<g opacity="0.3">
<path d="M48.2209 26.9994C48.9746 27.1479 49.4655 27.8783 49.318 28.6311L48.7681 31.4314C48.6161 32.2066 47.8472 32.7037 47.0711 32.5133C46.3442 32.3353 45.9035 31.5924 46.0474 30.8583L46.0626 30.7832L42.438 30.9486C42.3289 30.9531 42.2341 31.0255 42.2002 31.1301C41.8461 32.1994 41.3803 33.2187 40.8161 34.1718C40.7589 34.2683 40.7678 34.3908 40.8403 34.4767L42.4434 36.3811C42.7616 36.078 43.1774 35.9206 43.5976 35.9206C43.9517 35.9206 44.3093 36.0324 44.6124 36.2648C45.3464 36.8263 45.4859 37.8769 44.9244 38.6118L44.4595 39.2189C43.9141 39.9324 42.8975 40.1237 42.1572 39.6132C41.5198 39.1742 41.2891 38.3847 41.5198 37.6989L39.2104 36.6842C39.1057 36.6386 38.985 36.6654 38.909 36.7494C37.8397 37.9234 36.5952 38.9337 35.2165 39.7401C35.1217 39.7956 35.0707 39.9028 35.0886 40.011L35.6796 43.616L36.191 43.4112C36.9251 43.118 37.7601 43.4935 38.0221 44.249C38.2671 44.9562 37.8826 45.7296 37.1879 46.0068L34.5745 47.0528C33.8414 47.3461 33.0063 46.9706 32.7443 46.2151C32.4994 45.5079 32.8838 44.7345 33.5785 44.4564L33.6492 44.4287L31.5409 41.4746C31.4774 41.3852 31.3657 41.3459 31.2593 41.3736C29.9995 41.7 28.6781 41.8752 27.3155 41.8752C26.2372 41.8752 25.1858 41.7652 24.1692 41.5578C24.0619 41.5363 23.9519 41.5819 23.8929 41.674L21.7838 44.983L21.858 45.0098C22.5447 45.2602 22.9702 45.9084 22.9702 46.5986C22.9702 46.7918 22.9372 46.9876 22.8674 47.1789C22.8674 48.1686 22.1066 48.7015 21.1767 48.3618L18.5848 47.4167C17.7175 47.1011 17.2651 46.1489 17.5646 45.279C17.8722 44.3822 18.8941 43.9298 19.7846 44.2544L19.8445 44.2758L20.2737 40.3982C20.2862 40.2891 20.229 40.1854 20.1315 40.1344C18.49 39.2868 17.0174 38.1576 15.7773 36.8102C15.7022 36.7289 15.5851 36.702 15.4832 36.7441L12.3199 38.0414C12.6776 38.7101 12.4764 39.5577 11.8237 39.9869C11.1424 40.4348 10.2224 40.2265 9.75748 39.5577L8.94745 38.391C8.49415 37.7392 8.59965 36.8308 9.22372 36.339C9.88891 35.8151 10.8375 35.951 11.3355 36.6099L13.5636 34.0922C13.6378 34.0082 13.6503 33.8866 13.5958 33.7891C12.6811 32.1404 12.0553 30.3093 11.7862 28.3647C11.771 28.2556 11.6914 28.1671 11.585 28.143L8.02475 27.3204L8.02118 27.738C8.0176 28.1555 7.84594 28.5337 7.56966 28.8064C7.29429 29.08 6.9152 29.2481 6.49677 29.2481C5.66527 29.2481 4.99202 28.5695 5.00007 27.738L5.02332 25.1514C5.03047 24.3056 5.72964 23.593 6.57455 23.6153C7.39442 23.6368 8.04889 24.3109 8.04442 25.1335L11.5787 24.3047C11.686 24.2796 11.7656 24.1911 11.7799 24.0821C12.0571 22.0257 12.7339 20.0953 13.729 18.3716C13.7844 18.275 13.7746 18.1543 13.7022 18.0685L12.0168 16.089L11.8702 16.2821C11.416 16.8829 10.5487 16.9875 9.96312 16.5002C9.41416 16.0425 9.3471 15.2217 9.77805 14.6522L10.901 13.168C11.1621 12.8238 11.5582 12.6423 11.9596 12.6423C12.2377 12.6423 12.5184 12.7299 12.758 12.9105C13.3133 13.3298 13.4438 14.1005 13.0772 14.6781L15.434 15.6973C15.5377 15.7421 15.6575 15.7152 15.7344 15.6321C16.8467 14.4126 18.1493 13.3701 19.596 12.5502C19.6907 12.4956 19.7435 12.3892 19.7274 12.2811L19.1847 8.66807L18.6697 8.86656C17.933 9.14998 17.1024 8.76284 16.8511 8.00466C16.6151 7.29386 17.0103 6.52585 17.7086 6.25762L20.3354 5.24731C21.073 4.96388 21.9027 5.35013 22.1539 6.1092C22.39 6.81911 21.9957 7.58712 21.2965 7.85624L21.2259 7.88306L23.293 10.8639C23.3556 10.9542 23.4665 10.9954 23.5728 10.9694C24.7727 10.6753 26.0253 10.5197 27.3155 10.5197H27.3173C27.4299 10.5197 27.531 10.4509 27.5685 10.3445L28.2534 8.42935C27.4603 8.18079 26.9319 7.39847 27.0329 6.54552C27.1483 5.57901 28.0737 4.89236 29.0402 5.01395L29.9807 5.13197C30.9392 5.25267 31.658 6.11099 31.5534 7.07213C31.4712 7.82048 30.9329 8.40342 30.2499 8.58224L30.4877 10.6583C30.5002 10.7701 30.5833 10.8613 30.6942 10.8854C32.2839 11.235 33.7833 11.826 35.1512 12.6172C35.2469 12.6718 35.3649 12.6637 35.4498 12.594L38.2868 10.2917L37.8558 9.94929C37.2362 9.45754 37.1486 8.54647 37.6743 7.94476C38.1661 7.38059 39.0289 7.33052 39.6145 7.79634L41.8184 9.54606C42.438 10.0369 42.5256 10.9489 41.9999 11.5506C41.5081 12.1139 40.6454 12.1639 40.0597 11.699L39.9998 11.6516L38.4808 14.9499C38.4343 15.0491 38.4557 15.1663 38.5326 15.2449C39.602 16.3402 40.5121 17.5919 41.2256 18.9616C41.2775 19.0609 41.3857 19.1172 41.4965 19.102L43.6504 18.8007C43.3339 17.9174 43.8033 16.9383 44.7063 16.6424C45.5673 16.3599 46.4953 16.8382 46.8118 17.6876L47.3081 19.018C47.621 19.8593 47.2455 20.8222 46.4229 21.1799C45.6343 21.5223 44.7447 21.2129 44.3209 20.5138L42.5337 21.7261C42.4398 21.7896 42.3978 21.9059 42.4282 22.0149C42.7956 23.3471 42.9923 24.749 42.9923 26.1975C42.9923 26.4398 42.987 26.6803 42.9753 26.919C42.9709 27.029 43.0326 27.13 43.1327 27.1738L46.4837 28.6374L46.5892 28.0965C46.7376 27.3428 47.4681 26.8519 48.2209 26.9994V26.9994Z" fill="#0087FF"/>
</g>
<path opacity="0.3" d="M34.123 20.3294C35.3455 20.3294 36.3364 19.5008 36.3364 18.4787C36.3364 17.4566 35.3455 16.6281 34.123 16.6281C32.9006 16.6281 31.9097 17.4566 31.9097 18.4787C31.9097 19.5008 32.9006 20.3294 34.123 20.3294Z" fill="#0575D9"/>
<path opacity="0.7" d="M26.1351 32.423C27.4713 32.423 28.5544 31.3398 28.5544 30.0037C28.5544 28.6675 27.4713 27.5844 26.1351 27.5844C24.799 27.5844 23.7158 28.6675 23.7158 30.0037C23.7158 31.3398 24.799 32.423 26.1351 32.423Z" fill="#0575D9"/>
<path d="M35.5647 30.4754C36.5214 30.4754 37.2969 29.6998 37.2969 28.7432C37.2969 27.7865 36.5214 27.011 35.5647 27.011C34.608 27.011 33.8325 27.7865 33.8325 28.7432C33.8325 29.6998 34.608 30.4754 35.5647 30.4754Z" fill="#66B7FF"/>
<path d="M29.167 38.8807C30.0971 38.8807 30.8511 38.1267 30.8511 37.1966C30.8511 36.2664 30.0971 35.5125 29.167 35.5125C28.2369 35.5125 27.4829 36.2664 27.4829 37.1966C27.4829 38.1267 28.2369 38.8807 29.167 38.8807Z" fill="#66B7FF"/>
<g opacity="0.3">
<path d="M17.7813 25.4466C17.7813 19.4198 20.6564 14.0632 25.108 10.6738C24.5883 10.7472 24.0751 10.8462 23.5729 10.9694C23.4665 10.9954 23.3556 10.9542 23.293 10.8639L21.2259 7.88305L21.2965 7.85623C21.9957 7.58711 22.39 6.81909 22.1539 6.10919C21.9027 5.35011 21.073 4.96387 20.3354 5.24729L17.7086 6.25761C17.0103 6.52583 16.6151 7.29385 16.8511 8.00464C17.1024 8.76283 17.933 9.14996 18.6697 8.86654L19.1847 8.66805L19.7274 12.281C19.7435 12.3892 19.6907 12.4956 19.596 12.5502C18.1493 13.37 16.8467 14.4125 15.7344 15.6321C15.6575 15.7152 15.5377 15.742 15.434 15.6973L13.0772 14.6781C13.4438 14.1005 13.3133 13.3298 12.758 12.9105C12.5184 12.7299 12.2377 12.6423 11.9596 12.6423C11.5582 12.6423 11.1621 12.8237 10.901 13.168L9.77805 14.6521C9.3471 15.2217 9.41416 16.0424 9.96312 16.5002C10.5487 16.9875 11.416 16.8829 11.8702 16.2821L12.0168 16.0889L13.7022 18.0684C13.7746 18.1543 13.7844 18.275 13.729 18.3715C12.7339 20.0953 12.0571 22.0256 11.7799 24.082C11.7656 24.1911 11.686 24.2796 11.5787 24.3047L8.04442 25.1335C8.04889 24.3109 7.39442 23.6368 6.57455 23.6153C5.72964 23.593 5.03047 24.3056 5.02332 25.1514L5.00007 27.7379C4.99202 28.5694 5.66527 29.248 6.49677 29.248C6.9152 29.248 7.29429 29.08 7.56966 28.8064C7.84594 28.5337 8.0176 28.1555 8.02118 27.7379L8.02475 27.3204L11.585 28.143C11.6914 28.1671 11.771 28.2556 11.7862 28.3647C12.0553 30.3093 12.6811 32.1404 13.5958 33.7891C13.6503 33.8865 13.6378 34.0081 13.5636 34.0922L11.3355 36.6099C10.8375 35.951 9.88892 35.8151 9.22372 36.339C8.59965 36.8308 8.49415 37.7391 8.94745 38.3909L9.75748 39.5577C10.2224 40.2265 11.1424 40.4348 11.8237 39.9869C12.4764 39.5577 12.6776 38.7101 12.3199 38.0413L15.4832 36.744C15.5851 36.702 15.7022 36.7288 15.7773 36.8102C17.0174 38.1576 18.49 39.2868 20.1315 40.1344C20.229 40.1854 20.2862 40.2891 20.2737 40.3982L19.8445 44.2758L19.7846 44.2543C18.8941 43.9298 17.8722 44.3822 17.5646 45.2789C17.2651 46.1489 17.7175 47.1011 18.5848 47.4167L21.1767 48.3617C22.1066 48.7015 22.8674 48.1686 22.8674 47.1789C22.9372 46.9875 22.9702 46.7917 22.9702 46.5986C22.9702 45.9084 22.5447 45.2602 21.858 45.0098L21.7838 44.983L23.8929 41.674C23.9519 41.5819 24.0619 41.5363 24.1692 41.5578C25.1858 41.7652 26.2372 41.8752 27.3155 41.8752C27.4424 41.8752 27.5713 41.8736 27.6974 41.8706C21.803 38.7623 17.7813 32.5735 17.7813 25.4466V25.4466Z" fill="#0575D9"/>
</g>
<path opacity="0.3" d="M18.6294 34.9225C19.5983 34.9225 20.3837 34.1371 20.3837 33.1682C20.3837 32.1993 19.5983 31.4138 18.6294 31.4138C17.6605 31.4138 16.875 32.1993 16.875 33.1682C16.875 34.1371 17.6605 34.9225 18.6294 34.9225Z" fill="#0575D9"/>
<path d="M31.6129 25.4466H31.0202C30.6498 25.4466 30.3496 25.1464 30.3496 24.776C30.3496 24.4057 30.6498 24.1055 31.0202 24.1055H31.6129C31.9834 24.1055 32.2835 24.4057 32.2835 24.776C32.2835 25.1464 31.9834 25.4466 31.6129 25.4466Z" fill="#66B7FF"/>
<path d="M23.7166 37.1679H23.1076C22.7372 37.1679 22.437 36.8677 22.437 36.4973C22.437 36.127 22.7372 35.8268 23.1076 35.8268H23.7166C24.087 35.8268 24.3872 36.127 24.3872 36.4973C24.3872 36.8677 24.087 37.1679 23.7166 37.1679Z" fill="#66B7FF"/>
<path d="M17.4614 27.4026H16.8747C16.5042 27.4026 16.2041 27.1024 16.2041 26.7321C16.2041 26.3618 16.5042 26.0615 16.8747 26.0615H17.4614C17.8318 26.0615 18.1319 26.3618 18.1319 26.7321C18.1319 27.1024 17.8318 27.4026 17.4614 27.4026Z" fill="#0575D9"/>
<path d="M29.3713 15.6708H28.5548C28.1844 15.6708 27.8843 15.3706 27.8843 15.0003C27.8843 14.6299 28.1844 14.3297 28.5548 14.3297H29.3713C29.7417 14.3297 30.0419 14.6299 30.0419 15.0003C30.0419 15.3706 29.7417 15.6708 29.3713 15.6708Z" fill="#66B7FF"/>
<path d="M34.7333 34.9852H33.8317C33.4613 34.9852 33.1611 34.6849 33.1611 34.3146C33.1611 33.9443 33.4613 33.644 33.8317 33.644H34.7333C35.1037 33.644 35.4039 33.9443 35.4039 34.3146C35.4039 34.6849 35.1036 34.9852 34.7333 34.9852Z" fill="#0575D9"/>
<path opacity="0.5" d="M24.5063 23.3531C26.5085 21.7743 27.0627 19.1388 25.7442 17.4667C24.4256 15.7945 21.7336 15.7188 19.7313 17.2976C17.7291 18.8765 17.1749 21.5119 18.4934 23.1841C19.812 24.8563 22.504 24.9319 24.5063 23.3531Z" fill="#0575D9"/>
</svg>
